<?xml version="1.0" encoding="UTF-8" standalone="no"?>
<!-- Created with Inkscape (http://www.inkscape.org/) -->

<svg
   xmlns:dc="http://purl.org/dc/elements/1.1/"
   xmlns:cc="http://creativecommons.org/ns#"
   xmlns:rdf="http://www.w3.org/1999/02/22-rdf-syntax-ns#"
   xmlns:svg="http://www.w3.org/2000/svg"
   xmlns="http://www.w3.org/2000/svg"
   xmlns:sodipodi="http://sodipodi.sourceforge.net/DTD/sodipodi-0.dtd"
   xmlns:inkscape="http://www.inkscape.org/namespaces/inkscape"
   width="210mm"
   height="297mm"
   viewBox="0 0 210 297"
   version="1.1"
   id="svg4655"
   inkscape:version="0.92.1 r15371"
   sodipodi:docname="birthday.svg">
  <defs
     id="defs4649" />
  <sodipodi:namedview
     id="base"
     pagecolor="#ffffff"
     bordercolor="#666666"
     borderopacity="1.0"
     inkscape:pageopacity="0.0"
     inkscape:pageshadow="2"
     inkscape:zoom="0.35"
     inkscape:cx="-70"
     inkscape:cy="560"
     inkscape:document-units="mm"
     inkscape:current-layer="layer1"
     showgrid="false"
     showborder="false"
     inkscape:window-width="1920"
     inkscape:window-height="1001"
     inkscape:window-x="-9"
     inkscape:window-y="-9"
     inkscape:window-maximized="1" />
  <metadata
     id="metadata4652">
    <rdf:RDF>
      <cc:Work
         rdf:about="">
        <dc:format>image/svg+xml</dc:format>
        <dc:type
           rdf:resource="http://purl.org/dc/dcmitype/StillImage" />
        <dc:title></dc:title>
      </cc:Work>
    </rdf:RDF>
  </metadata>
  <g
     inkscape:label="Layer 1"
     inkscape:groupmode="layer"
     id="layer1">
    <path
       style="opacity:0.43000004;fill:#d35f5f;fill-opacity:1;stroke:none;stroke-width:2.55569983;stroke-linecap:round;stroke-linejoin:round;stroke-miterlimit:4;stroke-dasharray:none;stroke-opacity:0;paint-order:stroke fill markers"
       d="M 222.94039,82.991583 H -2.2737667 v 2.74039 H -11.273717 V 249.73231 h 8.9999503 v 2.74039 H 222.94039 Z"
       id="rect4596"
       inkscape:connector-curvature="0" />
    <g
       id="g4672"
       transform="matrix(0,0.48044399,-0.48044399,0,396.78514,250.21193)">
      <g
         transform="translate(-393.60914,399.95876)"
         id="g4610">
        <g
           id="g4608"
           transform="translate(0,25.240116)">
          <polygon
             id="polygon4600"
             points="173.6,156.6 184,156.6 164.9,135.7 183.4,115.6 174,115.6 157.2,133.9 157.2,115.6 149.2,115.6 149.2,156.6 157.2,156.6 157.2,138.5 " />
          <polygon
             id="polygon4602"
             points="195.3,122.2 214.6,122.2 214.6,115.6 187.5,115.6 187.5,156.6 214.6,156.6 214.6,149.7 195.3,149.7 195.3,138.4 214.4,138.4 214.4,132 195.3,132 " />
          <polygon
             id="polygon4604"
             points="228.6,122.2 247.8,122.2 247.8,115.6 220.8,115.6 220.8,156.6 247.8,156.6 247.8,149.7 228.6,149.7 228.6,138.4 247.6,138.4 247.6,132 228.6,132 " />
          <path
             inkscape:connector-curvature="0"
             id="path4606"
             d="m 281.6,123.9 c -0.7,-1.7 -1.7,-3.1 -3,-4.4 -1.3,-1.2 -2.8,-2.2 -4.5,-2.9 -1.7,-0.7 -3.5,-1.1 -5.4,-1.1 H 254 v 41 h 7.9 v -13.4 h 6.8 c 1.9,0 3.7,-0.4 5.4,-1.1 1.7,-0.7 3.2,-1.7 4.5,-2.9 1.3,-1.2 2.3,-2.7 3,-4.4 0.7,-1.7 1.1,-3.5 1.1,-5.5 0.1,-1.8 -0.3,-3.6 -1.1,-5.3 z m -7.4,8.4 c -0.4,0.9 -0.9,1.8 -1.6,2.5 -0.7,0.7 -1.5,1.3 -2.4,1.7 -0.9,0.4 -1.9,0.6 -3,0.6 h -5.3 v -15.5 h 5.3 c 1.1,0 2.1,0.2 3,0.6 0.9,0.4 1.7,1 2.4,1.6 0.7,0.7 1.2,1.5 1.6,2.4 0.4,0.9 0.6,1.9 0.6,3 0,1.1 -0.2,2.1 -0.6,3.1 z" />
        </g>
      </g>
      <g
         transform="translate(-393.65159,399.95876)"
         id="g4622">
        <g
           id="g4620"
           transform="translate(0,25.240116)">
          <path
             inkscape:connector-curvature="0"
             id="path4612"
             d="m 163.7,203.1 c -1.9,1.1 -4.2,1.7 -6.7,1.7 -1.9,0 -3.7,-0.4 -5.4,-1.1 -1.7,-0.7 -3.2,-1.7 -4.4,-3 -1.3,-1.2 -2.3,-2.7 -3,-4.4 -0.7,-1.7 -1.1,-3.4 -1.1,-5.3 0,-1.9 0.4,-3.6 1.1,-5.3 0.7,-1.7 1.7,-3.1 3,-4.4 1.3,-1.2 2.7,-2.2 4.4,-3 1.7,-0.7 3.5,-1.1 5.4,-1.1 2.4,0 4.6,0.6 6.6,1.7 2,1.1 3.6,2.6 4.9,4.4 l 5.5,-5.6 c -1.9,-2.4 -4.4,-4.3 -7.3,-5.7 -2.9,-1.5 -6.1,-2.2 -9.7,-2.2 -3,0 -5.9,0.5 -8.6,1.6 -2.7,1.1 -5,2.6 -7,4.5 -2,1.9 -3.5,4.2 -4.7,6.8 -1.1,2.6 -1.7,5.4 -1.7,8.3 0,3 0.6,5.8 1.7,8.3 1.1,2.6 2.7,4.8 4.7,6.7 2,1.9 4.3,3.4 7,4.5 2.7,1.1 5.5,1.7 8.6,1.7 3.5,0 6.7,-0.7 9.7,-2.2 2.9,-1.5 5.4,-3.5 7.5,-5.9 l -5.5,-5.7 c -1.5,2.1 -3.1,3.6 -5,4.7 z" />
          <path
             inkscape:connector-curvature="0"
             id="path4614"
             d="m 194,170.6 -19.4,41 h 8.7 l 3.8,-8.2 H 207 l 3.8,8.2 h 8.7 l -19.4,-41 z m -3.8,26.2 6.9,-14.8 6.8,14.8 z" />
          <polygon
             id="polygon4616"
             points="251.4,204 231.8,204 231.8,170.7 223.7,170.7 223.7,211.6 251.4,211.6 " />
          <polygon
             id="polygon4618"
             points="297,211.6 297,170.6 288.3,170.6 276.4,191 265,170.6 256,170.6 256,211.6 263.8,211.6 263.8,184.1 276.2,206.1 289.2,184.3 289.2,211.6 " />
        </g>
      </g>
      <g
         transform="matrix(0.67334639,0,0,0.67334639,-323.06586,504.10206)"
         id="g4630">
        <path
           d="m 181.8,225.7 -15,31.7 h 6.7 l 3,-6.3 h 15.4 l 2.9,6.3 h 6.7 l -15,-31.7 z m -2.9,20.3 5.3,-11.4 5.3,11.4 z"
           id="path4624"
           inkscape:connector-curvature="0" />
        <polygon
           points="231.1,257.4 231.1,225.7 225,225.7 225,246.4 211.6,225.7 204.7,225.7 204.7,257.4 210.8,257.4 210.8,235.2 225,257.4 "
           id="polygon4626" />
        <path
           d="m 264.1,235.4 c -0.7,-1.9 -1.8,-3.6 -3.1,-5 -1.3,-1.4 -2.9,-2.6 -4.7,-3.4 -1.8,-0.8 -3.8,-1.3 -6,-1.3 H 237 v 31.7 h 13.2 c 2.2,0 4.2,-0.4 6,-1.2 1.8,-0.8 3.4,-2 4.7,-3.4 1.3,-1.4 2.4,-3.1 3.1,-5 0.7,-1.9 1.1,-4 1.1,-6.2 0.1,-2.2 -0.3,-4.2 -1,-6.2 z m -5.9,10.3 c -0.5,1.3 -1.2,2.4 -2.1,3.4 -0.9,1 -2,1.7 -3.3,2.3 -1.3,0.5 -2.7,0.8 -4.3,0.8 h -5.3 v -21.6 h 5.3 c 1.6,0 3.1,0.3 4.4,0.9 1.3,0.6 2.4,1.3 3.3,2.3 0.9,1 1.6,2.1 2.1,3.5 0.5,1.3 0.7,2.7 0.7,4.2 -0.1,1.5 -0.3,2.9 -0.8,4.2 z"
           id="path4628"
           inkscape:connector-curvature="0" />
      </g>
      <g
         transform="translate(-393.65159,399.95876)"
         id="g4662">
        <g
           id="g4642"
           transform="translate(0,25.240116)">
          <polygon
             id="polygon4632"
             points="130.2,287.8 130.2,271.5 122.3,271.5 122.3,312.5 130.2,312.5 130.2,294.3 146.4,294.3 146.4,312.5 154.3,312.5 154.3,271.5 146.4,271.5 146.4,287.8 " />
          <path
             inkscape:connector-curvature="0"
             id="path4634"
             d="m 177.8,271.5 -19.4,41 h 8.7 l 3.8,-8.2 h 19.9 l 3.8,8.2 h 8.7 l -19.4,-41 z m -3.8,26.1 6.9,-14.8 6.8,14.8 z" />
          <path
             inkscape:connector-curvature="0"
             id="path4636"
             d="m 232.1,275.5 c -1.3,-1.2 -2.8,-2.2 -4.5,-2.9 -1.7,-0.7 -3.5,-1.1 -5.4,-1.1 h -14.7 v 41 h 7.9 v -13.4 h 6.8 c 1.9,0 3.7,-0.3 5.4,-1.1 1.7,-0.7 3.2,-1.7 4.5,-2.9 1.3,-1.2 2.3,-2.7 3,-4.4 0.7,-1.7 1.1,-3.5 1.1,-5.5 0,-1.9 -0.4,-3.8 -1.1,-5.4 -0.7,-1.7 -1.7,-3.1 -3,-4.3 z m -4.4,12.6 c -0.4,0.9 -0.9,1.8 -1.6,2.5 -0.7,0.7 -1.5,1.3 -2.4,1.7 -0.9,0.4 -1.9,0.6 -3,0.6 h -5.3 v -15.5 h 5.3 c 1.1,0 2.1,0.2 3,0.6 0.9,0.4 1.7,1 2.4,1.6 0.7,0.7 1.2,1.5 1.6,2.4 0.4,0.9 0.6,1.9 0.6,3 0,1.2 -0.2,2.2 -0.6,3.1 z" />
          <path
             inkscape:connector-curvature="0"
             id="path4638"
             d="m 266,275.5 c -1.3,-1.2 -2.8,-2.2 -4.5,-2.9 -1.7,-0.7 -3.5,-1.1 -5.4,-1.1 h -14.7 v 41 h 7.9 v -13.4 h 6.8 c 1.9,0 3.7,-0.3 5.4,-1.1 1.7,-0.7 3.2,-1.7 4.5,-2.9 1.3,-1.2 2.3,-2.7 3,-4.4 0.7,-1.7 1.1,-3.5 1.1,-5.5 0,-1.9 -0.4,-3.8 -1.1,-5.4 -0.8,-1.7 -1.8,-3.1 -3,-4.3 z m -4.5,12.6 c -0.4,0.9 -0.9,1.8 -1.6,2.5 -0.7,0.7 -1.5,1.3 -2.4,1.7 -0.9,0.4 -1.9,0.6 -3,0.6 h -5.3 v -15.5 h 5.3 c 1.1,0 2.1,0.2 3,0.6 0.9,0.4 1.7,1 2.4,1.6 0.7,0.7 1.2,1.5 1.6,2.4 0.4,0.9 0.6,1.9 0.6,3 0,1.2 -0.2,2.2 -0.6,3.1 z" />
          <polygon
             id="polygon4640"
             points="289,288.7 278.4,271.5 269.1,271.5 285,295.6 285,312.5 293,312.5 293,295.7 309.7,271.5 300.2,271.5 " />
        </g>
        <g
           id="g4660"
           transform="translate(0,25.240116)">
          <path
             inkscape:connector-curvature="0"
             id="path4644"
             d="m 108.1,350.3 c -0.5,-0.8 -1.1,-1.6 -1.8,-2.3 -0.7,-0.7 -1.5,-1.2 -2.4,-1.7 1.1,-1 2,-2.2 2.7,-3.6 0.7,-1.4 1,-2.9 1,-4.5 0,-1.8 -0.3,-3.4 -0.9,-4.9 -0.6,-1.5 -1.5,-2.7 -2.6,-3.7 -1.1,-1 -2.5,-1.8 -4,-2.3 -1.5,-0.5 -3.2,-0.8 -4.9,-0.8 H 80.4 v 41 l 16.6,0.1 c 1.7,0 3.3,-0.3 4.8,-0.9 1.5,-0.6 2.9,-1.4 4,-2.4 1.2,-1 2.1,-2.3 2.8,-3.7 0.7,-1.5 1.1,-3 1.1,-4.7 0,-1 -0.1,-1.9 -0.4,-2.8 -0.3,-1.1 -0.7,-2 -1.2,-2.8 z M 88.3,332.5 H 93 c 0.9,0 1.7,0.1 2.6,0.4 0.8,0.2 1.5,0.6 2.2,1.1 0.6,0.5 1.1,1.1 1.5,1.8 0.4,0.7 0.6,1.6 0.6,2.6 0,1 -0.2,1.8 -0.6,2.5 -0.4,0.7 -0.9,1.3 -1.5,1.7 -0.6,0.4 -1.4,0.8 -2.2,1 -0.8,0.2 -1.7,0.3 -2.6,0.3 -0.9,0 -1.7,0 -2.4,0 -0.7,0 -1.5,0 -2.3,-0.1 z m 12.4,25.3 c -0.4,0.7 -0.9,1.3 -1.6,1.7 -0.7,0.4 -1.4,0.8 -2.3,1 -0.9,0.2 -1.7,0.3 -2.6,0.3 h -5.9 v -11.3 c 1.2,0 2.3,0 3.4,0 1.1,0 2.3,0 3.4,0 0.9,0 1.6,0.1 2.4,0.4 0.7,0.3 1.4,0.7 1.9,1.2 0.6,0.5 1,1.1 1.3,1.8 0.3,0.7 0.5,1.5 0.5,2.4 0.1,1 -0.1,1.8 -0.5,2.5 z" />
          <rect
             id="rect4646"
             height="41"
             width="7.9000001"
             y="326.5"
             x="115.2" />
          <path
             inkscape:connector-curvature="0"
             id="path4648"
             d="m 159.6,362.5 c -0.3,-0.9 -0.6,-1.7 -0.8,-2.4 -0.3,-0.7 -0.5,-1.4 -0.7,-2.1 -0.2,-0.6 -0.4,-1.2 -0.6,-1.8 -0.2,-0.6 -0.4,-1.2 -0.7,-1.7 -0.5,-1.3 -1.1,-2.4 -1.9,-3.3 -0.8,-0.9 -1.9,-1.6 -3.2,-2.1 1.1,-0.4 2.1,-0.9 3.1,-1.7 0.9,-0.7 1.7,-1.6 2.4,-2.5 0.7,-1 1.2,-2 1.6,-3.1 0.4,-1.1 0.6,-2.3 0.6,-3.5 0,-1.7 -0.3,-3.2 -0.9,-4.7 -0.6,-1.4 -1.5,-2.7 -2.6,-3.7 -1.1,-1.1 -2.4,-1.9 -3.9,-2.5 -1.5,-0.6 -3.1,-0.9 -4.9,-0.9 l -16.2,0.1 v 41 h 7.8 v -16.3 h 3 c 1.2,0 2.3,0.2 3.2,0.5 0.9,0.3 1.7,0.8 2.3,1.4 0.6,0.6 1.2,1.4 1.7,2.2 0.5,0.9 0.8,1.8 1.1,2.8 l 2.9,9.3 h 8.8 c -0.4,-0.6 -0.7,-1.3 -1.1,-2.1 -0.3,-0.8 -0.6,-1.8 -1,-2.9 z m -8.8,-21.1 c -0.4,0.8 -0.8,1.4 -1.5,2 -0.6,0.5 -1.3,1 -2.2,1.3 -0.8,0.3 -1.7,0.4 -2.7,0.4 h -5.7 v -12.8 h 5.7 c 1,0 1.9,0.2 2.7,0.5 0.8,0.3 1.6,0.8 2.2,1.4 0.6,0.6 1.1,1.3 1.5,2.1 0.4,0.8 0.5,1.7 0.5,2.6 0,0.9 -0.2,1.8 -0.5,2.5 z" />
          <polygon
             id="polygon4650"
             points="183.4,367.5 183.4,333.6 194.7,333.6 194.7,326.5 164,326.5 164,333.6 175.4,333.6 175.4,367.5 " />
          <polygon
             id="polygon4652"
             points="199.9,326.5 199.9,367.5 207.8,367.5 207.8,349.4 224,349.4 224,367.5 231.9,367.5 231.9,326.5 224,326.5 224,342.8 207.8,342.8 207.8,326.5 " />
          <path
             inkscape:connector-curvature="0"
             id="path4654"
             d="m 274.6,339.1 c -1,-2.5 -2.3,-4.7 -4,-6.5 -1.7,-1.8 -3.8,-3.3 -6.1,-4.4 -2.4,-1.1 -5,-1.6 -7.8,-1.6 h -17.1 v 41 h 17.1 c 2.8,0 5.4,-0.5 7.8,-1.6 2.4,-1.1 4.4,-2.5 6.1,-4.4 1.7,-1.9 3,-4 4,-6.5 1,-2.5 1.4,-5.1 1.4,-8 0.1,-2.9 -0.4,-5.6 -1.4,-8 z m -7.6,13.3 c -0.6,1.7 -1.5,3.2 -2.7,4.4 -1.2,1.2 -2.6,2.2 -4.2,2.9 -1.7,0.7 -3.5,1.1 -5.6,1.1 h -6.9 v -28 h 6.9 c 2.1,0 4,0.4 5.7,1.1 1.7,0.7 3.1,1.7 4.3,3 1.2,1.3 2.1,2.8 2.7,4.5 0.6,1.7 0.9,3.5 0.9,5.4 -0.1,2 -0.5,3.9 -1.1,5.6 z" />
          <path
             inkscape:connector-curvature="0"
             id="path4656"
             d="m 294.6,326.5 -19.4,41 h 8.7 l 3.8,-8.2 h 19.9 l 3.8,8.2 h 8.7 l -19.4,-41 z m -3.8,26.2 6.9,-14.8 6.8,14.8 z" />
          <polygon
             id="polygon4658"
             points="311,326.5 326.9,350.6 326.9,367.6 334.9,367.6 334.9,350.7 351.6,326.5 342,326.5 330.9,343.8 320.3,326.5 " />
        </g>
      </g>
      <g
         style="fill:#000000;stroke:none"
         transform="matrix(0.47505581,0,0,0.53745337,-251.3831,418.37998)"
         id="g4670">
        <title
           id="title4664">Layer 1</title>
        <g
           style="fill:#000000;stroke:none"
           id="g4668">
          <path
             style="fill:#000000;stroke:none"
             inkscape:connector-curvature="0"
             d="M 145.46001,0 V 2.13498 L 152.756,11.206 v 3.487 L 141.03999,9.06998 H 138.83 V 23.842 h 2.20999 L 152.756,18.885 v 8.424 c -8.084,0.871 -14.299,5.995 -14.299,12.185 0,6.801 7.479,12.323 16.722,12.323 9.243,0 16.748,-5.522 16.748,-12.323 0,-5.991 -5.82001,-10.966 -13.526,-12.067 v -7.954 l 11.662,4.937 h 2.077 V 10.422 h -2.077 l -11.662,5.583 v -4.799 l 7.295,-9.07102 V 0 Z m 7.29599,30.385 v 7.346 c -3.189,-0.409 -6.099,-1.41 -8.547,-2.821 1.78999,-2.314 4.88,-4.001 8.547,-4.525 z m 5.645,0.137 c 3.675,0.715 6.69499,2.614 8.254,5.113 -2.42,1.163 -5.24001,1.913 -8.254,2.175 z M 123.84,41.983 c -4.202,0 -7.616,2.511 -7.616,5.602 0,3.092 3.414,5.584 7.616,5.584 4.201,0 7.615,-2.492 7.615,-5.584 0,-3.091 -3.414,-5.602 -7.615,-5.602 z m 62.705,0 c -4.202,0 -7.61501,2.511 -7.61501,5.602 0,3.092 3.41301,5.584 7.61501,5.584 4.20199,0 7.615,-2.492 7.615,-5.584 0,-3.091 -3.41301,-5.602 -7.615,-5.602 z m -34.401,1.312 c 4.421,0 8.48401,1.099 11.742,2.939 -2.265,1.584 -5.336,2.546 -8.707,2.546 -4.496,0 -8.44,-1.726 -10.677,-4.329 2.341,-0.742 4.931,-1.156 7.642,-1.156 z m -48.381,2.488 c -3.865,0 -7.003,2.308 -7.003,5.152 0,2.844 3.138,5.153 7.003,5.153 3.866,0 7.003,-2.309 7.003,-5.153 0,-2.844 -3.137,-5.152 -7.003,-5.152 z m 102.858,0 c -3.865,0 -7.002,2.308 -7.002,5.152 0,2.844 3.137,5.153 7.002,5.153 3.866,0 7.00299,-2.309 7.00299,-5.153 0,-2.844 -3.13699,-5.152 -7.00299,-5.152 z M 85.497,52.17 c -3.445,0 -6.23,2.049 -6.23,4.584 0,2.535 2.785,4.604 6.23,4.604 3.446,0 6.231,-2.069 6.231,-4.604 0,-2.535 -2.785,-4.584 -6.231,-4.584 z m 139.38999,0 c -3.44499,0 -6.22999,2.049 -6.22999,4.584 0,2.535 2.785,4.604 6.22999,4.604 3.446,0 6.23101,-2.069 6.23101,-4.604 0,-2.535 -2.78501,-4.584 -6.23101,-4.584 z m -91.16899,1.802 -2.822,0.313 c -23.89,2.647 -46.302,9.563 -64.117,16.848 -17.815,7.286 -30.882,14.81 -36.638,19.375 l 5.432,3.703 C 40.205,90.536 53.157,82.946 70.4,75.894 c 16.517,-6.755 37.126,-13.095 58.76499,-15.829 3.168,5.221 6.17201,10.04 9.29201,21.843 h 7.27 C 142.121,68.27 138.32899,61.751 134.836,55.892 Z m 42.94901,0 -1.11901,1.92 c -3.49301,5.859 -7.28399,12.378 -10.89,26.016 h 7.269 c 3.12,-11.803 6.125,-16.622 9.293,-21.843 21.63899,2.734 42.24699,9.074 58.76399,15.829 17.243,7.052 30.195,14.642 34.82802,18.317 l 5.43198,-3.703 C 274.487,85.943 261.42001,78.419 243.606,71.133 225.791,63.848 203.379,56.932 179.489,54.285 Z M 155.179,54.344 c -3.52901,0 -6.39,2.105 -6.39,4.702 0,2.597 2.86099,4.702 6.39,4.702 3.52899,0 6.39,-2.105 6.39,-4.702 0,-2.597 -2.86101,-4.702 -6.39,-4.702 z m -85.817,3.762 c -3.194,0 -5.778,1.901 -5.778,4.251 0,2.349 2.584,4.251 5.778,4.251 3.193,0 5.804,-1.902 5.804,-4.251 0,-2.35 -2.611,-4.251 -5.804,-4.251 z m 171.66099,0 c -3.19299,0 -5.80499,1.901 -5.80499,4.251 0,2.349 2.612,4.251 5.80499,4.251 3.19301,0 5.778,-1.902 5.778,-4.251 0,-2.35 -2.58499,-4.251 -5.778,-4.251 z M 52.933,65.707 c -3.025,0 -5.458,1.81 -5.458,4.035 0,2.226 2.433,4.036 5.458,4.036 3.025,0 5.485,-1.81 5.485,-4.036 0,-2.225 -2.46,-4.035 -5.485,-4.035 z m 204.51799,0 c -3.025,0 -5.48499,1.81 -5.48499,4.035 0,2.226 2.45999,4.036 5.48499,4.036 3.026,0 5.45901,-1.81 5.45901,-4.036 0,-2.225 -2.43301,-4.035 -5.45901,-4.035 z M 155.179,66.334 c -3.02499,0 -5.45801,1.81 -5.45801,4.035 0,2.226 2.43302,4.016 5.45801,4.016 3.02499,0 5.485,-1.79 5.485,-4.016 0,-2.225 -2.46001,-4.035 -5.485,-4.035 z M 38.342,73.778 c -2.689,0 -4.873,1.607 -4.873,3.585 0,1.979 2.184,3.585 4.873,3.585 2.689,0 4.872,-1.606 4.872,-3.585 0,-1.978 -2.183,-3.585 -4.872,-3.585 z m 233.701,0 c -2.689,0 -4.87299,1.607 -4.87299,3.585 0,1.979 2.18399,3.585 4.87299,3.585 2.68899,0 4.87201,-1.606 4.87201,-3.585 0,-1.978 -2.18302,-3.585 -4.87201,-3.585 z M 76.072,74.679 c -7.04,8.037 -6.748,18.382 -2.45,29.993 C 40.927,94.435 29.672,125.287 54.451,134.66499 52.557,127.177 54.372,119.189 65.421,118.327 c 5.91,-0.461 12.851,0.769 13.686,8.737 0.587,5.606 -5.87,18.99 -26.174,18.807 -12.687,-0.115 -26.235,-3.612 -32.245,-18.572 -2.24,-5.576 -2.201,-5.304 5.246,-3.036 2.914,0.887 6.607,2.729 12.701,6.602 -0.432,-6.264 -4.549,-22.161 -8.814,-26.85901 C 24.127,106.968 23.519,110.459 12.78,112.724 16.596,107.29 20.136,101.745 25.561,95.719 14.258,96.33999 7.45798,98.334 -2e-5,99.51999 c 1.74901,5.33701 3.52501,10.60601 6.07,14.77101 -5.596,7.983 -0.913,11.571 4.87302,15.457 2.356,1.58299 12.995,24.61099 7.615,32.46201 -2.836,4.13899 -1.178,8.56498 2.743,10.51999 4.386,2.18701 8.326,4.997 11.902,7.895 4.579,3.711 3.514,4.09399 9.133,1.822 19.779,-7.999 62.905,-13.498 112.86999,-13.498 49.96501,0 93.09001,5.499 112.86902,13.498 5.61899,2.27199 4.55399,1.889 9.133,-1.822 3.57599,-2.898 7.51699,-5.70799 11.90197,-7.895 3.92103,-1.95501 5.57901,-6.381 2.74302,-10.51999 -5.379,-7.85102 5.259,-30.87902 7.61499,-32.46201 5.78601,-3.886 10.46902,-7.474 4.87301,-15.457 2.54498,-4.165 4.32199,-9.434 6.07099,-14.77101 C 302.953,98.334 296.15301,96.33999 284.85,95.719 c 5.426,6.026 8.965,11.571 12.78101,17.005 -10.73901,-2.265 -11.34701,-5.756 -17.04102,-8.71801 -4.264,4.69801 -8.38198,20.59501 -8.81298,26.85901 6.09298,-3.873 9.78598,-5.715 12.69998,-6.602 7.448,-2.268 7.48602,-2.54 5.246,3.036 -6.009,14.96 -19.55701,18.456 -32.24499,18.572 -20.30401,0.183 -26.76101,-13.201 -26.174,-18.807 0.83501,-7.968 7.77699,-9.198 13.686,-8.737 11.05001,0.862 12.864,8.85 10.97001,16.33799 24.779,-9.37799 13.524,-40.22999 -19.17101,-29.99299 4.299,-11.611 4.59,-21.956 -2.449,-29.993 -8.51101,6.293 -18.484,11.622 -15.204,28.642 -6.15601,-3.249 -11.515,-6.52 -17.041,-5.584 -7.451,1.262 -14.231,3.488 -15.52299,12.08799 -0.90201,6.00401 3.791,11.73001 10.03799,15.43701 0.83299,-5.892 2.31399,-11.029 11.263,-11.18601 10.276,-0.181 12.18401,6.06301 11.875,10.97 -0.427,6.796 -12.92101,14.76901 -28.916,13.89001 -16.03301,-0.88101 -29.92799,-10.935 -29.689,-23.117 5.07599,0.89599 11.46199,4.778 14.405,6.642 0.567,0.358 2.547,0.332 3.116,0.352 V 97.345 c -0.74499,0.013 -2.27299,-0.14401 -3.16901,0.255 -4.59899,2.048 -10.06399,8.548 -13.25999,7.973 2.483,-7.466 9.265,-16.444 9.42599,-19.492 H 138.75 c 0.16,3.048 6.94299,12.026 9.42599,19.492 C 144.98,106.148 139.515,99.648 134.916,97.6 c -0.896,-0.39901 -2.424,-0.242 -3.168,-0.255 v 25.468 c 0.56799,-0.02 2.548,0.005 3.11501,-0.352 2.944,-1.864 9.32998,-5.74601 14.40499,-6.642 0.239,12.182 -13.656,22.23599 -29.689,23.117 -15.994,0.879 -28.489,-7.09401 -28.916,-13.89001 -0.309,-4.90699 1.599,-11.151 11.875,-10.97 8.949,0.15701 10.431,5.29401 11.263,11.18601 6.247,-3.707 10.941,-9.433 10.039,-15.43701 C 122.548,101.225 115.767,98.999 108.316,97.737 102.79,96.801 97.431,100.072 91.275,103.321 94.555,86.301 84.582,80.972 76.072,74.679 Z m 79.107,2.292 c -2.185,0 -3.941,1.292 -3.941,2.9 0,1.607 1.756,2.919 3.941,2.919 2.185,0 3.96699,-1.312 3.96699,-2.919 0,-1.608 -1.78199,-2.9 -3.96699,-2.9 z M 26.466,82.28 c -2.185,0 -3.967,1.312 -3.967,2.919 0,1.608 1.782,2.9 3.967,2.9 2.185,0 3.968,-1.292 3.968,-2.9 0,-1.607 -1.783,-2.919 -3.968,-2.919 z m 257.452,0 c -2.185,0 -3.96701,1.312 -3.96701,2.919 0,1.608 1.78201,2.9 3.96701,2.9 2.185,0 3.96798,-1.292 3.96798,-2.9 0,-1.607 -1.78299,-2.919 -3.96798,-2.919 z m -128.739,25.35 c 1.849,0 3.355,1.109 3.355,2.469 0,1.36 -1.506,2.468 -3.355,2.468 -1.849,0 -3.328,-1.108 -3.328,-2.468 0,-1.36 1.479,-2.469 3.328,-2.469 z M 9.23898,117.269 c 1.34902,-0.02 2.97802,1.599 3.75402,3.781 0.829,2.328 0.356,4.423 -1.038,4.682 -1.394,0.259 -3.19301,-1.414 -4.02102,-3.742 -0.82799,-2.327 -0.35499,-4.423 1.039,-4.682 0.087,-0.016 0.17601,-0.037 0.266,-0.039 z m 291.93302,0 c 0.09,9.9e-4 0.17901,0.023 0.26599,0.039 1.39401,0.259 1.867,2.355 1.039,4.682 -0.82801,2.328 -2.62699,4.00099 -4.021,3.742 -1.39398,-0.259 -1.866,-2.354 -1.03799,-4.682 0.776,-2.18201 2.405,-3.801 3.754,-3.78101 v 0 z m -145.993,24.292 7.855,9.22699 -7.855,9.24701 -7.855,-9.24701 z m -32.564,3.194 c 2.185,0 3.967,1.29199 3.967,2.899 0,1.607 -1.782,2.919 -3.967,2.919 -2.185,0 -3.941,-1.312 -3.941,-2.919 0,-1.60701 1.756,-2.899 3.941,-2.899 z m 65.181,0 c 2.185,0 3.941,1.29199 3.941,2.899 0,1.607 -1.756,2.919 -3.941,2.919 -2.184,0 -3.96701,-1.312 -3.96701,-2.919 0,-1.60701 1.78301,-2.899 3.96701,-2.899 z m -95.243,0.607 c 8.093,0.117 14.701,3.26401 15.47,7.71899 0.879,5.09001 -6.214,9.95301 -15.842,10.85301 -9.629,0.9 -18.13301,-2.511 -19.012,-7.60101 -0.879,-5.09099 6.215,-9.93399 15.843,-10.834 1.204,-0.112 2.385,-0.15399 3.541,-0.13699 z m 125.305,0 c 1.15601,-0.017 2.338,0.025 3.541,0.13699 9.62799,0.90001 16.722,5.74301 15.843,10.834 -0.879,5.09001 -9.38301,8.50101 -19.011,7.60101 -9.629,-0.90001 -16.722,-5.763 -15.843,-10.85301 0.76899,-4.45499 7.377,-7.60199 15.47,-7.71899 z m -164.765,8.22799 c 2.185,0 3.967,1.31101 3.967,2.91901 0,1.607 -1.782,2.899 -3.967,2.899 -2.185,0 -3.968,-1.292 -3.968,-2.899 0,-1.608 1.783,-2.91901 3.968,-2.91901 z m 204.22499,0 c 2.185,0 3.96802,1.31101 3.96802,2.91901 0,1.607 -1.78302,2.899 -3.96802,2.899 -2.18399,0 -3.96699,-1.292 -3.96699,-2.899 0,-1.608 1.783,-2.91901 3.96699,-2.91901 z m -132.57299,3.252 c 2.185,0 3.967,1.29201 3.967,2.89901 0,1.608 -1.782,2.919 -3.967,2.919 -2.185,0 -3.941,-1.311 -3.941,-2.919 0,-1.607 1.756,-2.89901 3.941,-2.89901 z m 60.921,0 c 2.185,0 3.94099,1.29201 3.94099,2.89901 0,1.608 -1.75599,2.919 -3.94099,2.919 -2.185,0 -3.967,-1.311 -3.967,-2.919 0,-1.607 1.782,-2.89901 3.967,-2.89901 z m -159.439,2.97802 8.44,5.05398 -2.449,7.817 -8.468,-5.07399 z m 257.95699,0 2.47702,7.79699 -8.46701,5.07399 -2.45001,-7.817 z M 55.995,165.34399 c 2.185,0 3.941,1.31202 3.941,2.91901 0,1.608 -1.756,2.89999 -3.941,2.89999 -2.185,0 -3.967,-1.29199 -3.967,-2.89999 0,-1.607 1.782,-2.91901 3.967,-2.91901 z m 198.421,0 c 2.18501,0 3.96699,1.31202 3.96699,2.91901 0,1.608 -1.78198,2.89999 -3.96699,2.89999 -2.185,0 -3.94099,-1.29199 -3.94099,-2.89999 0,-1.607 1.75599,-2.91901 3.94099,-2.91901 z M 155.20599,172.358 C 93.527,172.358 43.534,181.642 43.534,186.91299 43.534,191.73801 93.527,200 155.20599,200 c 61.67801,0 111.67102,-8.26199 111.67102,-13.08701 0,-5.27099 -49.99301,-14.55499 -111.67102,-14.55499 z"
             id="path4666" />
        </g>
      </g>
    </g>
  </g>
</svg>
