<?xml version="1.0" encoding="UTF-8" standalone="no"?>
<!-- Created with Inkscape (http://www.inkscape.org/) -->

<svg
   xmlns:dc="http://purl.org/dc/elements/1.1/"
   xmlns:cc="http://creativecommons.org/ns#"
   xmlns:rdf="http://www.w3.org/1999/02/22-rdf-syntax-ns#"
   xmlns:svg="http://www.w3.org/2000/svg"
   xmlns="http://www.w3.org/2000/svg"
   xmlns:sodipodi="http://sodipodi.sourceforge.net/DTD/sodipodi-0.dtd"
   xmlns:inkscape="http://www.inkscape.org/namespaces/inkscape"
   width="210mm"
   height="297mm"
   viewBox="0 0 210 297"
   version="1.1"
   id="svg8"
   inkscape:version="0.92.1 r15371"
   sodipodi:docname="home-sweet-home.svg">
  <defs
     id="defs2" />
  <sodipodi:namedview
     id="base"
     pagecolor="#ffffff"
     bordercolor="#666666"
     borderopacity="1.0"
     inkscape:pageopacity="0.0"
     inkscape:pageshadow="2"
     inkscape:zoom="0.7"
     inkscape:cx="1001.3332"
     inkscape:cy="753.50207"
     inkscape:document-units="mm"
     inkscape:current-layer="layer1"
     showgrid="false"
     inkscape:window-width="1920"
     inkscape:window-height="1001"
     inkscape:window-x="-9"
     inkscape:window-y="-9"
     inkscape:window-maximized="1"
     showborder="false" />
  <metadata
     id="metadata5">
    <rdf:RDF>
      <cc:Work
         rdf:about="">
        <dc:format>image/svg+xml</dc:format>
        <dc:type
           rdf:resource="http://purl.org/dc/dcmitype/StillImage" />
        <dc:title></dc:title>
      </cc:Work>
    </rdf:RDF>
  </metadata>
  <g
     inkscape:label="Layer 1"
     inkscape:groupmode="layer"
     id="layer1">
    <g
       id="g4619"
       transform="rotate(90,131.75379,111.30353)">
      <path
         inkscape:connector-curvature="0"
         id="rect4586"
         d="M 35.787819,43.208204 V 170.62574 h 13.965555 v 8.77311 H 213.7537 v -8.77311 h 13.96607 V 43.208204 Z"
         style="opacity:0.43000004;fill:#d35f5f;fill-opacity:1;stroke:none;stroke-width:2.55569983;stroke-linecap:round;stroke-linejoin:round;stroke-miterlimit:4;stroke-dasharray:none;stroke-opacity:0;paint-order:stroke fill markers" />
      <g
         transform="matrix(1.0687254,0,0,1.087478,-111.77274,348.68823)"
         id="g4580">
        <path
           style="fill:#000000;stroke-width:0.25279868"
           d="m 309.14463,-267.6995 c -0.0488,-0.0447 -0.53233,0.75556 -1.07482,1.78201 -0.61762,1.16856 -1.85749,2.81984 -3.30819,4.40349 -3.56425,3.89102 -4.66512,6.47809 -4.67049,10.97676 l -0.003,2.49965 -0.50309,-0.64036 c -0.64695,-0.82244 -1.34966,-3.83819 -1.14634,-4.92204 0.0863,-0.45997 0.50773,-1.23692 0.93647,-1.72524 0.88847,-1.01198 0.79405,-1.4005 -0.18506,-0.75895 -1.04029,0.68158 -1.46258,1.99999 -1.29295,4.03335 l 0.14519,1.74177 -0.68349,-0.65402 c -1.30904,-1.25387 -3.26132,-1.74492 -4.7262,-1.18801 -0.98432,0.37427 -0.54521,0.76204 0.49986,0.44128 1.2941,-0.39715 2.63332,0.102 4.25688,1.58583 2.24533,2.05211 2.01317,2.36198 -0.73595,0.98317 -3.97013,-1.99113 -7.09554,-2.20631 -11.98581,-0.82723 -1.74103,0.49102 -2.98043,0.67572 -4.50374,0.67272 -1.15572,-0.002 -2.00779,0.0828 -1.89486,0.18973 0.11289,0.10684 1.04826,0.44312 2.07992,0.74711 2.21885,0.65373 3.30675,1.56545 3.30675,2.77239 0,0.51228 0.23078,1.01922 0.65582,1.44424 0.60781,0.6079 0.77064,0.64365 2.26175,0.50451 1.46038,-0.13635 1.62084,-0.10364 1.76837,0.36115 0.30273,0.95377 1.66042,2.23626 2.65094,2.5029 1.0287,0.27699 2.57071,0.0496 4.15949,-0.61414 l 0.83334,-0.34893 -0.60012,1.04931 c -0.33747,0.59014 -0.60159,1.46732 -0.60335,2.00445 -0.003,1.21439 1.23061,3.69093 2.279,4.57311 1.11834,0.94101 2.55906,0.92055 3.53027,-0.0507 1.39202,-1.39202 1.88067,-4.66812 1.15568,-7.75049 -0.19594,-0.83307 -0.33192,-1.53966 -0.30078,-1.57072 0.0312,-0.0311 0.55164,0.62231 1.15567,1.45178 0.60405,0.82947 1.19079,1.50748 1.30373,1.50748 0.22921,0 -0.27386,-1.55113 -0.88867,-2.74006 -0.22031,-0.426 -0.4014,-0.84323 -0.4014,-0.92892 0,-0.0856 0.65411,0.35137 1.45358,0.97205 2.75593,2.13968 5.68095,3.17302 7.53272,2.66171 1.03002,-0.2844 1.50891,-1.32406 1.27749,-2.77131 -0.40622,-2.54036 -2.05638,-4.29226 -4.55333,-4.83112 l -1.53803,-0.3317 0.91168,-0.56452 c 1.74897,-1.0818 2.84554,-3.45586 2.40549,-5.20916 -0.0867,-0.34529 -0.46328,-0.99144 -0.83765,-1.43634 -0.65332,-0.77645 -0.66166,-0.8224 -0.20986,-1.15279 0.65848,-0.48148 1.39119,-1.65098 1.39321,-2.22188 6.9e-4,-0.26366 -0.50987,-1.02689 -1.13556,-1.69578 -1.34237,-1.4351 -1.41283,-2.00026 -0.61126,-4.92203 0.2897,-1.05592 0.48877,-1.95806 0.44129,-2.00554 z"
           id="path4563"
           inkscape:connector-curvature="0" />
        <path
           style="fill:#000000;stroke-width:0.25279868"
           d="m 193.07466,-256.36235 c -5.39566,0.0451 -8.80828,1.41897 -12.40086,4.99463 -4.15743,4.13787 -5.37167,8.01483 -4.28635,13.68734 1.00057,5.22946 4.19827,9.19196 12.26215,15.19661 6.28569,4.68056 8.16605,7.2317 8.85334,12.00917 0.83284,5.78925 -3.42214,11.87721 -9.86419,14.11316 -2.19631,0.76231 -6.19619,0.95779 -8.12063,0.39673 -2.98285,-0.86966 -5.04543,-2.90611 -6.05902,-5.97889 -0.29811,-0.90378 -0.69007,-1.80058 -0.87034,-1.99224 -0.45112,-0.47999 -1.40167,-0.19802 -2.36382,0.70071 -0.684,0.63898 -0.78697,0.90755 -0.78697,2.03359 0,3.65538 3.13585,6.30241 8.84758,7.46947 3.45933,0.70689 7.67685,0.31022 10.98106,-1.03241 5.09513,-2.07032 9.44696,-6.97587 10.76689,-12.13673 0.93232,-3.64536 0.60432,-7.31511 -0.9336,-10.46288 -1.35755,-2.7786 -5.14717,-6.48136 -9.69135,-9.46927 -5.55951,-3.6556 -8.45455,-6.98484 -9.47214,-10.89158 -1.49385,-5.73523 1.65417,-12.18944 7.25818,-14.88038 2.26994,-1.09 3.58629,-1.39971 5.962,-1.40866 3.75905,-0.0125 7.8181,1.98423 9.64643,4.74451 2.06211,3.1132 2.7635,8.20259 1.5506,11.25597 -0.7861,1.97893 -3.11147,4.46409 -4.8958,5.23216 -1.92633,0.82922 -4.30013,0.77689 -6.16575,-0.13584 -1.24829,-0.61074 -1.44535,-0.64499 -1.78346,-0.30688 -0.56106,0.56107 -0.0185,1.39508 1.27138,1.95487 4.54564,1.97279 11.32946,-0.83866 13.75238,-5.69968 3.34471,-6.71032 0.89665,-14.51105 -5.54228,-17.65925 -2.74104,-1.34017 -4.66644,-1.7611 -7.91543,-1.73423 z"
           id="path4561"
           inkscape:connector-curvature="0" />
        <path
           style="fill:#000000;stroke-width:0.25279868"
           d="m 149.68189,-241.12585 v 0 c -0.0896,-0.002 -0.14649,1.20155 -0.12649,2.67213 0.04,2.92751 0.11751,2.75754 -1.88551,4.1692 -0.73829,0.5203 -0.7299,1.57144 0.0233,3.07965 l 0.58467,1.17256 -0.78376,0.89369 c -1.51811,1.72903 -1.31637,3.54236 0.63426,5.71191 l 1.15568,1.28539 -1.26528,-0.16674 c -1.69196,-0.22444 -2.81421,0.32633 -4.24645,2.0846 -1.34663,1.65311 -1.64513,2.84091 -1.01051,4.01934 0.60235,1.11862 1.54762,1.46065 3.61508,1.31164 1.72517,-0.12433 3.59304,-0.86383 5.23827,-2.07526 1.36513,-1.0052 1.5657,-1.07701 1.08344,-0.38593 -0.94637,1.35612 -1.75378,2.81667 -1.62642,2.94415 0.074,0.0738 0.78663,-0.47545 1.58294,-1.2207 0.7963,-0.7453 1.37302,-1.1511 1.28217,-0.9027 -1.37109,3.74966 -1.42823,7.5015 -0.14015,9.13903 1.0867,1.38151 3.63577,0.44954 5.18723,-1.89486 0.73014,-1.1033 0.9264,-2.84171 0.50633,-4.49298 l -0.21453,-0.84232 1.0662,0.70504 c 1.35601,0.89736 3.77502,1.13265 5.02229,0.48764 0.68735,-0.35542 1.60059,-1.45874 1.87151,-2.26067 0.0415,-0.12265 0.43294,-0.0368 0.87178,0.1901 0.43885,0.22689 1.20862,0.41182 1.70979,0.41182 0.85891,0 0.94556,-0.0773 1.51179,-1.35763 0.78271,-1.76988 1.56355,-2.36162 3.36677,-2.55392 3.26588,-0.34816 3.38047,-0.43311 1.06152,-0.7823 -1.18184,-0.17795 -2.94581,-0.62661 -3.91909,-0.99828 -3.54771,-1.35478 -5.69209,-1.88995 -7.5496,-1.88697 -2.15856,0.005 -4.46515,0.51234 -6.26279,1.37956 -0.72445,0.34944 -1.37574,0.57618 -1.44746,0.50454 -0.21402,-0.21402 2.19468,-2.36044 3.25715,-2.90249 1.18917,-0.60673 2.70773,-0.64848 3.49506,-0.097 0.66122,0.46321 1.021,0.29475 0.55987,-0.26088 -0.8831,-1.06403 -2.94184,-1.01226 -4.78297,0.11895 -1.00359,0.61662 -1.15072,0.54797 -0.80099,-0.37193 0.62257,-1.63748 -0.13717,-4.94828 -1.13555,-4.94828 -0.5125,0 -0.46967,0.24544 0.16063,0.91635 0.79101,0.84197 0.88414,2.45256 0.24688,4.26335 -0.2928,0.83194 -0.83038,1.798 -1.19592,2.14783 -0.36554,0.34931 -0.60217,0.51928 -0.52466,0.37624 0.0775,-0.14295 0.2667,-1.17366 0.41972,-2.29121 0.56875,-4.15376 -0.54063,-7.63508 -3.83427,-12.03504 -1.08884,-1.45457 -1.80652,-2.71548 -2.12162,-3.7261 -0.26197,-0.84028 -0.55074,-1.52961 -0.64036,-1.53086 z"
           id="path4559"
           inkscape:connector-curvature="0" />
        <path
           style="fill:#000000;stroke-width:0.25279868"
           d="m 287.84873,-228.9466 c -0.0428,0 -0.0891,0.002 -0.13954,0.008 -0.11526,0.0119 -0.24995,0.0348 -0.4041,0.063 -2.09746,0.38416 -2.28457,0.6455 -3.49954,4.89428 -0.60926,2.13067 -1.17155,3.9801 -1.25108,4.10879 -0.0795,0.12868 -0.86649,0.23306 -1.74718,0.23306 -1.14048,0 -1.64047,0.10246 -1.73736,0.35502 -0.2119,0.5522 0.0535,0.65732 1.66812,0.65732 h 1.50276 l -0.17159,0.69453 c -0.75684,3.071 -6.86281,10.59886 -10.5828,13.0483 -4.64643,3.05947 -9.15162,2.37775 -9.46764,-1.43299 l -0.1111,-1.3441 1.10173,-0.32246 c 2.94137,-0.86081 7.25246,-3.55812 9.65263,-6.03943 2.13347,-2.20555 1.61396,-5.43007 -1.09863,-6.81611 -3.70207,-1.89169 -8.78792,1.32079 -12.03182,7.6016 -2.23364,4.32472 -7.86222,9.27283 -11.69437,10.28102 -2.75357,0.72442 -5.59556,-1.30494 -5.59295,-3.99458 5.3e-4,-0.61916 0.17446,-0.74158 1.98593,-1.38131 4.39537,-1.55232 9.53363,-5.48365 10.14821,-7.76594 0.54501,-2.02399 -0.16918,-3.84457 -1.85518,-4.72891 -0.95864,-0.50282 -3.60802,-0.56339 -5.14078,-0.11886 -1.34508,0.39008 -3.46448,1.97948 -4.69531,3.52124 -0.52682,0.65993 -1.65738,2.39256 -2.51199,3.85247 -2.36593,4.04168 -4.24345,6.25289 -6.19342,7.29052 -0.94859,0.50478 -2.31157,0.36059 -2.98845,-0.31627 -0.95729,-0.95731 -1.04436,-1.77621 -0.30747,-2.88974 2.06577,-3.12155 3.06645,-6.31727 2.91816,-9.3214 -0.12294,-2.49126 -0.42698,-2.72102 -1.72702,-1.31309 -2.35042,2.54559 -3.57422,6.457 -3.05821,9.77149 l 0.26406,1.70532 -1.06608,1.0971 c -1.30243,1.34026 -4.62435,4.05071 -5.39606,4.40231 -0.83602,0.38095 -1.80553,0.0303 -2.24017,-0.81029 -0.78383,-1.51573 -0.41839,-3.76613 2.06447,-12.7124 0.64638,-2.32891 1.11396,-4.2955 1.03818,-4.37131 -0.24158,-0.2416 -2.4289,0.42695 -2.81223,0.85938 -0.20295,0.22897 -0.96019,1.55362 -1.68258,2.94401 -1.87155,3.60214 -4.5674,8.05124 -6.12366,10.10481 -2.39581,3.1615 -4.93178,4.55243 -5.51284,3.0241 -0.61879,-1.62756 -0.0472,-4.83182 2.03192,-11.39 0.83213,-2.62483 1.51193,-4.91614 1.51205,-5.09168 1.8e-4,-0.23171 -0.29292,-0.27563 -1.07384,-0.15916 -2.10472,0.31345 -2.25242,0.47405 -3.25716,3.51193 -0.97279,2.94132 -2.67998,9.95303 -2.9099,11.95482 -0.11208,0.97536 -0.0284,1.35018 0.46095,2.07533 0.8109,1.20122 2.08775,1.83308 3.32848,1.64796 2.57201,-0.38361 5.07795,-2.681 8.34419,-7.65121 1.21067,-1.84228 2.24883,-3.35018 2.30684,-3.35018 0.058,0 -0.0992,0.59709 -0.34882,1.32705 -1.60914,4.70482 -1.18989,8.30707 1.09244,9.39012 2.13661,1.01385 4.60039,-0.0169 8.07289,-3.37602 l 2.36214,-2.28617 0.76843,1.23559 c 0.56332,0.90618 1.015,1.31602 1.69395,1.53995 0.8337,0.27515 1.06045,0.23979 2.28254,-0.35811 0.82352,-0.4029 1.95671,-1.30614 2.8851,-2.29857 0.84123,-0.89929 1.57551,-1.63401 1.63091,-1.63401 0.0554,0 0.17041,0.48296 0.2558,1.07384 0.25091,1.73645 0.61897,2.78704 1.41231,4.03799 0.80326,1.2666 1.50418,1.82524 2.99,2.38074 3.17044,1.18539 9.35045,-1.47843 13.28189,-5.72472 0.90069,-0.97287 1.69254,-1.76785 1.75906,-1.76785 0.0665,0 0.17682,0.77832 0.24495,1.73064 0.22664,3.16766 1.87436,5.2386 4.68601,5.88698 4.23844,0.97738 10.74856,-2.70804 15.28021,-8.65012 0.72499,-0.95069 1.35837,-1.68758 1.4087,-1.6371 0.0503,0.0503 -0.15447,0.87017 -0.4563,1.82211 -0.68162,2.14962 -0.92922,5.99537 -0.44495,6.9143 0.54737,1.03867 1.86661,1.5674 3.56621,1.42886 1.77996,-0.145 2.88906,-0.8168 5.24875,-3.17707 2.98133,-2.982 8.06979,-10.35971 8.06979,-11.70058 0,-0.38992 -0.0489,-0.70797 -0.108,-0.70797 -0.0591,0 -0.86918,1.16162 -1.79935,2.58124 -3.87538,5.91472 -8.33692,10.88217 -10.06608,11.20655 -1.21454,0.22784 -1.93164,-0.357 -1.93164,-1.57509 0,-0.84096 3.1169,-12.4263 3.57497,-13.28808 0.18368,-0.34562 0.56557,-0.44132 1.74355,-0.44132 1.33935,0 1.50741,-0.0567 1.50741,-0.50591 0,-0.44436 -0.16822,-0.50643 -1.39009,-0.50643 -0.80111,0 -1.39062,-0.1125 -1.39062,-0.2651 0,-0.14578 0.51173,-2.04797 1.13739,-4.22765 1.1667,-4.06449 1.37673,-4.80385 0.73382,-4.81366 z m -18.73375,8.80205 c 1.28704,0 1.82367,0.7381 1.81126,2.49184 -0.019,2.71492 -2.62641,6.17703 -5.73505,7.61607 -1.86087,0.86214 -2.86933,1.13875 -3.05356,0.84077 -0.37724,-0.61041 0.67323,-3.95677 2.00867,-6.39651 1.75307,-3.20265 3.22707,-4.55218 4.96868,-4.55217 z m -19.7223,0.009 c 0.58512,0.003 1.11972,0.16943 1.44589,0.49558 0.75491,0.7549 0.68104,2.69278 -0.17155,4.5036 -0.88421,1.87794 -3.31237,4.30319 -5.19658,5.19038 -0.79732,0.37539 -1.79142,0.75119 -2.21073,0.83509 -0.72794,0.14559 -0.76292,0.11385 -0.75964,-0.70073 0.009,-2.40961 3.3119,-8.73018 5.14594,-9.84849 0.52541,-0.32078 1.16152,-0.47932 1.74667,-0.47543 z"
           id="path4557"
           inkscape:connector-curvature="0" />
        <g
           aria-label="HOME"
           style="font-style:normal;font-variant:normal;font-weight:normal;font-stretch:normal;font-size:28.33172989px;line-height:1.25;font-family:'Reliant Beveled';-inkscape-font-specification:'Reliant Beveled';letter-spacing:0px;word-spacing:0px;fill:#000000;fill-opacity:1;stroke:none;stroke-width:0.70829326"
           id="text4771"
           transform="matrix(0.69538744,0,0,0.69538744,117.55117,23.023919)">
          <path
             d="m 141.07396,-368.77556 v -14.42871 h -2.18575 v -2.40709 h 7.35961 v 2.40709 h -2.26875 v 5.50588 h 8.36948 v -5.50588 h -2.25492 v -2.40709 h 7.35961 v 2.40709 h -2.19958 v 14.42871 h 2.19958 v 2.40709 h -7.35961 v -2.40709 h 2.25492 v -6.51574 h -8.36948 v 6.51574 h 2.26875 v 2.40709 h -7.35961 v -2.40709 z"
             style="font-style:normal;font-variant:normal;font-weight:normal;font-stretch:normal;font-family:Rockwell;-inkscape-font-specification:Rockwell;stroke-width:0.70829326"
             id="path4779"
             inkscape:connector-curvature="0" />
          <path
             d="m 159.62516,-376.07983 q 0,-4.19166 2.7391,-7.01377 2.7391,-2.8221 7.13827,-2.8221 4.44066,0 7.2351,2.8221 2.79444,2.82211 2.79444,7.0691 0,4.33 -2.84977,7.1521 -2.83594,2.80828 -7.22127,2.80828 -2.79444,0 -5.1462,-1.32805 -2.33792,-1.34189 -3.5138,-3.72131 -1.17587,-2.39326 -1.17587,-4.96635 z m 3.16795,0.0138 q 0,3.16795 1.85374,5.3122 1.85373,2.14425 4.86951,2.14425 2.98811,0 4.91102,-2.18575 1.9229,-2.19958 1.9229,-5.24303 0,-3.07112 -1.9644,-5.1877 -1.95058,-2.13041 -4.91102,-2.13041 -2.94661,0 -4.81418,2.08891 -1.86757,2.08891 -1.86757,5.20153 z"
             style="font-style:normal;font-variant:normal;font-weight:normal;font-stretch:normal;font-family:Rockwell;-inkscape-font-specification:Rockwell;stroke-width:0.70829326"
             id="path4781"
             inkscape:connector-curvature="0" />
          <path
             d="m 183.9589,-368.77556 v -14.42871 h -2.31025 v -2.40709 h 6.58491 l 5.06319,13.18366 5.11853,-13.18366 h 6.65408 v 2.40709 h -2.32409 v 14.42871 h 2.32409 v 2.40709 h -7.24894 v -2.40709 h 2.29642 v -14.42871 l -6.64025,17.02947 h -0.56719 l -6.57108,-17.02947 v 14.42871 h 2.11658 v 2.40709 h -6.80625 v -2.40709 z"
             style="font-style:normal;font-variant:normal;font-weight:normal;font-stretch:normal;font-family:Rockwell;-inkscape-font-specification:Rockwell;stroke-width:0.70829326"
             id="path4783"
             inkscape:connector-curvature="0" />
          <path
             d="m 209.01201,-368.77556 v -14.42871 h -2.49009 v -2.40709 h 15.99193 v 5.79639 h -2.37942 v -3.3893 h -8.21731 v 5.72722 h 7.1521 v 2.40709 h -7.1521 v 6.2944 h 8.21731 v -3.49996 h 2.37942 v 5.90705 h -15.99193 v -2.40709 z"
             style="font-style:normal;font-variant:normal;font-weight:normal;font-stretch:normal;font-family:Rockwell;-inkscape-font-specification:Rockwell;stroke-width:0.70829326"
             id="path4785"
             inkscape:connector-curvature="0" />
        </g>
        <g
           aria-label="HOME"
           style="font-style:normal;font-variant:normal;font-weight:normal;font-stretch:normal;font-size:28.33172989px;line-height:1.25;font-family:'Reliant Beveled';-inkscape-font-specification:'Reliant Beveled';letter-spacing:0px;word-spacing:0px;fill:#000000;fill-opacity:1;stroke:none;stroke-width:0.70829326"
           id="text4775"
           transform="matrix(0.69538744,0,0,0.69538744,117.55117,23.023919)">
          <path
             d="m 133.15872,-296.51726 v -14.42871 h -2.18575 v -2.40709 h 7.35961 v 2.40709 h -2.26875 v 5.50588 h 8.36948 v -5.50588 h -2.25492 v -2.40709 h 7.35961 v 2.40709 h -2.19958 v 14.42871 h 2.19958 v 2.40709 h -7.35961 v -2.40709 h 2.25492 v -6.51574 h -8.36948 v 6.51574 h 2.26875 v 2.40709 h -7.35961 v -2.40709 z"
             style="font-style:normal;font-variant:normal;font-weight:normal;font-stretch:normal;font-family:Rockwell;-inkscape-font-specification:Rockwell;stroke-width:0.70829326"
             id="path4788"
             inkscape:connector-curvature="0" />
          <path
             d="m 151.70992,-303.82153 q 0,-4.19166 2.7391,-7.01377 2.7391,-2.8221 7.13827,-2.8221 4.44067,0 7.2351,2.8221 2.79444,2.82211 2.79444,7.0691 0,4.33 -2.84977,7.1521 -2.83594,2.80828 -7.22127,2.80828 -2.79444,0 -5.14619,-1.32805 -2.33793,-1.34189 -3.5138,-3.72131 -1.17588,-2.39326 -1.17588,-4.96635 z m 3.16795,0.0138 q 0,3.16795 1.85374,5.3122 1.85373,2.14425 4.86951,2.14425 2.98812,0 4.91102,-2.18575 1.92291,-2.19958 1.92291,-5.24303 0,-3.07112 -1.96441,-5.1877 -1.95057,-2.13041 -4.91102,-2.13041 -2.94661,0 -4.81418,2.08891 -1.86757,2.08891 -1.86757,5.20153 z"
             style="font-style:normal;font-variant:normal;font-weight:normal;font-stretch:normal;font-family:Rockwell;-inkscape-font-specification:Rockwell;stroke-width:0.70829326"
             id="path4790"
             inkscape:connector-curvature="0" />
          <path
             d="m 176.04366,-296.51726 v -14.42871 h -2.31025 v -2.40709 h 6.58491 l 5.06319,13.18366 5.11853,-13.18366 h 6.65408 v 2.40709 h -2.32408 v 14.42871 h 2.32408 v 2.40709 h -7.24894 v -2.40709 h 2.29642 v -14.42871 l -6.64025,17.02948 h -0.56718 l -6.57108,-17.02948 v 14.42871 h 2.11658 v 2.40709 h -6.80626 v -2.40709 z"
             style="font-style:normal;font-variant:normal;font-weight:normal;font-stretch:normal;font-family:Rockwell;-inkscape-font-specification:Rockwell;stroke-width:0.70829326"
             id="path4792"
             inkscape:connector-curvature="0" />
          <path
             d="m 201.09677,-296.51726 v -14.42871 h -2.49009 v -2.40709 h 15.99193 v 5.79639 h -2.37942 v -3.3893 h -8.21731 v 5.72722 h 7.15211 v 2.40709 h -7.15211 v 6.2944 h 8.21731 v -3.49996 h 2.37942 v 5.90705 h -15.99193 v -2.40709 z"
             style="font-style:normal;font-variant:normal;font-weight:normal;font-stretch:normal;font-family:Rockwell;-inkscape-font-specification:Rockwell;stroke-width:0.70829326"
             id="path4794"
             inkscape:connector-curvature="0" />
        </g>
      </g>
    </g>
  </g>
</svg>
