<?xml version="1.0" encoding="UTF-8" standalone="no"?>
<!-- Created with Inkscape (http://www.inkscape.org/) -->

<svg
   xmlns:dc="http://purl.org/dc/elements/1.1/"
   xmlns:cc="http://creativecommons.org/ns#"
   xmlns:rdf="http://www.w3.org/1999/02/22-rdf-syntax-ns#"
   xmlns:svg="http://www.w3.org/2000/svg"
   xmlns="http://www.w3.org/2000/svg"
   xmlns:sodipodi="http://sodipodi.sourceforge.net/DTD/sodipodi-0.dtd"
   xmlns:inkscape="http://www.inkscape.org/namespaces/inkscape"
   width="210mm"
   height="297mm"
   viewBox="0 0 210 297"
   version="1.1"
   id="svg4627"
   inkscape:version="0.92.1 r15371"
   sodipodi:docname="love.svg">
  <defs
     id="defs4621" />
  <sodipodi:namedview
     id="base"
     pagecolor="#ffffff"
     bordercolor="#666666"
     borderopacity="1.0"
     inkscape:pageopacity="0.0"
     inkscape:pageshadow="2"
     inkscape:zoom="0.030935922"
     inkscape:cx="-10846.115"
     inkscape:cy="-2934.0182"
     inkscape:document-units="mm"
     inkscape:current-layer="layer1"
     showgrid="false"
     showborder="false"
     inkscape:window-width="1920"
     inkscape:window-height="1001"
     inkscape:window-x="-9"
     inkscape:window-y="-9"
     inkscape:window-maximized="1" />
  <metadata
     id="metadata4624">
    <rdf:RDF>
      <cc:Work
         rdf:about="">
        <dc:format>image/svg+xml</dc:format>
        <dc:type
           rdf:resource="http://purl.org/dc/dcmitype/StillImage" />
        <dc:title></dc:title>
      </cc:Work>
    </rdf:RDF>
  </metadata>
  <g
     inkscape:label="Layer 1"
     inkscape:groupmode="layer"
     id="layer1">
    <g
       id="g5209"
       transform="rotate(90,-510.38773,791.9222)">
      <path
         transform="scale(0.26458333)"
         inkscape:connector-curvature="0"
         id="rect4586"
         d="m -2262.1602,2746.7695 v 458.6289 h 23.2149 v 34.0157 h 619.8437 v -34.0157 h 23.2129 v -458.6289 z"
         style="opacity:0.43000004;fill:#d35f5f;fill-opacity:1;stroke:none;stroke-width:9.659338;stroke-linecap:round;stroke-linejoin:round;stroke-miterlimit:4;stroke-dasharray:none;stroke-opacity:0;paint-order:stroke fill markers" />
      <path
         inkscape:connector-curvature="0"
         id="path5196"
         d="m -507.02111,836.51051 c -0.23342,-1.03082 -0.76422,-2.97418 -1.17956,-4.31867 -0.41532,-1.34447 -0.8907,-2.95172 -1.05638,-3.57167 l -0.30122,-1.12718 -0.93015,1.45304 c -0.64093,1.00134 -0.86783,1.1998 -0.7297,0.63833 1.34441,-5.46495 2.47632,-17.7499 1.89245,-20.5392 -0.43472,-2.07669 -2.42157,-7.16543 -2.79769,-7.16543 -0.14091,0 -0.25618,0.57467 -0.25618,1.27703 0,2.42223 -0.39136,2.58429 -1.19078,0.4931 l -0.73901,-1.93311 h -2.45774 -2.45775 l -0.10601,1.45157 c -0.0948,1.29718 0.19238,3.00032 0.80585,4.78071 0.13921,0.40403 -0.0931,0.27976 -0.68303,-0.36541 l -0.89402,-0.97787 0.21106,1.79267 c 0.11609,0.986 0.34084,4.06607 0.49948,6.84465 0.30832,5.40093 0.83074,7.5143 2.57182,10.40393 1.44239,2.39397 2.67165,5.00108 3.24208,6.87597 0.80213,2.63659 0.61527,2.98065 -0.47621,0.8768 -0.53886,-1.03867 -1.20903,-2.20797 -1.48928,-2.59851 -0.4721,-0.65792 -0.50954,-0.66411 -0.50954,-0.085 0,0.43026 -0.3073,0.17351 -0.98575,-0.82386 -0.54216,-0.79697 -1.73017,-2.24521 -2.64001,-3.21837 l -1.65426,-1.7693 -0.70853,1.11748 c -0.38968,0.61459 -1.19265,2.09923 -1.78437,3.29912 -0.59171,1.19999 -1.20463,2.19005 -1.36201,2.20012 -0.1574,0.0106 -0.19967,-0.20168 -0.094,-0.47055 0.10568,-0.26895 0.0576,-0.48893 -0.10677,-0.48893 -0.34463,0 -2.04213,2.8816 -2.68809,4.56313 -0.92884,2.41797 -1.08263,1.83194 -0.89809,-3.42237 0.17051,-4.85445 0.1361,-5.28943 -0.49784,-6.29141 -0.72062,-1.13909 -1.2459,-1.23362 -0.63188,-0.11365 0.78744,1.43614 0.29484,1.09069 -0.62677,-0.43959 -0.53981,-0.8963 -1.51741,-2.21638 -2.17245,-2.93343 l -1.19097,-1.30374 0.0886,2.66715 c 0.0837,2.52266 0.0569,2.63917 -0.49575,2.14959 -0.5376,-0.47628 -0.58431,-0.46796 -0.58389,0.10327 2.5e-4,0.34148 0.22341,1.85753 0.49592,3.36897 0.27251,1.51153 0.43305,2.80908 0.35675,2.88354 -0.22166,0.21639 -1.31654,-2.05617 -3.14975,-6.53754 -4.81562,-11.77225 -8.06174,-17.32684 -11.86658,-20.30536 -3.08764,-2.41705 -3.25138,-2.48423 -5.07837,-2.08121 -1.41785,0.31274 -4.08418,0.69654 -11.02657,1.5871 -0.94507,0.12121 -1.95429,0.41161 -2.24271,0.64517 -0.28839,0.23366 -0.71725,0.35793 -0.95298,0.27616 -0.23575,-0.0813 -1.04557,0.19929 -1.79964,0.62447 -0.75405,0.42528 -2.40694,1.12856 -3.67308,1.56299 -5.29976,1.81818 -7.25,2.75216 -9.6482,4.62041 -0.73461,0.57237 -2.46264,1.56586 -3.84003,2.20789 -1.98601,0.92575 -5.89653,3.4705 -5.30616,3.45304 0.0717,0 0.9148,-0.2077 1.87343,-0.45679 1.68111,-0.43692 3.38437,-0.31829 4.47858,0.31174 0.25121,0.14468 1.29256,0.89739 2.31409,1.67266 1.23638,0.93842 2.18527,1.40804 2.83828,1.40471 1.248,-0.01 1.59464,-0.24022 2.2735,-1.53361 0.70599,-1.34503 1.73171,-1.92044 2.42387,-1.35972 0.39285,0.3182 0.73879,0.32244 1.59665,0.0194 0.60232,-0.2126 2.28288,-0.6861 3.73457,-1.05234 2.46854,-0.62262 2.77244,-0.79964 4.6939,-2.73395 l 2.05446,-2.06819 0.13842,1.15739 c 0.11875,0.99292 -0.0308,1.31067 -1.05271,2.23588 -1.02247,0.92585 -4.05705,2.41917 -7.54944,3.71533 l -0.95876,0.35581 1.98895,1.11341 c 2.86823,1.60558 4.45923,1.55966 6.85391,-0.19772 1.6955,-1.24424 1.92186,-1.31917 3.48293,-1.15295 0.91827,0.0979 2.27062,0.30526 3.00524,0.46103 l 1.33566,0.28309 -2.00349,0.56155 c -3.48308,0.97621 -4.71909,1.49748 -5.5175,2.32707 -0.54969,0.57117 -1.13052,0.80668 -1.9894,0.80668 -1.02435,0 -5.8626,-0.80012 -9.08307,-1.50211 -0.5329,-0.11614 -1.7768,0.0905 -3.06979,0.51083 -2.68142,0.87107 -3.52617,0.69275 -6.66936,-1.40777 -1.73325,-1.15832 -2.56548,-1.51227 -3.55571,-1.51227 -1.71578,0 -2.95582,0.48765 -4.18702,1.64642 -0.72932,0.68648 -1.47965,1.01391 -2.67133,1.1658 -0.91142,0.11623 -1.84496,0.35571 -2.07453,0.53209 -0.3294,0.25323 -0.41739,-0.58078 -0.41739,-3.95622 0,-2.833 0.12119,-4.27707 0.35896,-4.27707 0.19741,0 2.14844,-1.75684 4.3356,-3.90402 2.923,-2.8695 4.52572,-4.17443 6.04881,-4.92493 2.82081,-1.38994 5.72614,-4.13527 6.26526,-5.92027 0.85516,-2.83152 1.30955,-3.45812 2.46788,-3.40333 0.58262,0.0278 1.87054,-0.0647 2.86204,-0.20557 l 1.80274,-0.25566 -1.46603,1.09152 c -1.5613,1.16238 -2.43655,2.32263 -4.46734,5.92221 -1.01283,1.79517 -1.14273,2.19865 -0.6401,1.98808 0.34681,-0.14524 1.90782,-0.39201 3.46887,-0.54834 3.90476,-0.39109 6.15066,-1.08246 7.61039,-2.34277 0.68111,-0.58808 1.72673,-1.26004 2.32358,-1.49324 1.15064,-0.44957 3.08874,-2.18866 3.08874,-2.77147 0,-0.19097 -0.89835,-0.6873 -1.99635,-1.10288 -1.56352,-0.59177 -2.43168,-1.21929 -4.00421,-2.89445 -4.58966,-4.88908 -5.7936,-10.51379 -3.68299,-17.20657 1.10235,-3.49559 1.17528,-4.14289 0.63674,-5.65088 -0.29104,-0.81489 -0.64636,-1.0957 -1.75306,-1.38542 -2.14904,-0.56259 -4.36614,-1.314 -4.6533,-1.57708 -0.48122,-0.44085 1.14744,-1.99612 3.09541,-2.95597 1.53229,-0.75501 2.28549,-1.42571 3.63511,-3.23694 0.9363,-1.25653 2.19253,-2.54396 2.79161,-2.86095 1.45388,-0.76929 5.66195,-0.77429 7.1432,-0.008 2.65038,1.37024 4.49495,3.62751 5.16958,6.32627 0.58783,2.35153 0.72932,2.51914 3.93611,4.66304 3.07289,2.05437 6.22342,5.20614 7.77397,7.77705 l 0.89516,1.48418 0.20274,-0.96142 c 0.21971,-1.042 1.66314,-5.33836 2.83362,-8.43433 0.40172,-1.06254 1.17262,-3.96825 1.71311,-6.45714 1.43903,-6.62647 2.66706,-8.56034 6.76729,-10.65697 4.2383,-2.16724 8.01054,-0.90854 9.58468,3.19817 0.37853,0.98758 1.20541,2.35434 1.83749,3.03727 0.63208,0.68292 1.14924,1.43667 1.14924,1.67502 0,0.23835 -0.56349,0.78861 -1.25219,1.2228 -0.6887,0.4342 -1.29737,1.09772 -1.35259,1.47447 -0.10731,0.73246 2.25429,5.39868 3.28098,6.48265 0.90899,0.95967 2.56009,4.58179 3.19436,7.00764 0.61972,2.37018 0.50579,5.48036 -0.36223,9.88827 -0.2767,1.40508 -0.50309,3.21041 -0.50309,4.01201 0,0.92908 -0.1263,1.38106 -0.34848,1.24701 -0.2337,-0.14099 -0.31619,0.63103 -0.25044,2.34378 l 0.098,2.55408 1.58609,0.0994 c 1.83794,0.11513 1.7228,0.55205 1.26796,-4.81129 -0.39551,-4.66402 0.0855,-10.47896 1.31366,-15.88062 1.89273,-8.32462 3.2428,-11.70342 6.98577,-17.48316 1.06582,-1.64579 2.4881,-3.97342 3.16065,-5.17248 1.44016,-2.56769 3.41084,-4.51845 5.70289,-5.64524 1.38401,-0.68038 2.12451,-0.81196 4.5696,-0.81196 1.60488,0 3.29179,0.13873 3.7487,0.3083 1.06067,0.39364 2.71045,2.09311 3.65578,3.76591 0.5962,1.05498 1.2461,1.55252 3.40604,2.6075 3.1191,1.52346 4.1601,2.77777 3.00317,3.61852 -0.3673,0.26692 -1.71967,0.79535 -3.00525,1.17428 -3.7236,1.09754 -4.28399,1.60947 -4.82769,4.41025 -0.25255,1.30103 -0.1356,2.18283 0.72117,5.43713 0.97103,3.68831 1.01354,4.11581 0.84272,8.47435 -0.11008,2.80871 -0.38499,5.22262 -0.70836,6.2198 -0.29066,0.8963 -0.5301,1.65206 -0.53209,1.67931 -0.0124,0.17056 2.23784,0.76519 2.8956,0.76519 1.18054,0 3.90078,-1.4523 4.90741,-2.62004 1.2872,-1.49314 2.45583,-3.54432 3.16456,-5.55439 1.71914,-4.87564 4.64627,-9.27986 7.56762,-11.38643 2.29024,-1.65147 2.38319,-2.38962 0.41092,-3.26348 -0.78053,-0.34582 -1.73045,-0.632 -2.11097,-0.63593 -0.89777,-0.01 -3.81603,-0.97976 -3.81603,-1.26903 0,-0.62246 1.24802,-1.80166 2.82796,-2.67203 1.02588,-0.56513 2.78438,-2.0715 4.18222,-3.5826 3.15112,-3.40644 3.72445,-3.68319 7.68211,-3.70825 2.85127,-0.0181 3.32458,0.0674 4.67842,0.84428 2.22127,1.27473 2.92199,2.71493 4.97112,10.21749 0.53857,1.97192 1.45633,4.894 2.03944,6.49351 1.242,3.4068 1.59166,7.20329 1.0747,11.66862 -0.49132,4.24373 -1.25006,5.47771 -4.95983,8.06689 -1.67662,1.17014 -3.32848,2.28956 -3.67076,2.48755 -0.55267,0.31977 -0.56776,0.42426 -0.13479,0.93353 0.41217,0.48469 0.90698,0.55195 3.19943,0.43451 2.28971,-0.11733 3.09711,-0.32605 5.1867,-1.34069 4.38822,-2.13083 7.13177,-3.76052 7.89933,-4.69229 1.62056,-1.9673 2.52338,-4.37235 2.60508,-6.93991 0.0428,-1.34448 0.18192,-3.54458 0.30922,-4.88907 0.28501,-3.01033 -0.0108,-3.84066 -2.15655,-6.05536 -1.06991,-1.10423 -1.68812,-2.05733 -1.80488,-2.78261 -0.19106,-1.18674 -0.46993,-6.80701 -0.33775,-6.80701 0.0439,0 0.43021,0.55001 0.8584,1.22226 0.61916,0.97205 0.78185,1.69718 0.79466,3.54215 0.0194,2.77995 0.66682,4.0359 2.08076,4.0359 0.50203,0 1.40225,0.13701 2.0005,0.30449 1.03614,0.29006 1.1108,0.25054 1.57474,-0.83329 0.26787,-0.62578 1.28003,-2.21147 2.24924,-3.52377 0.96922,-1.3123 1.9412,-2.66072 2.15996,-2.99648 0.3459,-0.5309 0.40032,-0.43709 0.41739,0.71951 0.0124,0.83845 -0.30308,1.92259 -0.85359,2.93343 -0.48029,0.8819 -1.50811,2.79189 -2.28405,4.24443 -0.77592,1.45254 -1.6602,2.98856 -1.96503,3.41338 -0.57752,0.80482 -0.7637,2.58297 -0.27044,2.58297 0.1561,0 0.90612,-0.44002 1.66669,-0.97781 1.68241,-1.18961 1.81421,-1.20482 1.32302,-0.15255 -0.21186,0.4539 -1.11022,1.33368 -1.99633,1.95508 -1.76991,1.24118 -1.89869,1.68303 -1.23755,4.2459 0.42295,1.63967 0.59943,1.7292 1.4947,0.75836 0.98319,-1.06621 3.23751,-2.49015 4.85162,-3.06455 2.64448,-0.94098 3.29759,-1.09817 3.29759,-0.79364 0,0.30002 -2.21374,2.03483 -4.63774,3.63451 -0.73274,0.48348 -2.45663,2.25767 -3.83086,3.94262 -3.8224,4.68666 -6.68126,6.84668 -11.23242,8.48691 -2.0862,0.75188 -4.3471,1.95602 -7.32773,3.9028 -1.05128,0.68665 -2.02743,0.98333 -3.91534,1.19001 -3.24375,0.35506 -4.04451,0.98886 -1.26209,0.99884 1.25243,0 2.52485,0.24548 3.44241,0.65192 0.80058,0.3546 1.83459,0.64471 2.29778,0.64471 0.46319,0 2.13724,0.42509 3.72008,0.94461 4.14807,1.36148 5.74906,1.63469 10.05711,1.71609 3.37537,0.0638 6.94294,-0.2563 10.18444,-0.91367 l 1.00174,-0.20317 -1.00174,1.06084 c -1.15,1.21791 -2.71393,1.95843 -4.13592,1.95843 -1.87614,0 -2.07524,0.24844 -1.20369,1.5021 0.43088,0.61976 0.83185,1.24109 0.89106,1.3807 0.0592,0.1396 0.77277,0.61145 1.58573,1.04855 2.23718,1.20285 2.18061,1.6903 -0.17459,1.50451 -1.90536,-0.15032 -1.98059,-0.19467 -4.12649,-2.43379 -2.48991,-2.59804 -3.45316,-2.99736 -7.23718,-3.00032 -1.35603,-9.2e-4 -2.8959,-0.21213 -3.57887,-0.49069 -1.47764,-0.60267 -1.55413,-0.60341 -1.55413,-0.0157 0,0.26027 0.63861,0.90471 1.41915,1.43207 2.05204,1.38643 2.74426,2.24049 3.68905,4.55148 l 0.84082,2.05664 -0.80004,1.36565 c -0.44002,0.75114 -0.80184,1.27574 -0.80406,1.16579 -0.002,-0.11003 -0.14644,-0.93306 -0.32052,-1.82908 -0.485,-2.49622 -1.94557,-4.66697 -3.80733,-5.65833 -0.87035,-0.46353 -2.21439,-1.4305 -2.98675,-2.14876 -1.47356,-1.37053 -3.2827,-2.32272 -5.2443,-2.76019 -0.64279,-0.14339 -2.52107,-0.61339 -4.17395,-1.0444 -3.88328,-1.0126 -10.26653,-1.40906 -13.52791,-0.84011 -1.2832,0.22376 -2.33308,0.53532 -2.33308,0.6921 0,0.15688 -0.32536,0.11531 -0.72303,-0.0925 -0.4916,-0.25676 -1.42678,-0.29649 -2.92176,-0.12399 -1.20931,0.13951 -3.62624,0.28115 -5.37094,0.31469 -1.74472,0.0333 -3.5952,0.23088 -4.11221,0.43848 -0.517,0.20761 -1.79423,0.37946 -2.83829,0.38195 -3.53592,0.01 -3.88635,0.39461 -3.04392,3.35584 0.48267,1.6966 0.20791,2.24956 -0.47741,0.96079 -0.30911,-0.58133 -0.69839,-1.0214 -0.86505,-0.97787 -0.16667,0.0434 -0.52676,-0.21398 -0.80018,-0.57228 -0.27342,-0.3582 -0.55946,-0.57819 -0.63561,-0.48885 -0.57139,0.67031 -3.61197,6.69082 -4.06869,8.05619 -0.81278,2.4298 -0.76545,7.96544 0.0955,11.17356 1.08282,4.03474 1.97983,6.00056 4.25162,9.31723 1.18954,1.7366 2.10461,3.2143 2.03349,3.28378 -0.15473,0.15097 -4.00086,-2.54862 -5.35644,-3.75969 l -0.95792,-0.85582 0.22753,0.8148 0.22755,0.8149 -0.69635,-0.8149 c -0.38299,-0.44819 -1.24558,-1.66665 -1.91686,-2.70781 -0.80847,-1.25394 -1.29831,-1.74916 -1.45099,-1.46672 -0.3478,0.64323 -1.32031,7.184 -1.32031,8.87994 0,2.05026 -0.47641,1.86344 -0.98596,-0.38675 z m -20.08211,-16.19375 c 0.97077,-5.13966 0.21196,-9.78133 -2.69718,-16.49875 l -1.34847,-3.11378 -2.28502,-0.0767 c -2.41563,-0.0813 -6.66066,0.49938 -6.66066,0.9107 0,0.35358 1.91554,2.93094 3.13053,4.21195 0.81567,0.86007 0.88421,1.02019 0.31405,0.7334 -1.04224,-0.52413 -1.28723,-0.45382 -0.70885,0.20354 1.26659,1.43965 0.8669,1.39484 -0.72655,-0.0813 -1.72421,-1.59736 -1.75463,-1.61029 -1.53551,-0.65182 0.34334,1.50173 2.14226,4.78588 4.18849,7.6466 3.0019,4.19671 7.50302,9.44307 7.74483,9.02713 0.12048,-0.20734 0.38343,-1.2472 0.58434,-2.31091 z m -33.52716,-20.03309 1.00174,-0.24271 -1.40221,-0.6728 c -1.36192,-0.65339 -1.41825,-0.65543 -1.96051,-0.0702 -0.76651,0.82672 -0.37737,1.75101 0.61199,1.45351 0.41098,-0.12363 1.19803,-0.33391 1.74899,-0.46751 z m 19.01246,-2.93436 c 0.10212,-0.16122 0.91406,-0.46372 1.80435,-0.67215 1.3628,-0.31912 1.70836,-0.56257 2.18579,-1.53989 0.3119,-0.63843 0.52309,-1.19711 0.4693,-1.24156 -2.80123,-2.31524 -4.28695,-3.73511 -5.02305,-4.80038 l -0.91827,-1.32897 -0.0595,1.2713 c -0.0903,1.92822 -0.0804,2.14229 0.16789,3.625 0.19231,1.14851 0.14721,1.34476 -0.27291,1.18741 -0.7558,-0.28309 -0.63885,1.0237 0.22603,2.5258 0.73489,1.2763 1.07922,1.51236 1.42039,0.97344 z m 61.37059,-0.0111 c 1.23572,-0.15551 2.93978,-0.61025 3.78679,-1.0105 0.84703,-0.40024 2.21428,-0.80186 3.03835,-0.8925 1.28859,-0.14181 1.61838,-0.34194 2.35605,-1.43003 0.47175,-0.69581 0.79815,-1.30947 0.72537,-1.36361 -0.0728,-0.0545 -0.87826,-0.36864 -1.78993,-0.69886 -1.0673,-0.38656 -2.23297,-1.18612 -3.2734,-2.24538 -1.37646,-1.40131 -1.69973,-1.58702 -2.18244,-1.25348 -0.80677,0.5573 -3.00302,1.70195 -3.26555,1.70195 -0.12163,0 -0.0162,-0.24105 0.23434,-0.53569 0.35564,-0.41826 0.15178,-0.38444 -0.93022,0.15438 -1.62327,0.80833 -4.70337,1.34338 -3.67199,0.63787 0.33729,-0.23069 0.84372,-0.57707 1.12537,-0.76971 0.38087,-0.26046 -0.23222,-0.34398 -2.39246,-0.32595 l -2.90455,0.024 -0.97563,2.23235 c -0.5366,1.2278 -0.97563,2.28606 -0.97563,2.35165 0,0.0656 0.46636,0.63788 1.03634,1.27149 0.79144,0.87985 1.29562,1.15213 2.13347,1.15213 0.60341,0 1.45185,0.28844 1.88543,0.64101 0.88481,0.71955 2.43961,0.81184 6.04029,0.35866 z m -53.58298,-0.5028 c 0.16349,-0.12935 -1.55715,-1.80053 -1.8538,-1.80053 -0.40552,0 -1.00413,1.37017 -0.82276,1.88322 0.10309,0.29168 0.51343,0.35201 1.3685,0.20123 0.67169,-0.11845 1.26031,-0.24623 1.30806,-0.28392 z m 71.05942,-1.48908 c 2.52518,-0.43387 5.48746,-1.56862 5.48746,-2.10209 0,-0.82672 -0.82786,-1.14723 -2.0295,-0.78552 -0.62848,0.18913 -3.00303,0.45032 -5.27677,0.58031 -4.02657,0.23034 -4.15591,0.26128 -4.97496,1.19075 l -0.84089,0.95421 0.80101,0.21888 c 1.26024,0.34435 4.66412,0.31617 6.83365,-0.0564 z m -89.72954,-3.79175 2.11947,-0.20151 -0.19135,-1.66296 c -0.10526,-0.91457 -0.195,-2.06624 -0.19945,-2.55924 -0.0118,-1.30586 -0.78629,-1.10657 -1.45579,0.37464 -0.81017,1.7924 -2.16657,2.33927 -5.99192,2.41577 l -3.07874,0.0619 -0.0508,-6.15799 c -0.0501,-6.06551 -0.039,-6.16944 0.73614,-6.92615 0.43284,-0.4225 1.01921,-0.76818 1.30304,-0.76818 0.29572,0 0.51605,-0.28206 0.51605,-0.66059 0,-0.63771 -0.17056,-0.65747 -4.92525,-0.5704 -4.76443,0.0872 -4.92863,0.11327 -5.02835,0.7966 -0.0739,0.50599 0.16224,0.83053 0.83207,1.14391 1.22264,0.572 1.35386,1.27372 1.40196,7.49712 0.0329,4.24678 -0.0491,5.19675 -0.48521,5.6224 -0.2886,0.2817 -0.66425,0.51222 -0.83479,0.51222 -0.17054,0 -0.31007,0.38878 -0.31007,0.86404 v 0.86414 l 6.7618,-0.22192 c 3.71899,-0.12205 7.71555,-0.31257 8.88126,-0.42343 z m 24.92772,-2.66873 c 1.66254,-0.73904 3.61373,-2.81397 4.21558,-4.48284 0.25521,-0.70763 0.44902,-2.48533 0.43994,-4.03529 -0.0326,-5.56407 -2.87762,-8.88517 -7.58099,-8.8496 -4.39326,0.0333 -7.47152,3.49705 -7.82909,8.80977 -0.37037,5.50247 2.69769,9.12294 7.74931,9.14455 0.91899,0 2.27006,-0.25971 3.00525,-0.58659 z m -4.25978,-1.37488 c -1.61617,-0.91874 -2.61035,-4.85435 -2.22387,-8.80372 0.75288,-7.69368 5.42803,-8.21264 6.66082,-0.73932 0.37672,2.28365 0.17156,6.11642 -0.40759,7.61473 -0.75015,1.94088 -2.51852,2.78709 -4.02936,1.92831 z m 36.03122,-5.92101 c 3.72411,-7.12148 4.59953,-8.39287 5.7789,-8.39287 0.5353,0 0.68302,-0.2101 0.68302,-0.97151 v -0.97151 l -2.83829,0.0442 -2.83828,0.0442 v 0.92723 c 0,0.62587 0.17064,0.92723 0.52503,0.92723 0.38332,0 -0.2647,1.49576 -2.40049,5.5409 -1.60905,3.04753 -3.02827,5.541 -3.1538,5.541 -0.24652,0 -4.2724,-9.13922 -4.5586,-10.34855 -0.13795,-0.58289 -0.0286,-0.73335 0.5332,-0.73335 0.55585,0 0.70677,-0.20009 0.70677,-0.93708 0,-1.14227 -0.7345,-1.34449 -4.88353,-1.34449 h -2.79654 v 1.10004 c 0,0.94282 0.133,1.12601 0.93059,1.28171 0.84948,0.16584 1.10039,0.60264 2.87864,5.01128 1.07144,2.65626 2.47365,6.03963 3.11603,7.51864 l 1.16797,2.68896 h 1.7637 1.7637 z m 40.52132,3.50386 c 0,-1.60022 -0.11456,-2.11863 -0.4682,-2.11863 -0.25751,0 -0.62521,0.43959 -0.81711,0.97695 -0.49505,1.38615 -1.4468,1.6878 -4.39125,1.39178 l -2.50437,-0.25177 0.11911,-3.42153 c 0.0656,-1.88183 0.14352,-3.4488 0.17335,-3.48206 0.0299,-0.0333 0.67825,0.0212 1.44095,0.12095 1.10464,0.14468 1.42726,0.33926 1.58608,0.95689 0.10964,0.42648 0.33593,0.77536 0.50288,0.77536 0.35767,0 0.79357,-3.02751 0.63129,-4.38466 -0.1172,-0.98025 -0.94754,-1.59545 -0.94754,-0.70203 0,0.77855 -1.36387,1.4804 -2.46476,1.26838 l -0.96214,-0.18529 0.20385,-2.13078 c 0.11212,-1.17194 0.31969,-2.23549 0.46126,-2.36346 0.14157,-0.12796 1.60977,-0.13837 3.26266,-0.0231 2.78633,0.1943 3.01301,0.26298 3.11194,0.94292 0.0686,0.47129 0.33707,0.73336 0.75131,0.73336 0.56371,0 0.64461,-0.24029 0.64461,-1.91462 v -1.91459 l -3.75656,-0.13706 c -2.0661,-0.0754 -5.37186,-0.0772 -7.34614,-0.004 -3.4925,0.1294 -3.58959,0.15345 -3.58959,0.8889 0,0.46967 0.2529,0.83427 0.66783,0.96281 0.63922,0.19804 0.66783,0.49315 0.66783,6.88806 0,6.67289 -0.18865,7.94208 -1.18046,7.94208 -0.26901,0 -0.48912,0.29334 -0.48912,0.65191 0,0.63205 0.22261,0.65182 7.34614,0.65182 h 7.34615 z"
         style="fill:#000000;stroke-width:0.32990235" />
    </g>
  </g>
</svg>
