<?xml version="1.0" encoding="UTF-8" standalone="no"?>
<!-- Created with Inkscape (http://www.inkscape.org/) -->

<svg
   xmlns:dc="http://purl.org/dc/elements/1.1/"
   xmlns:cc="http://creativecommons.org/ns#"
   xmlns:rdf="http://www.w3.org/1999/02/22-rdf-syntax-ns#"
   xmlns:svg="http://www.w3.org/2000/svg"
   xmlns="http://www.w3.org/2000/svg"
   xmlns:sodipodi="http://sodipodi.sourceforge.net/DTD/sodipodi-0.dtd"
   xmlns:inkscape="http://www.inkscape.org/namespaces/inkscape"
   width="210mm"
   height="297mm"
   viewBox="0 0 210 297"
   version="1.1"
   id="svg5712"
   inkscape:version="0.92.1 r15371"
   sodipodi:docname="mellenu-pukas.svg">
  <defs
     id="defs5706" />
  <sodipodi:namedview
     id="base"
     pagecolor="#ffffff"
     bordercolor="#666666"
     borderopacity="1.0"
     inkscape:pageopacity="0.0"
     inkscape:pageshadow="2"
     inkscape:zoom="0.3535534"
     inkscape:cx="-1312.5696"
     inkscape:cy="374.41325"
     inkscape:document-units="mm"
     inkscape:current-layer="layer1"
     showgrid="false"
     showborder="false"
     inkscape:window-width="1920"
     inkscape:window-height="1001"
     inkscape:window-x="-9"
     inkscape:window-y="-9"
     inkscape:window-maximized="1"
     showguides="false" />
  <metadata
     id="metadata5709">
    <rdf:RDF>
      <cc:Work
         rdf:about="">
        <dc:format>image/svg+xml</dc:format>
        <dc:type
           rdf:resource="http://purl.org/dc/dcmitype/StillImage" />
        <dc:title />
      </cc:Work>
    </rdf:RDF>
  </metadata>
  <g
     inkscape:label="Layer 1"
     inkscape:groupmode="layer"
     id="layer1">
    <g
       id="g4490"
       transform="rotate(90,-172.43724,145.0089)">
      <path
         inkscape:connector-curvature="0"
         id="rect4586"
         d="m -260.3528,99.45277 v 82.11229 h 5.9154 v 8.99997 h 164.000317 v -8.99997 h 5.9154 V 99.45277 Z"
         style="opacity:0.43000004;fill:#d35f5f;fill-opacity:1;stroke:none;stroke-width:2.55569983;stroke-linecap:round;stroke-linejoin:round;stroke-miterlimit:4;stroke-dasharray:none;stroke-opacity:0;paint-order:stroke fill markers" />
      <path
         inkscape:connector-curvature="0"
         id="path5356"
         d="m -251.49914,135.50088 c 0.0404,1.92371 0.42543,3.78259 1.20975,5.40277 1.15277,2.3813 3.31949,4.36201 4.77283,4.36201 1.28594,0 0.94257,-0.86557 -1.18442,-2.99259 -2.3176,-2.31757 -3.28212,-5.23035 -2.87528,-8.67699 0.8499,-7.20005 6.86983,-13.24798 10.69289,-10.74301 3.17098,2.07773 2.78975,4.94469 -2.31045,17.38809 -4.56534,11.13837 -4.5471,11.06463 -2.69803,11.06082 1.34606,-0.002 1.87822,-0.74278 7.95352,-11.06444 6.62939,-11.2631 9.32849,-14.81269 10.42572,-13.71544 0.0886,0.0886 0.15327,0.20164 0.18862,0.35708 0.0147,0.10463 0.0209,0.23107 0.0191,0.39739 0,0.0693 -0.004,0.12632 -0.006,0.185 -0.16172,1.47429 -1.52661,5.0139 -5.38417,14.44357 -1.90493,4.65632 -3.33416,8.67616 -3.17552,8.93279 0.15862,0.25663 0.81849,0.46715 1.46555,0.46715 0.98618,0 2.16877,-1.60765 7.31583,-9.93893 6.1697,-9.98655 8.18406,-12.70723 9.40718,-12.70723 0.0159,0 0.0307,0.002 0.046,0.003 0.0311,7.9e-4 0.0606,0.004 0.0889,0.007 1.01309,0.1368 0.41847,2.00633 -3.24167,10.55956 -3.65569,8.54319 -4.11829,10.10995 -3.47575,11.78429 0.1988,0.51813 0.92646,0.79582 2.08411,0.79582 1.36326,0 2.14017,-0.38791 3.32951,-1.66088 l 1.54564,-1.65416 0.003,-0.002 c 0.003,0 0.0424,0.0741 0.0599,0.10335 l 0.71314,1.42627 c 0.64678,1.29341 1.09956,1.55962 2.87786,1.68878 2.59,0.18829 5.18676,-1.03209 5.18676,-2.43757 0,-0.95434 -0.0836,-0.96588 -1.82263,-0.23927 -2.53594,1.05962 -3.71295,0.98243 -3.71295,-0.24443 0,-0.70499 0.33859,-1.01041 1.13171,-1.01802 2.0284,-0.0199 5.38637,-1.8754 5.91644,-3.26957 1.12465,-2.95808 -1.62893,-4.20841 -5.36505,-2.43551 -1.95438,0.9274 -4.17976,3.5559 -4.24005,5.009 -0.0221,0.53129 -0.15194,0.67819 -0.29249,0.32969 -0.40865,-1.01282 -1.26946,-0.73664 -3.03289,0.97255 -0.90378,0.87596 -1.77468,1.46145 -1.94355,1.30793 -0.008,-0.0175 -0.0112,-0.0447 -0.0124,-0.0822 0.0528,-0.61658 1.56357,-4.5348 3.52485,-9.11675 4.07966,-9.53085 4.67708,-12.33432 2.83704,-13.31908 -2.796,-1.49636 -5.64852,0.8052 -10.16063,8.19949 -1.71784,2.81519 -3.30557,5.32685 -3.52846,5.58158 -0.22286,0.25476 0.60078,-2.00612 1.8309,-5.0245 3.5547,-8.72213 3.54804,-11.79412 -0.0263,-11.79412 -2.48622,0 -4.59585,2.16356 -8.58914,8.80722 -1.71566,2.85435 -2.99173,4.82389 -2.97553,4.60282 0,-0.0147 0.007,-0.0393 0.0207,-0.0739 2.87683,-7.76563 3.35342,-11.39885 1.8805,-14.33556 -0.97795,-1.9498 -2.71542,-2.98159 -4.8457,-3.01377 h -5.2e-4 c -0.63182,-0.01 -1.29825,0.0703 -1.98955,0.23874 h -0.003 l -0.005,0.002 c -0.70533,0.1724 -1.43669,0.43777 -2.18385,0.79944 -4.59,2.222 -7.56837,8.57423 -7.44709,14.34538 z m 39.76037,10.84998 c 0.003,-0.005 0.0124,-0.0172 0.0233,-0.0305 l 1.53582,-1.5658 c 0.86464,-0.88186 1.97109,-1.41755 2.5678,-1.43608 v -0.001 c 0.0397,-8e-4 0.0776,-3e-5 0.11266,0.004 0.19576,0.0191 0.3104,0.11402 0.3116,0.28887 -1.7e-4,0.0156 0.003,0.03 0,0.0465 -0.0124,0.11917 -0.0714,0.27065 -0.18861,0.45785 -0.21001,0.33524 -1.28073,0.97679 -2.37815,1.42524 z m 6.28023,3.91501 c 0,1.34923 0.17399,1.54099 1.39785,1.54099 0.76874,0 1.90145,-0.35366 2.51871,-0.786 1.01739,-0.71262 1.15128,-0.71262 1.42472,0 0.41546,1.08262 2.52611,0.98554 4.1801,-0.19224 1.36072,-0.96891 1.38213,-0.96891 2.21176,0 1.04219,1.21715 3.80926,1.29087 6.18101,0.16537 2.1385,-1.01479 2.38574,-2.49576 0.32867,-1.97094 -2.34139,0.59721 -4.29715,0.54954 -4.52324,-0.11007 -0.1185,-0.34582 0.0868,-0.71682 0.45578,-0.82372 0.369,-0.10688 1.58414,-0.43983 2.70113,-0.74156 2.65189,-0.71632 4.26021,-2.24972 4.26021,-4.06177 0,-1.5207 -0.72882,-2.04742 -2.83394,-2.04742 -2.55104,0 -6.32337,3.06353 -7.01714,5.69991 -0.15827,0.60144 -1.01696,1.4392 -1.90945,1.86087 l -1.62315,0.76636 4.66689,-11.08304 c 2.56711,-6.09577 4.67414,-11.59303 4.67982,-12.21579 0.01,-0.87939 -0.27525,-1.13172 -1.26607,-1.13172 -0.70174,0 -1.83337,0.36536 -2.51561,0.81236 -1.38564,0.90791 -1.67988,2.70991 -0.44286,2.70991 0.43825,0 0.7201,0.20148 0.62786,0.44752 -0.0922,0.24602 -1.85732,4.556 -3.92327,9.57822 -3.23975,7.87549 -3.96042,9.23289 -5.23999,9.87124 -0.81602,0.40708 -1.54046,0.68274 -1.61024,0.61236 -0.0698,-0.0704 1.89149,-4.94347 4.35891,-10.8288 2.46736,-5.88531 4.48655,-11.26392 4.48655,-11.95224 0,-1.03383 -0.24173,-1.24736 -1.38493,-1.23403 -1.6335,0.0199 -3.64836,1.54666 -3.64836,2.76469 0,0.6069 0.29177,0.78177 0.99271,0.59841 0.954,-0.24946 0.96238,-0.18839 0.21859,1.57768 -5.62806,13.3621 -7.75302,18.89075 -7.75302,20.17345 z m 14.83372,-4.35271 c -0.01,-0.11813 0.10049,-0.3437 0.28991,-0.69763 0.48166,-0.89994 2.0352,-1.86471 2.87372,-1.92236 0.0484,-0.004 0.0947,-0.004 0.13798,-5.3e-4 0.12982,0.009 0.23495,0.0463 0.30644,0.11782 0.17672,0.17669 0.0491,0.64915 -0.28319,1.04955 -0.33229,0.40039 -1.27143,0.96067 -2.08824,1.2454 -0.87004,0.3033 -1.22007,0.40462 -1.23662,0.20774 z m 6.80475,5.42293 c 0,0.25876 0.43937,0.47077 0.97514,0.47077 0.60011,0 2.12481,-1.40798 3.9703,-3.66644 2.85177,-3.49 4.61729,-5.31032 4.61729,-4.75992 0,0.13884 -0.582,1.52437 -1.29346,3.07837 -1.57648,3.44356 -1.48083,5.03651 0.31471,5.24567 1.57193,0.18316 3.9982,-1.60935 3.9982,-2.95383 0,-1.08961 -0.99696,-1.28093 -1.91151,-0.36638 -0.89064,0.89065 -0.73826,0.12103 0.4315,-2.17196 2.31105,-4.53004 -0.20125,-6.63457 -3.91501,-3.27939 l -1.94303,1.75442 0.2005,-1.72393 c 0.17688,-1.5158 0.0649,-1.72496 -0.93689,-1.72496 -1.42244,0 -4.50774,2.2956 -4.50774,3.35483 0,0.5654 0.3489,0.72153 1.23352,0.55243 l 1.23558,-0.23616 -0.77411,1.81281 c -1.28662,3.01206 -1.69499,4.12015 -1.69499,4.61367 z m 4.02663,4.53874 c 0,2.43953 0.81952,2.54309 1.78749,0.22634 1.02117,-2.44399 0.94146,-3.79047 -0.22376,-3.79047 -1.14994,0 -1.56373,0.94306 -1.56373,3.56413 z m 9.56169,-11.33988 c 0,0.40107 0.43297,0.72967 0.96273,0.72967 0.93706,0 0.93547,0.0676 -0.0863,2.48564 -0.87146,2.06272 -0.93986,2.61937 -0.39894,3.27112 0.97422,1.17388 3.27607,0.94877 4.98213,-0.4868 l 1.51153,-1.27175 0.1633,1.1467 c 0.3442,2.42575 5.44618,0.87174 5.44618,-1.65882 0,-1.19789 -0.87396,-1.2455 -2.12235,-0.11575 -0.73729,0.66723 -0.60865,0.10587 0.58911,-2.56367 1.79063,-3.99097 1.88744,-4.83278 0.55604,-4.83278 -0.59412,0 -1.85601,1.13441 -3.21893,2.89388 -4.40872,5.6915 -7.12358,7.26638 -4.12016,2.39004 0.68192,-1.10714 1.24571,-2.74879 1.25522,-3.64836 0.0133,-1.34426 -0.17813,-1.63556 -1.0697,-1.63556 -1.34012,0 -4.44986,2.30384 -4.44986,3.29644 z m 14.67869,12.11502 c 0.003,0.12916 0.0272,0.25764 0.0754,0.38344 0.20423,0.53219 1.19603,0.69124 3.95066,0.63511 3.06649,-0.0626 3.70567,-0.22058 3.8468,-0.95498 0.12572,-0.65443 -0.16429,-0.88057 -1.12655,-0.88057 -1.51554,0 -1.58095,-0.37284 -0.47387,-2.69441 0.75946,-1.59249 0.95995,-1.70261 2.68511,-1.47123 3.47344,0.4659 6.90526,-2.45392 7.40626,-6.3009 0.30464,-2.33902 -1.1624,-4.12792 -3.38429,-4.12792 -1.73828,0 -1.87908,-0.73219 -0.48369,-2.51612 1.05246,-1.34547 1.33259,-3.01946 0.50436,-3.01946 -0.86056,0 -2.42834,1.87078 -3.74757,4.47415 -0.69569,1.3729 -1.72225,2.64149 -2.28152,2.81895 -1.14874,0.3646 -1.39522,1.76526 -0.31057,1.76526 0.63221,0 -0.32626,2.95141 -3.06493,9.43612 -0.14608,0.34597 -0.77866,0.6289 -1.40715,0.6289 -1.1806,0 -2.20863,0.91956 -2.1885,1.82366 z m 8.99274,-8.39018 c 0.0774,-1.68253 1.51509,-4.89648 2.55591,-5.16868 0.10136,-0.0263 0.21533,-0.0353 0.33797,-0.0279 0.8585,0.0527 2.11924,0.86924 2.11924,1.47226 0,0.96788 -1.82115,4.38366 -2.54351,4.77026 -1.17429,0.62849 -1.60741,0.59403 -2.2841,-0.18087 -0.14863,-0.17018 -0.20337,-0.47679 -0.18551,-0.86506 z m 8.03258,-3.70624 c 0,0.87912 1.08521,0.925 1.9668,0.0822 0.36186,-0.34596 0.067,0.55184 -0.65474,1.99575 -1.30144,2.60383 -1.62233,4.19385 -0.97668,4.83949 v 5.3e-4 c 0.72365,0.72366 3.13645,0.27441 4.87877,-0.90795 l 1.8309,-1.24282 v 1.24282 c 0,1.0258 0.24676,1.24333 1.40973,1.24333 0.77498,0 1.70911,-0.28344 2.07584,-0.62942 0.53345,-0.50324 0.71312,-0.50324 0.89762,0 0.12686,0.34598 0.67478,0.62942 1.21802,0.62942 0.68715,0 1.32538,-0.72754 2.09703,-2.39055 0.8911,-1.92048 1.32612,-2.35977 2.21381,-2.23345 0.90652,0.12894 1.13208,0.53596 1.25781,2.26497 0.1377,1.8928 0.2977,2.12323 1.56993,2.26912 1.92701,0.22091 3.86746,-1.12901 3.86746,-2.69028 0,-1.4125 -0.58664,-1.6034 -1.50947,-0.49144 -1.00075,1.20582 -1.39043,0.89449 -1.59731,-1.27486 -0.15179,-1.59153 0.0425,-2.25039 0.89968,-3.05563 0.76877,-0.72222 1.15499,-0.83989 1.30277,-0.39635 0.37249,1.11743 1.99727,0.0607 1.82056,-1.18391 -0.25612,-1.80377 -2.39025,-1.75174 -4.16564,0.10128 -1.45098,1.51451 -3.64986,2.14626 -3.14451,0.90331 2.08941,-5.139 7.07445,-16.34625 7.4321,-16.70854 0.29603,-0.29994 0.47181,-0.14496 0.47181,0.41496 0,1.49259 1.73902,0.74842 1.92029,-0.82166 0.14664,-1.271 0.0211,-1.37924 -1.59887,-1.37924 v 5.3e-4 c -2.62528,0 -4.00764,2.09524 -8.62427,13.06484 -2.52946,6.01019 -4.29297,9.56925 -4.74235,9.57305 -0.39338,0.004 -1.14029,0.39289 -1.66088,0.86404 -0.90802,0.8217 -0.92646,0.80604 -0.46302,-0.37776 0.26572,-0.67871 0.95251,-2.25243 1.52549,-3.49798 1.3461,-2.92592 1.32317,-3.52278 -0.12868,-3.52278 -0.83869,0 -1.59854,0.61533 -2.5678,2.07997 -1.66562,2.51695 -5.25586,6.47506 -5.87354,6.47506 -0.24553,0 0.24923,-1.37867 1.09967,-3.06337 1.73136,-3.42997 1.7872,-5.16205 0.17312,-5.39244 -1.20259,-0.17157 -4.22145,2.128 -4.22145,3.21582 z m 3.09283,-5.86734 c -0.0149,0.1492 0.0432,0.31938 0.1633,0.51367 0.22854,0.36974 1.94654,0.51499 4.96404,0.42064 4.23045,-0.1322 4.61367,-0.22696 4.61367,-1.1498 0,-0.70869 -0.15702,-0.91437 -2.02882,-0.9033 -0.62393,0.004 -1.43754,0.0316 -2.50062,0.0729 -3.71088,0.14402 -5.14699,0.39942 -5.21157,1.04593 z m 21.09226,9.79475 c 0.009,1.0735 0.26439,2.03594 0.76326,2.53473 0.92707,0.92709 3.34914,1.03363 4.87877,0.21498 0.80668,-0.4317 1.12312,-0.4317 1.26711,0 0.27006,0.81015 2.20057,0.71554 3.4649,-0.17002 0.94037,-0.65866 1.13696,-0.65866 1.68362,0 0.91471,1.10217 4.14592,0.93417 5.71128,-0.29714 1.71063,-1.34555 1.7368,-3.42415 0.0682,-5.40742 -1.52087,-1.80745 -1.55648,-2.10426 -0.25166,-2.10426 0.55914,0 1.00665,0.33509 1.00665,0.75447 0,1.13805 1.89652,0.9072 2.27222,-0.27647 0.45901,-1.44627 -0.59756,-2.49132 -2.51768,-2.49132 h -5.2e-4 c -3.68481,0 -5.77535,4.03176 -3.02513,5.83375 1.47108,0.96393 1.61785,1.99746 0.3762,2.63602 -1.25132,0.64358 -2.07469,0.20449 -1.77405,-0.94516 0.20965,-0.80166 -0.004,-0.98237 -1.15394,-0.98237 -0.77559,0 -1.94086,0.49799 -2.58899,1.10691 -1.0573,0.99327 -0.99621,0.71213 0.59635,-2.73472 0.97631,-2.11309 1.77612,-4.06472 1.77612,-4.3372 0,-0.29037 -1.61778,-0.4586 -3.90674,-0.40514 -4.35614,0.10156 -6.52912,1.16192 -7.92872,3.86849 -0.48784,0.94339 -0.72588,2.12837 -0.71726,3.20187 z m 2.49597,-0.0992 c -0.0306,-0.93078 0.47243,-2.18912 1.70222,-3.41891 1.07166,-1.07164 2.39418,-1.72073 3.37757,-1.7601 0.0559,-0.002 0.11024,-0.002 0.16382,-5.3e-4 0.37498,0.0124 0.69128,0.12141 0.91157,0.34158 0.50559,0.50561 -1.1337,3.93484 -2.44688,5.11804 -2.12353,1.91337 -3.65729,1.27121 -3.7083,-0.28009 z"
         style="fill:#000000;stroke-width:0.50324559" />
    </g>
    <path
       style="opacity:1;fill:#000000;fill-opacity:1;stroke:#000000;stroke-width:0.11160714;stroke-linecap:round;stroke-linejoin:round;stroke-miterlimit:4;stroke-dasharray:none;stroke-opacity:1;paint-order:stroke fill markers"
       d=""
       id="path4498"
       inkscape:connector-curvature="0"
       transform="scale(0.26458333)" />
    <path
       style="opacity:1;fill:#000000;fill-opacity:1;stroke:#000000;stroke-width:0.11160714;stroke-linecap:round;stroke-linejoin:round;stroke-miterlimit:4;stroke-dasharray:none;stroke-opacity:1;paint-order:stroke fill markers"
       d=""
       id="path4502"
       inkscape:connector-curvature="0"
       transform="scale(0.26458333)" />
    <path
       style="opacity:1;fill:#000000;fill-opacity:1;stroke:#000000;stroke-width:0.0390625;stroke-linecap:round;stroke-linejoin:round;stroke-miterlimit:4;stroke-dasharray:none;stroke-opacity:1;paint-order:stroke fill markers"
       d=""
       id="path4506"
       inkscape:connector-curvature="0"
       transform="scale(0.26458333)" />
    <path
       style="opacity:1;fill:#000000;fill-opacity:1;stroke:#000000;stroke-width:0.0390625;stroke-linecap:round;stroke-linejoin:round;stroke-miterlimit:4;stroke-dasharray:none;stroke-opacity:1;paint-order:stroke fill markers"
       d=""
       id="path4508"
       inkscape:connector-curvature="0"
       transform="scale(0.26458333)" />
  </g>
</svg>
