<?xml version="1.0" encoding="UTF-8" standalone="no"?>
<!-- Created with Inkscape (http://www.inkscape.org/) -->

<svg
   xmlns:dc="http://purl.org/dc/elements/1.1/"
   xmlns:cc="http://creativecommons.org/ns#"
   xmlns:rdf="http://www.w3.org/1999/02/22-rdf-syntax-ns#"
   xmlns:svg="http://www.w3.org/2000/svg"
   xmlns="http://www.w3.org/2000/svg"
   xmlns:sodipodi="http://sodipodi.sourceforge.net/DTD/sodipodi-0.dtd"
   xmlns:inkscape="http://www.inkscape.org/namespaces/inkscape"
   width="210mm"
   height="297mm"
   viewBox="0 0 210 297"
   version="1.1"
   id="svg5712"
   inkscape:version="0.92.1 r15371"
   sodipodi:docname="mellenu-pukas.svg">
  <defs
     id="defs5706" />
  <sodipodi:namedview
     id="base"
     pagecolor="#ffffff"
     bordercolor="#666666"
     borderopacity="1.0"
     inkscape:pageopacity="0.0"
     inkscape:pageshadow="2"
     inkscape:zoom="0.1767767"
     inkscape:cx="-2208.2418"
     inkscape:cy="1199.4452"
     inkscape:document-units="mm"
     inkscape:current-layer="layer1"
     showgrid="false"
     showborder="false"
     inkscape:window-width="1920"
     inkscape:window-height="1001"
     inkscape:window-x="-9"
     inkscape:window-y="-9"
     inkscape:window-maximized="1"
     showguides="false" />
  <metadata
     id="metadata5709">
    <rdf:RDF>
      <cc:Work
         rdf:about="">
        <dc:format>image/svg+xml</dc:format>
        <dc:type
           rdf:resource="http://purl.org/dc/dcmitype/StillImage" />
        <dc:title />
      </cc:Work>
    </rdf:RDF>
  </metadata>
  <g
     inkscape:label="Layer 1"
     inkscape:groupmode="layer"
     id="layer1">
    <path
       style="opacity:0.43000004;fill:#d35f5f;fill-opacity:1;stroke:none;stroke-width:2.55569983;stroke-linecap:round;stroke-linejoin:round;stroke-miterlimit:4;stroke-dasharray:none;stroke-opacity:0;paint-order:stroke fill markers"
       d="m -126.61653,57.09334 h -82.11229 v 5.9154 h -8.99997 v 164.00032 h 8.99997 v 5.9154 h 82.11229 z"
       id="rect4586"
       inkscape:connector-curvature="0" />
    <path
       style="fill:#000000;stroke-width:0.50324559"
       d="m -168.72909,63.851301 c -1.92371,0.0404 -3.78259,0.42543 -5.40277,1.20975 -2.3813,1.15277 -4.36201,3.31949 -4.36201,4.77283 0,1.28594 0.86557,0.94257 2.99259,-1.18442 2.31757,-2.3176 5.23035,-3.28212 8.67699,-2.87528 7.20005,0.8499 13.24798,6.86983 10.74301,10.69289 -2.07773,3.17098 -4.94469,2.78975 -17.38809,-2.31045 -11.13837,-4.56534 -11.06463,-4.5471 -11.06082,-2.69803 0.002,1.34606 0.74278,1.87822 11.06444,7.95352 11.2631,6.62939 14.81269,9.32849 13.71544,10.42572 -0.0886,0.0886 -0.20164,0.15327 -0.35708,0.18862 -0.10463,0.0147 -0.23107,0.0209 -0.39739,0.0191 -0.0693,0 -0.12632,-0.004 -0.185,-0.006 -1.47429,-0.16172 -5.0139,-1.52661 -14.44357,-5.38417 -4.65632,-1.90493 -8.67616,-3.33416 -8.93279,-3.17552 -0.25663,0.15862 -0.46715,0.81849 -0.46715,1.46555 0,0.98618 1.60765,2.16877 9.93893,7.31583 9.98655,6.1697 12.70723,8.18406 12.70723,9.40718 0,0.0159 -0.002,0.0307 -0.003,0.046 -7.9e-4,0.0311 -0.004,0.0606 -0.007,0.0889 -0.1368,1.013089 -2.00633,0.418469 -10.55956,-3.24167 -8.54319,-3.65569 -10.10995,-4.11829 -11.78429,-3.47575 -0.51813,0.1988 -0.79582,0.92646 -0.79582,2.08411 0,1.36326 0.38791,2.14017 1.66088,3.32951 l 1.65416,1.545639 0.002,0.003 c 0,0.003 -0.0741,0.0424 -0.10335,0.0599 l -1.42627,0.71314 c -1.29341,0.64678 -1.55962,1.09956 -1.68878,2.87786 -0.18829,2.59 1.03209,5.18676 2.43757,5.18676 0.95434,0 0.96588,-0.0836 0.23927,-1.82263 -1.05962,-2.53594 -0.98243,-3.71295 0.24443,-3.71295 0.70499,0 1.01041,0.33859 1.01802,1.13171 0.0199,2.0284 1.8754,5.38637 3.26957,5.91644 2.95808,1.12465 4.20841,-1.62893 2.43551,-5.36505 -0.9274,-1.95438 -3.5559,-4.17976 -5.009,-4.24005 -0.53129,-0.0221 -0.67819,-0.15194 -0.32969,-0.29249 1.01282,-0.40865 0.73664,-1.269459 -0.97255,-3.032889 -0.87596,-0.90378 -1.46145,-1.77468 -1.30793,-1.94355 0.0175,-0.008 0.0447,-0.0112 0.0822,-0.0124 0.61658,0.0528 4.5348,1.56357 9.11675,3.52485 9.53085,4.079659 12.33432,4.677079 13.31908,2.837039 1.49636,-2.795999 -0.8052,-5.648519 -8.19949,-10.160629 -2.81519,-1.71784 -5.32685,-3.30557 -5.58158,-3.52846 -0.25476,-0.22286 2.00612,0.60078 5.0245,1.8309 8.72213,3.5547 11.79412,3.54804 11.79412,-0.0263 0,-2.48622 -2.16356,-4.59585 -8.80722,-8.58914 -2.85435,-1.71566 -4.82389,-2.99173 -4.60282,-2.97553 0.0147,0 0.0393,0.007 0.0739,0.0207 7.76563,2.87683 11.39885,3.35342 14.33556,1.8805 1.9498,-0.97795 2.98159,-2.71542 3.01377,-4.8457 v -5.2e-4 c 0.01,-0.63182 -0.0703,-1.29825 -0.23874,-1.98955 v -0.003 l -0.002,-0.005 c -0.1724,-0.70533 -0.43777,-1.43669 -0.79944,-2.18385 -2.222,-4.59 -8.57423,-7.56837 -14.34538,-7.44709 z m -10.84998,39.760369 c 0.005,0.003 0.0172,0.0124 0.0305,0.0233 l 1.5658,1.53582 c 0.88186,0.86464 1.41755,1.97109 1.43608,2.5678 h 0.001 c 8e-4,0.0397 3e-5,0.0776 -0.004,0.11266 -0.0191,0.19576 -0.11402,0.3104 -0.28887,0.3116 -0.0156,-1.7e-4 -0.03,0.003 -0.0465,0 -0.11917,-0.0124 -0.27065,-0.0714 -0.45785,-0.18861 -0.33524,-0.21001 -0.97679,-1.28073 -1.42524,-2.37815 z m -3.91501,6.28023 c -1.34923,0 -1.54099,0.17399 -1.54099,1.39785 0,0.76874 0.35366,1.90145 0.786,2.51871 0.71262,1.01739 0.71262,1.15128 0,1.42472 -1.08262,0.41546 -0.98554,2.52611 0.19224,4.1801 0.96891,1.36072 0.96891,1.38213 0,2.21176 -1.21715,1.04219 -1.29087,3.80926 -0.16537,6.18101 1.01479,2.1385 2.49576,2.38574 1.97094,0.32867 -0.59721,-2.34139 -0.54954,-4.29715 0.11007,-4.52324 0.34582,-0.1185 0.71682,0.0868 0.82372,0.45578 0.10688,0.369 0.43983,1.58414 0.74156,2.70113 0.71632,2.65189 2.24972,4.26021 4.06177,4.26021 1.5207,0 2.04742,-0.72882 2.04742,-2.83394 0,-2.55104 -3.06353,-6.32337 -5.69991,-7.01714 -0.60144,-0.15827 -1.4392,-1.01696 -1.86087,-1.90945 l -0.76636,-1.62315 11.08304,4.66689 c 6.09577,2.56711 11.59303,4.67414 12.21579,4.67982 0.87939,0.01 1.13172,-0.27525 1.13172,-1.26607 0,-0.70174 -0.36536,-1.83337 -0.81236,-2.51561 -0.90791,-1.38564 -2.70991,-1.67988 -2.70991,-0.44286 0,0.43825 -0.20148,0.7201 -0.44752,0.62786 -0.24602,-0.0922 -4.556,-1.85732 -9.57822,-3.92327 -7.87549,-3.23975 -9.23289,-3.96042 -9.87124,-5.23999 -0.40708,-0.81602 -0.68274,-1.54046 -0.61236,-1.61024 0.0704,-0.0698 4.94347,1.89149 10.8288,4.35891 5.88531,2.46736 11.26392,4.48655 11.95224,4.48655 1.03383,0 1.24736,-0.24173 1.23403,-1.38493 -0.0199,-1.6335 -1.54666,-3.64836 -2.76469,-3.64836 -0.6069,0 -0.78177,0.29177 -0.59841,0.99271 0.24946,0.954 0.18839,0.96238 -1.57768,0.21859 -13.3621,-5.62806 -18.89075,-7.75302 -20.17345,-7.75302 z m 4.35271,14.83372 c 0.11813,-0.01 0.3437,0.10049 0.69763,0.28991 0.89994,0.48166 1.86471,2.0352 1.92236,2.87372 0.004,0.0484 0.004,0.0947 5.3e-4,0.13798 -0.009,0.12982 -0.0463,0.23495 -0.11782,0.30644 -0.17669,0.17672 -0.64915,0.0491 -1.04955,-0.28319 -0.40039,-0.33229 -0.96067,-1.27143 -1.2454,-2.08824 -0.3033,-0.87004 -0.40462,-1.22007 -0.20774,-1.23662 z m -5.42293,6.80475 c -0.25876,0 -0.47077,0.43937 -0.47077,0.97514 0,0.60011 1.40798,2.12481 3.66644,3.9703 3.49,2.85177 5.31032,4.61729 4.75992,4.61729 -0.13884,0 -1.52437,-0.582 -3.07837,-1.29346 -3.44356,-1.57648 -5.03651,-1.48083 -5.24567,0.31471 -0.18316,1.57193 1.60935,3.9982 2.95383,3.9982 1.08961,0 1.28093,-0.99696 0.36638,-1.91151 -0.89065,-0.89064 -0.12103,-0.73826 2.17196,0.4315 4.53004,2.31105 6.63457,-0.20125 3.27939,-3.91501 l -1.75442,-1.94303 1.72393,0.2005 c 1.5158,0.17688 1.72496,0.0649 1.72496,-0.93689 0,-1.42244 -2.2956,-4.50774 -3.35483,-4.50774 -0.5654,0 -0.72153,0.3489 -0.55243,1.23352 l 0.23616,1.23558 -1.81281,-0.77411 c -3.01206,-1.28662 -4.12015,-1.69499 -4.61367,-1.69499 z m -4.53874,4.02663 c -2.43953,0 -2.54309,0.81952 -0.22634,1.78749 2.44399,1.02117 3.79047,0.94146 3.79047,-0.22376 0,-1.14994 -0.94306,-1.56373 -3.56413,-1.56373 z m 11.33988,9.56169 c -0.40107,0 -0.72967,0.43297 -0.72967,0.96273 0,0.93706 -0.0676,0.93547 -2.48564,-0.0863 -2.06272,-0.87146 -2.61937,-0.93986 -3.27112,-0.39894 -1.17388,0.97422 -0.94877,3.27607 0.4868,4.98213 l 1.27175,1.51153 -1.1467,0.1633 c -2.42575,0.3442 -0.87174,5.44618 1.65882,5.44618 1.19789,0 1.2455,-0.87396 0.11575,-2.12235 -0.66723,-0.73729 -0.10587,-0.60865 2.56367,0.58911 3.99097,1.79063 4.83278,1.88744 4.83278,0.55604 0,-0.59412 -1.13441,-1.85601 -2.89388,-3.21893 -5.6915,-4.40872 -7.26638,-7.12358 -2.39004,-4.12016 1.10714,0.68192 2.74879,1.24571 3.64836,1.25522 1.34426,0.0133 1.63556,-0.17813 1.63556,-1.0697 0,-1.34012 -2.30384,-4.44986 -3.29644,-4.44986 z m -12.11502,14.67869 c -0.12916,0.003 -0.25764,0.0272 -0.38344,0.0754 -0.53219,0.20423 -0.69124,1.19603 -0.63511,3.95066 0.0626,3.06649 0.22058,3.70567 0.95498,3.8468 0.65443,0.12572 0.88057,-0.16429 0.88057,-1.12655 0,-1.51554 0.37284,-1.58095 2.69441,-0.47387 1.59249,0.75946 1.70261,0.95995 1.47123,2.68511 -0.4659,3.47344 2.45392,6.90526 6.3009,7.40626 2.33902,0.30464 4.12792,-1.1624 4.12792,-3.38429 0,-1.73828 0.73219,-1.87908 2.51612,-0.48369 1.34547,1.05246 3.01946,1.33259 3.01946,0.50436 0,-0.86056 -1.87078,-2.42834 -4.47415,-3.74757 -1.3729,-0.69569 -2.64149,-1.72225 -2.81895,-2.28152 -0.3646,-1.14874 -1.76526,-1.39522 -1.76526,-0.31057 0,0.63221 -2.95141,-0.32626 -9.43612,-3.06493 -0.34597,-0.14608 -0.6289,-0.77866 -0.6289,-1.40715 0,-1.1806 -0.91956,-2.20863 -1.82366,-2.1885 z m 8.39018,8.99274 c 1.68253,0.0774 4.89648,1.51509 5.16868,2.55591 0.0263,0.10136 0.0353,0.21533 0.0279,0.33797 -0.0527,0.8585 -0.86924,2.11924 -1.47226,2.11924 -0.96788,0 -4.38366,-1.82115 -4.77026,-2.54351 -0.62849,-1.17429 -0.59403,-1.60741 0.18087,-2.2841 0.17018,-0.14863 0.47679,-0.20337 0.86506,-0.18551 z m 3.70624,8.03258 c -0.87912,0 -0.925,1.08521 -0.0822,1.9668 0.34596,0.36186 -0.55184,0.067 -1.99575,-0.65474 -2.60383,-1.30144 -4.19385,-1.62233 -4.83949,-0.97668 h -5.3e-4 c -0.72366,0.72365 -0.27441,3.13645 0.90795,4.87877 l 1.24282,1.8309 h -1.24282 c -1.0258,0 -1.24333,0.24676 -1.24333,1.40973 0,0.77498 0.28344,1.70911 0.62942,2.07584 0.50324,0.53345 0.50324,0.71312 0,0.89762 -0.34598,0.12686 -0.62942,0.67478 -0.62942,1.21802 0,0.68715 0.72754,1.32538 2.39055,2.09703 1.92048,0.8911 2.35977,1.32612 2.23345,2.21381 -0.12894,0.90652 -0.53596,1.13208 -2.26497,1.25781 -1.8928,0.1377 -2.12323,0.2977 -2.26912,1.56993 -0.22091,1.92701 1.12901,3.86746 2.69028,3.86746 1.4125,0 1.6034,-0.58664 0.49144,-1.50947 -1.20582,-1.00075 -0.89449,-1.39043 1.27486,-1.59731 1.59153,-0.15179 2.25039,0.0425 3.05563,0.89968 0.72222,0.76877 0.83989,1.15499 0.39635,1.30277 -1.11743,0.37249 -0.0607,1.99727 1.18391,1.82056 1.80377,-0.25612 1.75174,-2.39025 -0.10128,-4.16564 -1.51451,-1.45098 -2.14626,-3.64986 -0.90331,-3.14451 5.139,2.08941 16.34625,7.07445 16.70854,7.4321 0.29994,0.29603 0.14496,0.47181 -0.41496,0.47181 -1.49259,0 -0.74842,1.73902 0.82166,1.92029 1.271,0.14664 1.37924,0.0211 1.37924,-1.59887 h -5.3e-4 c 0,-2.62528 -2.09524,-4.00764 -13.06484,-8.62427 -6.01019,-2.52946 -9.56925,-4.29297 -9.57305,-4.74235 -0.004,-0.39338 -0.39289,-1.14029 -0.86404,-1.66088 -0.8217,-0.90802 -0.80604,-0.92646 0.37776,-0.46302 0.67871,0.26572 2.25243,0.95251 3.49798,1.52549 2.92592,1.3461 3.52278,1.32317 3.52278,-0.12868 0,-0.83869 -0.61533,-1.59854 -2.07997,-2.5678 -2.51695,-1.66562 -6.47506,-5.25586 -6.47506,-5.87354 0,-0.24553 1.37867,0.24923 3.06337,1.09967 3.42997,1.73136 5.16205,1.7872 5.39244,0.17312 0.17157,-1.20259 -2.128,-4.22145 -3.21582,-4.22145 z m 5.86734,3.09283 c -0.1492,-0.0149 -0.31938,0.0432 -0.51367,0.1633 -0.36974,0.22854 -0.51499,1.94654 -0.42064,4.96404 0.1322,4.23045 0.22696,4.61367 1.1498,4.61367 0.70869,0 0.91437,-0.15702 0.9033,-2.02882 -0.004,-0.62393 -0.0316,-1.43754 -0.0729,-2.50062 -0.14402,-3.71088 -0.39942,-5.14699 -1.04593,-5.21157 z m -9.79475,21.09226 c -1.0735,0.009 -2.03594,0.26439 -2.53473,0.76326 -0.92709,0.92707 -1.03363,3.34914 -0.21498,4.87877 0.4317,0.80668 0.4317,1.12312 0,1.26711 -0.81015,0.27006 -0.71554,2.20057 0.17002,3.4649 0.65866,0.94037 0.65866,1.13696 0,1.68362 -1.10217,0.91471 -0.93417,4.14592 0.29714,5.71128 1.34555,1.71063 3.42415,1.7368 5.40742,0.0682 1.80745,-1.52087 2.10426,-1.55648 2.10426,-0.25166 0,0.55914 -0.33509,1.00665 -0.75447,1.00665 -1.13805,0 -0.9072,1.89652 0.27647,2.27222 1.44627,0.45901 2.49132,-0.59756 2.49132,-2.51768 v -5.2e-4 c 0,-3.68481 -4.03176,-5.77535 -5.83375,-3.02513 -0.96393,1.47108 -1.99746,1.61785 -2.63602,0.3762 -0.64358,-1.25132 -0.20449,-2.07469 0.94516,-1.77405 0.80166,0.20965 0.98237,-0.004 0.98237,-1.15394 0,-0.77559 -0.49799,-1.94086 -1.10691,-2.58899 -0.99327,-1.0573 -0.71213,-0.99621 2.73472,0.59635 2.11309,0.97631 4.06472,1.77612 4.3372,1.77612 0.29037,0 0.4586,-1.61778 0.40514,-3.90674 -0.10156,-4.35614 -1.16192,-6.52912 -3.86849,-7.92872 -0.94339,-0.48784 -2.12837,-0.72588 -3.20187,-0.71726 z m 0.0992,2.49597 c 0.93078,-0.0306 2.18912,0.47243 3.41891,1.70222 1.07164,1.07166 1.72073,2.39418 1.7601,3.37757 0.002,0.0559 0.002,0.11024 5.3e-4,0.16382 -0.0124,0.37498 -0.12141,0.69128 -0.34158,0.91157 -0.50561,0.50559 -3.93484,-1.1337 -5.11804,-2.44688 -1.91337,-2.12353 -1.27121,-3.65729 0.28009,-3.7083 z"
       id="path5356"
       inkscape:connector-curvature="0" />
    <path
       style="opacity:1;fill:#000000;fill-opacity:1;stroke:#000000;stroke-width:0.11160714;stroke-linecap:round;stroke-linejoin:round;stroke-miterlimit:4;stroke-dasharray:none;stroke-opacity:1;paint-order:stroke fill markers"
       d=""
       id="path4498"
       inkscape:connector-curvature="0"
       transform="scale(0.26458333)" />
    <path
       style="opacity:1;fill:#000000;fill-opacity:1;stroke:#000000;stroke-width:0.11160714;stroke-linecap:round;stroke-linejoin:round;stroke-miterlimit:4;stroke-dasharray:none;stroke-opacity:1;paint-order:stroke fill markers"
       d=""
       id="path4502"
       inkscape:connector-curvature="0"
       transform="scale(0.26458333)" />
    <path
       style="opacity:1;fill:#000000;fill-opacity:1;stroke:#000000;stroke-width:0.0390625;stroke-linecap:round;stroke-linejoin:round;stroke-miterlimit:4;stroke-dasharray:none;stroke-opacity:1;paint-order:stroke fill markers"
       d=""
       id="path4506"
       inkscape:connector-curvature="0"
       transform="scale(0.26458333)" />
    <path
       style="opacity:1;fill:#000000;fill-opacity:1;stroke:#000000;stroke-width:0.0390625;stroke-linecap:round;stroke-linejoin:round;stroke-miterlimit:4;stroke-dasharray:none;stroke-opacity:1;paint-order:stroke fill markers"
       d=""
       id="path4508"
       inkscape:connector-curvature="0"
       transform="scale(0.26458333)" />
  </g>
</svg>
