<?xml version="1.0" encoding="UTF-8" standalone="no"?>
<!-- Created with Inkscape (http://www.inkscape.org/) -->

<svg
   xmlns:dc="http://purl.org/dc/elements/1.1/"
   xmlns:cc="http://creativecommons.org/ns#"
   xmlns:rdf="http://www.w3.org/1999/02/22-rdf-syntax-ns#"
   xmlns:svg="http://www.w3.org/2000/svg"
   xmlns="http://www.w3.org/2000/svg"
   xmlns:sodipodi="http://sodipodi.sourceforge.net/DTD/sodipodi-0.dtd"
   xmlns:inkscape="http://www.inkscape.org/namespaces/inkscape"
   width="210mm"
   height="297mm"
   viewBox="0 0 210 297"
   version="1.1"
   id="svg5712"
   inkscape:version="0.92.1 r15371"
   sodipodi:docname="mellenu-pukas.svg">
  <defs
     id="defs5706" />
  <sodipodi:namedview
     id="base"
     pagecolor="#ffffff"
     bordercolor="#666666"
     borderopacity="1.0"
     inkscape:pageopacity="0.0"
     inkscape:pageshadow="2"
     inkscape:zoom="0.35"
     inkscape:cx="-70"
     inkscape:cy="674.28571"
     inkscape:document-units="mm"
     inkscape:current-layer="layer1"
     showgrid="false"
     showborder="false"
     inkscape:window-width="1920"
     inkscape:window-height="1001"
     inkscape:window-x="-9"
     inkscape:window-y="-9"
     inkscape:window-maximized="1" />
  <metadata
     id="metadata5709">
    <rdf:RDF>
      <cc:Work
         rdf:about="">
        <dc:format>image/svg+xml</dc:format>
        <dc:type
           rdf:resource="http://purl.org/dc/dcmitype/StillImage" />
        <dc:title></dc:title>
      </cc:Work>
    </rdf:RDF>
  </metadata>
  <g
     inkscape:label="Layer 1"
     inkscape:groupmode="layer"
     id="layer1">
    <path
       style="opacity:0.43000004;fill:#d35f5f;fill-opacity:1;stroke:none;stroke-width:1.79853702;stroke-linecap:round;stroke-linejoin:round;stroke-miterlimit:4;stroke-dasharray:none;stroke-opacity:0;paint-order:stroke fill markers"
       d="M 2.0805661,89.061123 V 192.04605 H 23.011071 v 8.99997 H 187.01141 v -8.99997 H 208.0742 V 89.061123 Z"
       id="rect4588"
       inkscape:connector-curvature="0" />
    <path
       style="fill:#000000;stroke-width:0.55981773"
       d="m 30.062045,120.9459 c -1.42185,-0.0216 -3.000841,0.35781 -4.649121,1.15571 -6.808,3.29571 -10.42859,14.75926 -6.93867,21.96848 1.28236,2.64899 3.69281,4.85248 5.30951,4.85248 1.43052,0 1.04857,-0.96327 -1.31752,-3.32939 -2.57812,-2.57811 -3.65075,-5.81836 -3.19819,-9.65246 0.94543,-8.00945 7.6422,-14.73739 11.895041,-11.95082 3.527459,2.31129 3.102988,5.50102 -2.57057,19.34324 -5.078541,12.39048 -5.058291,12.3082 -3.001371,12.30396 1.49738,-0.002 2.0895,-0.82636 8.84775,-12.30833 7.374631,-12.52923 10.377061,-16.47782 11.59764,-15.25722 0.759021,0.75903 -0.014,3.05344 -5.765469,17.11271 -2.119051,5.17975 -3.709231,9.65129 -3.53277,9.93676 0.176448,0.28548 0.91045,0.51936 1.630259,0.51936 1.097029,0 2.412461,-1.78856 8.138121,-11.0564 6.86327,-11.10919 9.104299,-14.13539 10.46489,-14.13539 1.32779,0 0.78618,1.84329 -3.456221,11.75726 -4.066651,9.50357 -4.581001,11.24614 -3.86624,13.1087 0.221139,0.57638 1.030219,0.88565 2.317991,0.88565 1.51651,0 2.38138,-0.43177 3.704418,-1.84784 l 1.726481,-1.84782 0.853929,1.70788 c 0.719471,1.43881 1.223232,1.73477 3.201461,1.87845 2.881159,0.20946 5.769844,-1.14815 5.769844,-2.71162 0,-1.06163 -0.0927,-1.074 -2.02717,-0.26571 -2.821024,1.17873 -4.130834,1.09252 -4.130834,-0.27225 0,-0.78425 0.37731,-1.12428 1.259589,-1.13275 2.256425,-0.0221 5.991495,-2.08573 6.581145,-3.63663 1.25107,-3.29061 -1.81167,-4.68162 -5.967753,-2.70943 -2.174071,1.03166 -4.64982,3.95549 -4.716899,5.57194 -0.0245,0.59101 -0.169471,0.75505 -0.325832,0.36737 -0.454599,-1.12667 -1.411449,-0.81995 -3.37311,1.08137 -1.010719,0.97962 -1.985539,1.63361 -2.166019,1.45312 -0.180501,-0.18048 1.579869,-4.78477 3.911068,-10.23088 4.538242,-10.60226 5.202441,-13.72113 3.155532,-14.81659 -3.110301,-1.66458 -6.2831,0.89557 -11.30242,9.12109 -1.910962,3.13165 -3.677341,5.92602 -3.925282,6.20939 -0.247928,0.28339 0.668591,-2.23173 2.03699,-5.58942 3.954301,-9.70263 3.946792,-13.11964 -0.0295,-13.11964 -2.765682,0 -5.11297,2.4063 -9.555171,9.79681 -2.03576,3.3869 -3.51487,5.65418 -3.286739,5.03836 3.20021,-8.6386 3.730138,-12.6803 2.091669,-15.94716 -1.087879,-2.16898 -3.02069,-3.31654 -5.390441,-3.35234 z m 55.894303,5.58287 c -0.78061,0 -2.03908,0.40698 -2.798,0.90423 -1.54142,1.00998 -1.8692,3.0145 -0.49312,3.0145 0.48752,0 0.80132,0.2238 0.69869,0.4975 -0.10256,0.27367 -2.06661,5.06832 -4.36483,10.65511 -3.60394,8.76081 -4.40548,10.27086 -5.82888,10.98096 -0.90775,0.45284 -1.71333,0.75947 -1.79097,0.68118 -0.0776,-0.0783 2.1044,-5.499 4.84918,-12.04592 2.74474,-6.54691 4.99026,-12.52997 4.99026,-13.29567 0,-1.15005 -0.26885,-1.38813 -1.54059,-1.3733 -1.81713,0.0221 -4.05869,1.72076 -4.05869,3.07571 0,0.67513 0.3246,0.86985 1.10434,0.66587 1.06122,-0.2775 1.07124,-0.20968 0.24382,1.75491 -6.26071,14.8642 -8.6247,21.01393 -8.6247,22.44082 0,1.50091 0.19338,1.71444 1.55481,1.71444 0.85518,0 2.11574,-0.39378 2.80237,-0.87472 1.13177,-0.79272 1.28015,-0.79272 1.58433,0 0.46216,1.20433 2.81025,1.09697 4.6502,-0.21321 1.51369,-1.07783 1.53724,-1.07783 2.46014,0 1.15935,1.35397 4.238,1.43572 6.87638,0.1837 2.37888,-1.12887 2.65349,-2.77606 0.36517,-2.19225 -2.60459,0.66435 -4.78029,0.61129 -5.03181,-0.12247 -0.13181,-0.3847 0.0969,-0.79735 0.50735,-0.91626 0.41047,-0.1189 1.76207,-0.48986 3.00464,-0.82551 2.94999,-0.79685 4.73879,-2.50215 4.73879,-4.5179 0,-1.69165 -0.81051,-2.27755 -3.15226,-2.27755 -2.83782,0 -7.03397,3.40784 -7.80575,6.34059 -0.17604,0.66905 -1.13163,1.60073 -2.12446,2.0698 l -1.8052,0.85284 5.19143,-12.32911 c 2.85568,-6.78101 5.19932,-12.89593 5.20565,-13.5887 0.011,-0.97824 -0.30609,-1.25959 -1.40829,-1.25959 z m 85.189612,0 c -2.9204,0 -4.4578,2.33065 -9.59343,14.5334 -2.8138,6.68581 -4.77573,10.64542 -5.27563,10.64964 -0.4376,0.004 -1.26873,0.437 -1.84784,0.96111 -1.01009,0.91409 -1.03052,0.89701 -0.51497,-0.41987 0.29559,-0.75501 1.05956,-2.50582 1.69695,-3.89139 1.49742,-3.25483 1.47181,-3.91872 -0.14324,-3.91872 -0.93296,0 -1.77774,0.68433 -2.85596,2.31362 -1.85286,2.79988 -5.84699,7.20328 -6.53411,7.20328 -0.27312,0 0.27747,-1.53403 1.22351,-3.40811 1.92599,-3.81554 1.98786,-5.74208 0.19234,-5.99837 -1.33777,-0.19085 -4.69615,2.36749 -4.69615,3.5776 0,0.97795 1.20719,1.02832 2.18789,0.0907 0.40254,-0.38486 0.0747,0.61447 -0.72821,2.22068 -1.44774,2.89654 -1.80506,4.66456 -1.08683,5.38279 v 0.001 c 0.805,0.80501 3.48944,0.30498 5.42762,-1.01029 l 2.03698,-1.38206 v 1.38206 c 0,1.14111 0.27423,1.38313 1.56793,1.38313 0.8621,0 1.9013,-0.3149 2.30926,-0.69977 0.59341,-0.55981 0.79302,-0.55981 0.99826,0 0.14112,0.38487 0.75041,0.69977 1.35471,0.69977 0.7644,0 1.47493,-0.80916 2.33332,-2.65912 0.99127,-2.13637 1.47482,-2.6247 2.4623,-2.48419 1.00842,0.14344 1.2597,0.5958 1.39956,2.51917 0.15318,2.10558 0.33089,2.36235 1.74614,2.52464 2.14363,0.24574 4.30251,-1.25582 4.30251,-2.9926 0,-1.57128 -0.65287,-1.78367 -1.67945,-0.54671 -1.11323,1.34137 -1.54662,0.99507 -1.77676,-1.41814 -0.16885,-1.77045 0.047,-2.5036 1.00046,-3.39936 0.85518,-0.80341 1.28544,-0.93402 1.44984,-0.44062 0.41437,1.24305 2.22153,0.067 2.02494,-1.31755 -0.2849,-2.00654 -2.65882,-1.9487 -4.63379,0.11263 -1.61409,1.68476 -4.05992,2.38751 -3.49776,1.00483 2.32429,-5.7167 7.86928,-18.18359 8.26714,-18.58661 0.3293,-0.33366 0.52484,-0.16144 0.52484,0.46142 0,1.66038 1.93485,0.8325 2.1365,-0.91409 0.16312,-1.41389 0.0231,-1.53402 -1.77897,-1.53402 z m -152.890386,8.92318 h 9.52e-4 c 0.0325,-1.5e-4 0.0693,0.14918 0.10827,0.46361 0.1246,1.00619 0.12122,2.51771 -0.007,3.3589 -0.12773,0.84122 -0.229499,0.019 -0.22633,-1.82924 0.002,-1.27011 0.0519,-1.99289 0.12356,-1.99327 z m 0.0153,0.12466 c -0.0212,-0.0221 -0.0524,0.11255 -0.07,0.29958 -0.0414,0.43943 -0.0414,2.83819 0,3.27691 0.0176,0.18555 0.0485,0.33676 0.0688,0.33676 0.0716,0 0.10004,-0.33488 0.1301,-1.50342 0.0293,-1.13691 -0.0335,-2.31038 -0.12901,-2.40983 z m 120.049246,2.70833 c -0.9573,0 -2.70158,2.08111 -4.16911,4.97713 -0.7739,1.52724 -1.91562,2.93844 -2.53776,3.13585 -1.27787,0.40559 -1.5521,1.96374 -0.34552,1.96374 0.70328,0 -0.36266,3.2829 -3.4092,10.49658 -0.1625,0.38487 -0.86661,0.69978 -1.56575,0.69978 -1.50093,0 -2.78041,1.33625 -2.35079,2.45577 0.22718,0.59201 1.33118,0.76876 4.39547,0.70632 3.41121,-0.0696 4.12143,-0.24583 4.27842,-1.06278 0.13986,-0.728 -0.18259,-0.97969 -1.25302,-0.97969 -1.68591,0 -1.75855,-0.41444 -0.52702,-2.99699 0.84484,-1.77151 1.06808,-1.8942 2.98716,-1.63681 3.86392,0.51827 7.68141,-2.7292 8.23873,-7.00865 0.33888,-2.60196 -1.2929,-4.59225 -3.76457,-4.59225 -1.93368,0 -2.0902,-0.81463 -0.53795,-2.79909 1.17077,-1.49673 1.48225,-3.35891 0.56091,-3.35891 z m 16.49713,2.07417 c -0.69407,0.004 -1.599,0.035 -2.78159,0.0809 -5.08066,0.19719 -6.32803,0.58257 -5.61567,1.73522 0.25423,0.4113 2.16491,0.57292 5.52163,0.46797 4.70601,-0.14706 5.13239,-0.25269 5.13239,-1.27927 0,-0.78836 -0.17455,-1.01714 -2.25676,-1.00483 z m -57.388952,4.08383 c -1.58234,0 -5.01432,2.55346 -5.01432,3.73176 0,0.62895 0.38813,0.80258 1.3722,0.61447 l 1.37441,-0.2624 -0.86162,2.01621 c -1.43125,3.35067 -1.88499,4.5834 -1.88499,5.1324 0,0.28785 0.48863,0.52373 1.08463,0.52373 0.66757,0 2.3633,-1.56603 4.41625,-4.07836 3.172352,-3.88233 5.136742,-5.90757 5.136742,-5.2953 0,0.15445 -0.64747,1.69581 -1.43891,3.4245 -1.753702,3.83068 -1.647462,5.60278 0.34992,5.83545 1.74863,0.20375 4.44789,-1.79005 4.44789,-3.28566 0,-1.21211 -1.10927,-1.42519 -2.12663,-0.40783 -0.99076,0.99077 -0.82126,0.13436 0.48,-2.4164 2.57084,-5.03928 -0.22373,-7.37991 -4.35498,-3.64756 l -2.161662,1.9517 0.22306,-1.91781 c 0.19677,-1.6862 0.0724,-1.9189 -1.04199,-1.9189 z m 15.051652,0 c -1.49077,0 -4.95091,2.56306 -4.95091,3.66724 0,0.44616 0.48224,0.8113 1.07155,0.8113 1.0424,0 1.04033,0.0753 -0.0963,2.76519 -0.96943,2.29459 -1.04565,2.91379 -0.44392,3.63881 1.08374,1.30584 3.64457,1.05572 5.54241,-0.54122 l 1.68164,-1.41486 0.18154,1.2749 c 0.38289,2.69844 6.0585,0.97046 6.0585,-1.84456 0,-1.33256 -0.97193,-1.38576 -2.36065,-0.12902 -0.82017,0.74224 -0.67746,0.11806 0.65494,-2.85157 1.99193,-4.43962 2.09993,-5.37622 0.61886,-5.37622 -0.66091,0 -2.06473,1.26169 -3.58086,3.21896 -4.90432,6.3313 -7.92457,8.08365 -4.58352,2.65913 0.75857,-1.23159 1.38569,-3.058 1.39627,-4.05869 0.0148,-1.49538 -0.19783,-1.8194 -1.18962,-1.8194 z m 77.62989,0 c -4.09905,0 -6.42484,4.48471 -3.36547,6.48928 1.63648,1.07228 1.8,2.22212 0.41877,2.93248 -1.39198,0.71593 -2.30801,0.22705 -1.97357,-1.05184 0.23322,-0.89178 -0.004,-1.0923 -1.28365,-1.0923 -0.86278,0 -2.15899,0.5538 -2.87998,1.23117 -1.17616,1.10493 -1.10791,0.79251 0.66367,-3.04182 1.08607,-2.35063 1.97577,-4.52205 1.97577,-4.82516 0,-0.32301 -1.79996,-0.50993 -4.34624,-0.45047 -4.84583,0.11299 -7.26239,1.29277 -8.81933,4.3036 -1.08537,2.09887 -1.05952,5.27131 0.0504,6.38104 1.03129,1.03131 3.72603,1.15014 5.42761,0.23946 0.89736,-0.48023 1.24923,-0.48023 1.4094,0 0.30043,0.90122 2.44776,0.79594 3.85422,-0.18916 1.04608,-0.73271 1.26488,-0.73271 1.87298,0 1.01754,1.22608 4.61239,1.03953 6.35372,-0.33019 1.90293,-1.49682 1.93177,-3.80965 0.0756,-6.01586 -1.69184,-2.01064 -1.73139,-2.34095 -0.2799,-2.34095 0.622,0 1.11962,0.3732 1.11962,0.83972 0,1.26599 2.11001,1.00949 2.52794,-0.30725 0.51061,-1.60884 -0.66531,-2.77175 -2.80129,-2.77175 z m -22.76337,1.11964 c 0.15404,0 -0.3134,0.62979 -1.03654,1.39954 -0.72314,0.76976 -1.44014,1.39954 -1.59418,1.39954 -0.15403,0 0.3123,-0.62978 1.03546,-1.39954 0.72313,-0.76975 1.44123,-1.39954 1.59526,-1.39954 z m -0.002,0.009 c -0.0617,0 -0.43526,0.29516 -0.82879,0.65386 -0.71755,0.65406 -1.80193,1.90665 -1.80193,2.08182 0,0.13711 0.46293,-0.24872 1.2596,-1.05075 0.41379,-0.41657 0.85465,-0.88798 0.97969,-1.04748 0.25022,-0.31916 0.44529,-0.63745 0.39143,-0.63745 z m -65.13348,0.27117 -1.92877,2.09931 c -2.199802,2.39372 -2.073672,2.3257 -2.606642,1.39955 -0.22156,-0.38495 -0.18894,-0.50639 0.0711,-0.27007 0.26003,0.23635 1.37098,-0.39346 2.468872,-1.39955 z m -0.0373,0.0383 -0.002,0.001 c -5.3e-4,-5.3e-4 -0.16779,0.15213 -0.37177,0.33895 l -0.37064,0.34004 0.0217,0.011 0.0221,0.011 0.009,0.022 c 0.004,0.011 0.009,0.0187 0.011,0.0187 0.002,-0.001 0.68231,-0.74129 0.68119,-0.74241 z m 34.9077,0.59153 c 0.95502,0.0586 2.35736,0.9671 2.35736,1.63791 0,1.0767 -2.02614,4.87619 -2.8297,5.30624 -1.3063,0.69914 -1.78826,0.66083 -2.54103,-0.20118 -0.88179,-1.00966 1.21224,-6.3397 2.63725,-6.71236 0.11276,-0.0293 0.23969,-0.0389 0.37612,-0.0306 z m 41.04712,0.15526 c 0.49726,-0.019 0.91611,0.0995 1.19618,0.37941 0.56242,0.56245 -1.26066,4.3771 -2.72147,5.69331 -3.7796,3.40554 -5.87969,-0.46637 -2.2316,-4.11445 1.19212,-1.19211 2.66296,-1.91447 3.75689,-1.95827 z m -115.384793,0.0547 c 0.0021,0.002 -0.004,0.0131 -0.004,0.0153 -0.01,-0.0395 -0.303598,0.1661 -0.769749,0.54015 -0.321961,0.2583 -0.6956,0.61087 -0.818949,0.77193 -0.057,0.0745 -0.0693,0.10026 -0.0743,0.1498 -0.003,0.0276 0.003,0.0513 0.008,0.0754 -0.007,-0.0273 -0.01971,-0.0464 -0.01971,-0.0853 0,-0.11616 0.440859,-0.55711 0.979688,-0.97969 0.44395,-0.34816 0.670862,-0.51655 0.69977,-0.48765 z m -0.005,0.0219 c -0.004,0.0584 -0.165748,0.27413 -0.48328,0.67899 -0.263858,0.33645 -0.476078,0.55867 -0.6604,0.72384 0.22819,-0.20714 0.51762,-0.54115 0.898771,-1.04419 0.143251,-0.18895 0.2413,-0.33335 0.244909,-0.35864 z m 25.624801,0.0242 c 0.21526,-0.0148 0.38817,0.024 0.49421,0.13013 0.19657,0.19656 0.0548,0.72234 -0.31489,1.16775 -0.36964,0.4454 -1.41485,1.06858 -2.32348,1.38532 -1.54857,0.53984 -1.61483,0.5054 -1.05293,-0.5445 0.53579,-1.00111 2.26429,-2.07457 3.19709,-2.1387 z m -22.29103,0.0306 c 0.37401,0.0365 0.49286,0.31373 0.13668,0.88238 -0.23361,0.37293 -1.42412,1.08656 -2.644919,1.58542 l -2.21959,0.90643 1.74615,-1.78006 c 1.025948,-1.04641 2.358309,-1.65494 2.981689,-1.59417 z m 35.223692,0.004 c -0.0127,-0.0127 -0.34689,0.27206 -0.7435,0.63199 -1.530162,1.38857 -2.518652,1.96415 -2.853772,1.66086 -0.0504,-0.0457 -0.1052,-0.0696 -0.12145,-0.0536 -0.047,0.047 0.33268,0.73215 0.46251,0.83427 0.16862,0.13265 0.28199,0.0836 0.68227,-0.29303 0.4412,-0.41513 2.603412,-2.75088 2.573852,-2.7805 z m -39.811853,1.44003 v 0.001 c -0.0607,0.0472 -0.115969,0.0841 -0.1662,0.11153 0.05,-0.0256 0.106082,-0.0654 0.1662,-0.11262 z m -0.39253,0.0677 c 0.01,0.0248 0.0205,0.048 0.0383,0.0624 -0.01781,-0.0122 -0.0278,-0.0377 -0.0383,-0.0624 z m 0.0405,0.0635 c 0.0195,0.0144 0.0384,0.0208 0.0612,0.0208 -0.02429,-5.3e-4 -0.0433,-0.009 -0.0612,-0.0208 z m -31.288379,0.0282 c 0.32767,0 0.272679,0.35571 -0.129029,0.83973 -0.383302,0.46185 -0.783421,0.83973 -0.890022,0.83973 -0.106619,0 -0.0493,-0.37788 0.127921,-0.83973 0.177221,-0.46185 0.578451,-0.83973 0.891109,-0.83973 z m 0.0294,0.035 c -0.0399,-2.6e-4 -0.0874,0.003 -0.133381,0.0121 -0.369031,0.0692 -0.842928,0.758 -0.909709,1.32192 -0.02371,0.19996 -0.01561,0.25696 0.0383,0.25696 0.0937,0 0.81647,-0.75317 0.998259,-1.03983 0.14791,-0.2332 0.19018,-0.47674 0.0929,-0.53685 -0.01461,-0.01 -0.0466,-0.014 -0.0864,-0.0142 z m 157.477182,0.77959 0.93266,0.82223 c 0.0502,0.044 0.0813,0.0755 0.13013,0.1192 -0.12061,-0.10849 -0.1697,-0.15174 -0.6626,-0.58607 l -0.3991,-0.35316 z m -0.13351,0.002 h 0.069 c -0.0354,0 -0.0635,-3e-5 -0.0635,0.001 0,0.002 0.828,0.9414 0.99497,1.12948 -0.044,-0.0495 -0.0708,-0.0757 -0.117,-0.12793 z m -146.250313,0.3805 c 0.0564,-0.007 0.19153,0.0464 0.39143,0.16182 0.5602,0.32319 0.576131,0.60073 0.0711,1.20929 -0.360543,0.43445 -0.78082,0.79052 -0.934852,0.79052 -0.153959,0 2.64e-4,-0.33795 0.343331,-0.75116 0.34276,-0.41319 0.43706,-0.95844 0.20883,-1.21038 -0.114131,-0.1259 -0.13634,-0.19311 -0.0798,-0.2001 z m 0.0569,0.0306 c -0.0451,0.001 -0.0306,0.053 0.0437,0.15745 0.217451,0.30539 0.127482,0.79008 -0.23509,1.26505 -0.233788,0.3063 -0.372621,0.53342 -0.372848,0.61229 h 0.0011 c -1.11e-4,0.0345 0.025,0.0624 0.0569,0.0624 0.0957,0 0.57304,-0.39195 0.776311,-0.63745 0.60629,-0.73227 0.614238,-0.95099 0.0437,-1.3077 -0.16383,-0.10245 -0.26861,-0.15304 -0.313791,-0.15199 z M 150.95121,150.861 c 0.37931,0.019 0.80367,0.23089 0.80367,0.52046 0,0.0844 -0.36629,0.15308 -0.81458,0.15308 -0.44835,0 -0.68322,-0.21402 -0.52156,-0.47563 0.0935,-0.15129 0.3049,-0.20823 0.53247,-0.1968 z m 0.0148,0.0284 c -0.24795,-0.011 -0.47588,0.0589 -0.54124,0.21432 -0.0785,0.18683 -0.0258,0.27816 0.21434,0.36847 0.095,0.0359 0.22952,0.0452 0.48216,0.0327 0.61835,-0.0308 0.72181,-0.10201 0.50514,-0.3488 -0.14429,-0.1644 -0.41242,-0.2561 -0.6604,-0.26679 z m 38.84722,0.63417 c 0.002,0.004 0.011,0.0136 0.011,0.0155 0,0.004 -0.004,0.005 -0.004,0.011 -0.001,-0.0131 -0.003,-0.0197 -0.007,-0.0262 z m -7.26775,1.31747 c 0.0288,0.0288 -0.14051,0.2558 -0.48877,0.69978 -0.25569,0.32604 -0.46167,0.54103 -0.64181,0.70414 0.1955,-0.18381 0.43779,-0.45668 0.71946,-0.81786 0.26385,-0.33837 0.39908,-0.5291 0.39908,-0.5609 0,-0.0406 -0.1075,0.029 -0.42422,0.27225 -0.55765,0.42812 -0.99417,0.81979 -1.16121,1.04199 -0.0345,0.0458 -0.0536,0.0708 -0.0635,0.094 0.0482,-0.14451 0.45446,-0.54843 0.96111,-0.94579 0.44396,-0.34816 0.67087,-0.51654 0.69977,-0.48764 z m -1.66525,1.44109 c -0.009,0.0238 -0.007,0.0453 -0.002,0.0798 -0.002,-0.0199 -0.0127,-0.0288 -0.0127,-0.0536 0,-0.007 0.0127,-0.019 0.0148,-0.0262 z m -0.001,0.0864 c 0.0127,0.0786 0.0358,0.11495 0.0863,0.13448 -0.0492,-0.01 -0.0745,-0.0609 -0.0863,-0.13448 z m 0.10706,0.13558 c 0.009,0.001 0.0148,0.001 0.0242,0.001 -0.009,0.001 -0.0169,-0.001 -0.0242,-0.001 z m -82.353452,2.25568 c -1.27922,0 -1.73959,1.04892 -1.73959,3.96464 0,2.71377 0.91099,2.82868 1.98778,0.25149 1.135962,-2.71873 1.04802,-4.21613 -0.24819,-4.21613 z"
       id="path5356"
       inkscape:connector-curvature="0" />
  </g>
</svg>
