<?xml version="1.0" encoding="UTF-8" standalone="no"?>
<!-- Created with Inkscape (http://www.inkscape.org/) -->

<svg
   xmlns:dc="http://purl.org/dc/elements/1.1/"
   xmlns:cc="http://creativecommons.org/ns#"
   xmlns:rdf="http://www.w3.org/1999/02/22-rdf-syntax-ns#"
   xmlns:svg="http://www.w3.org/2000/svg"
   xmlns="http://www.w3.org/2000/svg"
   xmlns:sodipodi="http://sodipodi.sourceforge.net/DTD/sodipodi-0.dtd"
   xmlns:inkscape="http://www.inkscape.org/namespaces/inkscape"
   width="210mm"
   height="297mm"
   viewBox="0 0 210 297"
   version="1.1"
   id="svg5926"
   inkscape:version="0.92.1 r15371"
   sodipodi:docname="sweet-dreams.svg">
  <defs
     id="defs5920" />
  <sodipodi:namedview
     id="base"
     pagecolor="#ffffff"
     bordercolor="#666666"
     borderopacity="1.0"
     inkscape:pageopacity="0.0"
     inkscape:pageshadow="2"
     inkscape:zoom="0.7"
     inkscape:cx="-1466.2962"
     inkscape:cy="-1098.6566"
     inkscape:document-units="mm"
     inkscape:current-layer="layer1"
     showgrid="false"
     inkscape:window-width="2560"
     inkscape:window-height="1361"
     inkscape:window-x="2391"
     inkscape:window-y="-9"
     inkscape:window-maximized="1"
     showborder="false" />
  <metadata
     id="metadata5923">
    <rdf:RDF>
      <cc:Work
         rdf:about="">
        <dc:format>image/svg+xml</dc:format>
        <dc:type
           rdf:resource="http://purl.org/dc/dcmitype/StillImage" />
        <dc:title />
      </cc:Work>
    </rdf:RDF>
  </metadata>
  <g
     inkscape:label="Layer 1"
     inkscape:groupmode="layer"
     id="layer1">
    <g
       id="g4570"
       transform="rotate(90,-598.11776,567.43511)">
      <path
         inkscape:connector-curvature="0"
         id="rect4588"
         d="m -687.80272,500.65856 v 124.55313 h 7.6848 v 8.99996 h 164.00032 v -8.99996 h 7.6848 V 500.65856 Z"
         style="opacity:0.43000004;fill:#d35f5f;fill-opacity:1;stroke:none;stroke-width:1.84568918;stroke-linecap:round;stroke-linejoin:round;stroke-miterlimit:4;stroke-dasharray:none;stroke-opacity:0;paint-order:stroke fill markers" />
      <path
         inkscape:connector-curvature="0"
         id="path4533"
         d="m -632.62287,511.60439 -0.93742,2.19522 c -0.29583,0.69321 -0.51485,1.11006 -0.71726,1.34774 -0.20243,0.23767 -0.37319,0.31869 -0.69712,0.38084 -0.47805,0.0917 -1.29223,0.24934 -1.81023,0.34986 l -1.39888,0.2713 1.60767,1.63865 c 0.63931,0.65143 0.92979,0.96297 1.03714,1.26349 0.10734,0.30051 0.0702,0.68625 -0.0351,1.52963 -0.0591,0.47292 -0.091,0.90146 -0.0941,1.22267 -0.003,0.1606 0.003,0.29228 0.0196,0.40203 0.008,0.0549 0.0151,0.10301 0.0408,0.16227 0.013,0.0296 0.0317,0.0643 0.0708,0.10335 0.0391,0.039 0.11419,0.0822 0.19481,0.0822 0.0837,0 0.10766,-0.0169 0.14883,-0.031 0.0412,-0.0143 0.0845,-0.0327 0.13488,-0.0548 0.10073,-0.0442 0.22604,-0.10334 0.37103,-0.17774 0.28998,-0.14881 0.65942,-0.35272 1.04076,-0.57621 l 1.25574,-0.73639 1.55083,0.75964 2.11563,1.03714 -0.29715,-1.63658 c -0.11557,-0.63754 -0.28416,-1.46526 -0.37878,-1.8593 -0.0523,-0.21757 -0.0371,-0.36751 0.10541,-0.61548 0.14248,-0.24796 0.43164,-0.5757 0.90641,-1.02732 0.34595,-0.32909 0.65982,-0.6427 0.89038,-0.88678 0.1153,-0.12202 0.20815,-0.22503 0.27749,-0.3085 0.0347,-0.0417 0.0634,-0.0791 0.0879,-0.11525 0.0124,-0.018 0.0251,-0.0342 0.0372,-0.0584 0.0122,-0.0241 0.031,-0.0487 0.031,-0.13279 0,-0.11613 -0.0625,-0.17452 -0.0956,-0.2031 -0.0331,-0.0286 -0.0569,-0.0415 -0.0801,-0.0527 -0.0463,-0.0225 -0.0889,-0.0359 -0.14055,-0.0512 -0.10334,-0.0306 -0.23719,-0.0601 -0.4005,-0.0915 -0.3266,-0.0629 -0.76898,-0.13107 -1.25573,-0.18759 l -1.61954,-0.18756 -0.82992,-1.58597 z m 20.88555,6.38154 c -0.0571,-0.003 -0.11526,0.007 -0.16899,0.0265 v 0 c -0.21492,0.0793 -0.31726,0.26598 -0.40619,0.48834 -0.0889,0.22233 -0.16185,0.50906 -0.23045,0.87487 -0.0529,0.28186 -0.14187,0.52409 -0.23257,0.67956 -0.0907,0.15544 -0.17624,0.17981 -0.14055,0.17981 -0.16682,0 -0.36719,0.0396 -0.60359,0.0992 -0.23641,0.0596 -0.49758,0.14176 -0.73639,0.23254 l -1.27744,0.48628 1.46709,0.99634 c 0.47837,0.32525 0.70274,0.51602 0.801,0.7126 0.0982,0.19659 0.1097,0.47122 0.0682,1.01957 l -0.0233,0.30078 0.0135,-0.003 c -0.0103,0.19616 -0.0265,0.40891 -0.0156,0.55035 0.008,0.10909 0.0236,0.20625 0.0625,0.30076 0.039,0.0945 0.11798,0.19579 0.23255,0.24236 0.11456,0.0466 0.23002,0.0323 0.32607,0.003 0.0961,-0.0302 0.18423,-0.0767 0.28321,-0.13848 0.19796,-0.12351 0.43331,-0.30888 0.73432,-0.55502 0.41072,-0.33583 0.60968,-0.46897 0.80098,-0.49609 0.19129,-0.0271 0.47027,0.0459 1.03301,0.24445 0.27072,0.0955 0.48252,0.16758 0.65061,0.2165 0.16809,0.0489 0.28638,0.0821 0.42167,0.0744 0.0676,-0.004 0.15163,-0.0228 0.22635,-0.0879 0.0747,-0.0652 0.10953,-0.16504 0.11369,-0.23667 0.008,-0.14321 -0.0355,-0.23317 -0.0801,-0.34933 -0.27411,-0.71416 -0.39566,-1.19033 -0.385,-1.56061 0.0106,-0.37034 0.13973,-0.66019 0.43564,-1.06043 0.18097,-0.24476 0.34502,-0.48466 0.46662,-0.68006 0.0608,-0.0977 0.11041,-0.18396 0.14832,-0.25786 0.0188,-0.037 0.0356,-0.0704 0.0491,-0.10541 0.0135,-0.035 0.0294,-0.0621 0.0294,-0.14057 0,-0.14637 -0.0972,-0.21561 -0.14674,-0.24598 -0.0496,-0.0304 -0.0901,-0.0451 -0.13488,-0.0584 -0.0896,-0.0266 -0.19291,-0.0451 -0.31832,-0.061 -0.25085,-0.0316 -0.58375,-0.0486 -0.9493,-0.0486 -0.55216,0 -0.85587,-0.037 -1.05264,-0.13488 -0.19677,-0.0979 -0.34343,-0.27273 -0.57,-0.6563 -0.16703,-0.28273 -0.31305,-0.49453 -0.46923,-0.64439 -0.0781,-0.0749 -0.15963,-0.13727 -0.2594,-0.17571 -0.0499,-0.019 -0.10621,-0.0309 -0.1633,-0.0326 z m -44.66807,3.1197 c -0.0452,-0.004 -0.0945,0 -0.1473,0.018 -0.10567,0.0362 -0.18452,0.13658 -0.21291,0.21911 -0.0955,0.27765 -0.35142,1.23936 -0.59787,2.21638 -0.12224,0.48448 -0.24432,0.93475 -0.34161,1.26609 -0.0486,0.16568 -0.0909,0.30099 -0.12298,0.39428 -0.01,0.0289 -0.0159,0.0451 -0.0233,0.0646 -0.0276,0.0114 -0.0577,0.0225 -0.10181,0.0393 -0.11213,0.0425 -0.27194,0.10009 -0.46509,0.16795 -0.38626,0.13573 -0.90707,0.31319 -1.46862,0.49763 -0.5711,0.18759 -1.07394,0.38328 -1.43351,0.55502 -0.17979,0.0859 -0.32216,0.16311 -0.43151,0.24185 -0.0547,0.0394 -0.10097,0.0769 -0.14676,0.13899 -0.0228,0.031 -0.0479,0.0703 -0.0605,0.13076 -0.0127,0.0604 -0.004,0.14583 0.0351,0.20875 0.0385,0.0624 0.0706,0.0882 0.10957,0.12351 0.0389,0.0354 0.0845,0.0731 0.13848,0.11525 0.10803,0.0842 0.24831,0.18442 0.41444,0.29869 0.3323,0.22852 0.76653,0.50837 1.2263,0.78703 l 1.54873,0.93948 0.19535,2.2283 0.24648,2.82617 2.02107,-1.64642 c 0.44953,-0.36616 0.90208,-0.70094 1.26193,-0.93946 0.17995,-0.11927 0.33745,-0.21463 0.45527,-0.27699 0.0874,-0.0462 0.17047,-0.0659 0.17984,-0.0729 0.0146,0.003 0.0932,0.0106 0.21034,0.0372 0.12843,0.0293 0.29697,0.073 0.48835,0.12714 0.38269,0.10837 0.86341,0.25836 1.34408,0.42375 0.48961,0.16844 0.94599,0.30956 1.29297,0.40254 0.17346,0.0465 0.31877,0.0808 0.43354,0.10131 0.0574,0.0103 0.10576,0.0177 0.15608,0.0196 0.0251,0 0.0493,0 0.0842,-0.004 0.0349,-0.005 0.089,-0.007 0.1602,-0.078 0.085,-0.085 0.0751,-0.14182 0.078,-0.17775 0.003,-0.0359 0,-0.0615 -0.003,-0.0879 -0.005,-0.0529 -0.0145,-0.10707 -0.0294,-0.17155 -0.0295,-0.12899 -0.0762,-0.29512 -0.13851,-0.4961 -0.12443,-0.40198 -0.30945,-0.93588 -0.52554,-1.51 l -0.73432,-1.94921 1.15445,-1.63661 c 0.34065,-0.48302 0.65069,-0.9448 0.87696,-1.30275 0.11311,-0.17899 0.20479,-0.33118 0.27131,-0.45114 0.0332,-0.06 0.061,-0.11124 0.0821,-0.15812 0.0212,-0.0469 0.047,-0.0621 0.047,-0.17984 0,-0.10035 -0.0627,-0.18047 -0.10594,-0.21497 -0.0433,-0.0345 -0.0762,-0.0477 -0.10697,-0.0584 -0.0614,-0.0214 -0.1179,-0.0292 -0.18397,-0.0372 -0.1321,-0.0159 -0.29993,-0.0222 -0.50744,-0.0217 -0.41508,0 -0.9774,0.0299 -1.59578,0.0878 l -2.08616,0.19741 -1.31829,-1.77353 c -0.44955,-0.60497 -0.81613,-1.04243 -1.10172,-1.31207 -0.14283,-0.1348 -0.25641,-0.23209 -0.4,-0.28731 -0.0359,-0.0138 -0.0773,-0.0259 -0.12245,-0.03 z m 73.29784,1.21182 -1.19529,2.35334 -0.91207,1.79472 -1.68725,0.2346 c -0.50395,0.0699 -0.97618,0.14947 -1.33635,0.22067 -0.18008,0.0356 -0.33192,0.0686 -0.44905,0.0997 -0.0586,0.0156 -0.10772,0.0306 -0.15246,0.047 -0.0448,0.0164 -0.0764,0.01 -0.15607,0.0894 -0.0693,0.0693 -0.0802,0.15857 -0.078,0.20929 0.003,0.0507 0.0127,0.0823 0.0233,0.1111 0.0214,0.0577 0.049,0.10387 0.0822,0.15658 0.0664,0.10544 0.16045,0.22902 0.28112,0.37674 0.24136,0.29543 0.58613,0.67567 0.98237,1.07796 l 1.33221,1.3534 -0.28319,1.48828 c -0.0847,0.44683 -0.16097,0.88342 -0.21703,1.2268 -0.028,0.17168 -0.0501,0.32094 -0.0661,0.4377 -0.0161,0.11676 -0.0274,0.18555 -0.0274,0.26148 0,0.10779 -0.0175,0.25427 0.12866,0.38653 0.0731,0.0661 0.17336,0.0907 0.25218,0.092 0.0788,0 0.14782,-0.013 0.22635,-0.0351 0.31414,-0.0895 0.79198,-0.32446 1.71513,-0.77721 l 1.56425,-0.76584 1.59162,0.77928 c 0.47408,0.23249 0.92017,0.43008 1.26402,0.56068 0.17193,0.0653 0.31592,0.11443 0.43511,0.1447 0.0596,0.0151 0.11311,0.0249 0.17002,0.0289 0.0569,0.004 0.13428,0.0399 0.2558,-0.0817 0.10589,-0.10591 0.0856,-0.15816 0.092,-0.21084 0.006,-0.0527 0.007,-0.10652 0.006,-0.16796 -0.003,-0.12282 -0.0143,-0.27675 -0.0351,-0.4594 -0.0415,-0.36525 -0.11713,-0.8414 -0.21704,-1.34927 l -0.33385,-1.69756 1.34929,-1.3653 1.77147,-1.79473 -1.79266,-0.33795 c -0.73149,-0.13748 -1.63647,-0.30969 -2.00816,-0.38293 -0.14917,-0.0294 -0.35049,-0.15883 -0.59375,-0.45683 -0.24329,-0.29797 -0.52094,-0.75176 -0.83561,-1.37509 z m -37.84577,7.92768 c -0.36123,0.003 -0.72593,0.0306 -1.08984,0.0816 -2.91129,0.40871 -5.84507,2.30775 -7.03109,5.4591 -0.85498,2.27179 -0.6913,4.14293 0.57205,6.70915 0.4716,0.95797 0.92303,1.68058 1.93787,2.7931 1.01483,1.11252 2.59717,2.62718 5.36918,5.23017 2.80713,2.63602 3.93155,4.77438 3.93155,7.38302 0,2.35788 -0.60288,4.35065 -1.60972,5.73452 -1.00687,1.38393 -2.40168,2.16443 -4.05246,2.14614 -2.45497,-0.0272 -4.21103,-1.32442 -5.34956,-3.98994 -0.97549,-2.2838 -0.72927,-4.48545 0.60928,-5.91436 0.19159,-0.20453 0.33872,-0.41683 0.42786,-0.61704 0.0446,-0.10009 0.0759,-0.19756 0.0837,-0.30281 0.008,-0.10523 -0.0116,-0.24038 -0.11316,-0.34002 -0.12197,-0.11972 -0.31459,-0.12533 -0.44339,-0.0837 -0.1288,0.0416 -0.23939,0.11504 -0.35552,0.20875 -0.23228,0.18743 -0.47815,0.46395 -0.72244,0.78703 -0.48858,0.64614 -0.95719,1.45508 -1.0785,2.10169 -0.52525,2.7998 0.61664,6.28248 2.60967,7.80262 0.62116,0.47376 1.79554,1.08161 2.68769,1.40044 0.0272,0.01 0.0564,0.003 0.0837,0.0119 4.41082,1.52152 9.69373,-1.04193 11.78896,-5.71076 0.73536,-1.63843 0.83772,-2.23817 0.71313,-4.1796 -0.108,-1.68299 -0.4101,-2.98961 -1.12294,-4.25037 -0.71282,-1.26077 -1.82415,-2.46809 -3.52949,-4.00389 -4.55425,-4.10141 -5.48831,-5.14101 -6.53913,-7.27554 -0.79618,-1.61724 -1.09849,-3.1016 -0.9431,-4.36509 0.15539,-1.26349 0.75858,-2.31368 1.82623,-3.10939 0.86625,-0.64558 2.02187,-0.94747 3.09338,-0.90225 1.07151,0.0452 2.04356,0.43714 2.57243,1.10948 0.65485,0.83251 0.91329,2.15614 0.77153,3.49022 -0.14176,1.33411 -0.68159,2.66803 -1.53323,3.5197 -0.29438,0.29437 -0.51599,0.54541 -0.66974,0.75343 -0.0769,0.104 -0.13756,0.19679 -0.18188,0.28527 -0.0444,0.0885 -0.0791,0.16965 -0.0744,0.28731 0.003,0.0588 0.0204,0.13184 0.0687,0.19328 0.0485,0.0614 0.1197,0.0985 0.17984,0.11316 0.12028,0.0295 0.20854,0.005 0.30435,-0.0254 0.19166,-0.0614 0.41902,-0.1851 0.72091,-0.38293 1.03479,-0.67805 1.75035,-2.12381 2.11304,-3.73205 0.36267,-1.60827 0.36309,-3.38879 -0.16589,-4.77388 -0.82061,-2.14873 -2.68153,-3.30716 -4.78885,-3.57963 v 0 c -0.35124,-0.0454 -0.70898,-0.066 -1.07024,-0.0625 z m 18.68776,3.90983 -0.26974,2.02933 c -0.0952,0.71763 -0.16907,1.0699 -0.33176,1.30122 -0.16269,0.23135 -0.4626,0.41418 -1.09969,0.73795 l -1.81279,0.91982 1.81486,0.88109 c 0.6405,0.31118 0.93935,0.48596 1.09915,0.71107 0.15981,0.22511 0.2317,0.57716 0.32817,1.30432 l 0.2718,2.03914 1.49604,-1.4609 c 0.5544,-0.54136 0.8305,-0.78454 1.07434,-0.86299 0.24347,-0.0783 0.55446,-0.0289 1.23042,0.11525 0.38944,0.0836 0.74361,0.14351 1.00769,0.17569 0.13205,0.0161 0.23995,0.0254 0.33022,0.0254 0.0451,-8e-5 0.0831,0 0.13642,-0.0119 0.0267,-0.006 0.0585,-0.0132 0.10541,-0.0449 0.047,-0.0318 0.11732,-0.12047 0.11732,-0.2186 0,-0.091 -0.0143,-0.0982 -0.0254,-0.13073 -0.0111,-0.0325 -0.0241,-0.0666 -0.0408,-0.1075 -0.0335,-0.0819 -0.0805,-0.18619 -0.13694,-0.3085 -0.11288,-0.24461 -0.26599,-0.56198 -0.43564,-0.89451 l -0.55449,-1.08624 0.55449,-1.08572 c 0.17039,-0.33401 0.32414,-0.65842 0.4377,-0.91779 0.0568,-0.12967 0.10459,-0.2441 0.13851,-0.33642 0.0339,-0.0923 0.0625,-0.1247 0.0625,-0.25733 0,-0.13428 -0.1016,-0.22492 -0.16021,-0.25633 -0.0586,-0.0314 -0.10406,-0.0395 -0.15398,-0.0486 -0.0999,-0.0182 -0.21392,-0.0243 -0.34986,-0.0233 -0.27186,0.003 -0.62847,0.0343 -1.0232,0.0936 -0.65855,0.0988 -0.97824,0.12477 -1.2423,0.0315 -0.26402,-0.0933 -0.54715,-0.33748 -1.08003,-0.85783 z m 43.75753,1.20716 c -0.52601,0.0214 -1.05695,0.25575 -1.5508,0.63667 -0.98774,0.76184 -1.84666,2.12389 -2.20503,3.78322 l -0.17362,0.79891 -1.55083,-0.17568 c -2.26865,-0.25667 -4.13213,0.18772 -5.02915,1.32808 -0.24291,0.30879 -0.39846,0.56128 -0.47853,0.78134 -0.04,0.11004 -0.064,0.21222 -0.0527,0.32607 0.0114,0.11385 0.0825,0.25016 0.19688,0.31266 0.11438,0.0625 0.23079,0.0588 0.33641,0.0388 0.10565,-0.0201 0.2113,-0.0606 0.32608,-0.11888 0.2296,-0.11652 0.49635,-0.30551 0.80462,-0.57618 0.47911,-0.42069 0.73954,-0.61651 1.14049,-0.72657 0.40095,-0.11004 0.98046,-0.13073 2.04329,-0.13073 h 2.0133 l -0.12298,0.85161 c -0.0906,0.62921 -0.39203,2.84046 -0.6718,4.92374 -0.76573,5.70248 -2.77056,11.43801 -5.10355,14.6854 -0.6681,0.92991 -1.22616,1.45008 -1.67381,1.61542 -0.44765,0.16531 -0.81454,0.0536 -1.30844,-0.41032 -0.72321,-0.67942 -1.09308,-1.73106 -1.41801,-4.26744 l -0.17777,-1.39062 1.07799,-0.60563 c 2.45475,-1.37964 4.17166,-4.18796 4.22092,-6.92206 0.0204,-1.1367 -0.1356,-1.955 -0.62322,-2.52129 -0.48763,-0.56629 -1.26029,-0.82061 -2.34972,-0.92191 -1.26497,-0.11764 -1.80861,0.0272 -2.93161,0.78702 -0.85629,0.57936 -1.43581,1.10303 -2.00969,2.09754 -0.57388,0.99454 -1.15652,2.45473 -2.09756,4.97697 -1.86743,5.00534 -3.0067,7.21479 -4.31859,8.4863 -0.6763,0.65548 -1.1853,0.86469 -1.58956,0.76171 -0.40428,-0.10295 -0.83399,-0.56944 -1.25005,-1.50998 -0.39023,-0.8822 -0.67196,-2.17752 -0.76793,-3.23029 -0.048,-0.52639 -0.0482,-0.99571 -0.004,-1.30845 0.0222,-0.15637 0.0598,-0.27458 0.0879,-0.3266 0.01,-0.0183 0.007,-0.0175 0.007,-0.0196 0.31459,-0.0103 0.61421,-0.18799 0.96996,-0.44132 0.36648,-0.26099 0.77285,-0.61844 1.17925,-1.02526 0.8128,-0.81362 1.61928,-1.81928 2.0433,-2.67013 0.39851,-0.79975 0.6617,-1.76532 0.77306,-2.68716 0.11136,-0.92186 0.0778,-1.79699 -0.16793,-2.43758 -0.17542,-0.45714 -0.65305,-0.80338 -1.22267,-1.07796 -0.56962,-0.27461 -1.24338,-0.45943 -1.86708,-0.45943 -2.31513,0 -4.32856,1.80007 -5.66785,4.92581 -0.33653,0.78536 -0.97296,1.61858 -1.65055,2.2407 -0.67763,0.62209 -1.4159,1.01335 -1.83195,1.01335 -0.11465,0 -0.16796,-0.0175 -0.16793,-0.0175 2e-5,3e-5 -0.005,0.0167 -0.0196,-0.0723 -0.0299,-0.17774 0.007,-0.65939 0.11729,-1.52135 0.13575,-1.06111 0.24444,-2.89462 0.24444,-4.11345 0,-1.32599 -0.14856,-2.25584 -0.57827,-2.8887 -0.42973,-0.63288 -1.14406,-0.89815 -2.07428,-0.89815 -1.03034,0 -1.91632,0.52271 -2.51769,1.38441 -0.60135,0.86172 -0.93398,2.05549 -0.92758,3.44527 0.0103,2.26425 0.96208,4.03664 2.78897,5.17231 l 1.33377,0.82992 -0.5488,2.14818 c -0.38973,1.52482 -0.83122,2.77601 -1.25937,3.62923 -0.21407,0.42662 -0.42579,0.75224 -0.61338,0.95912 -0.18762,0.2069 -0.33991,0.27493 -0.42013,0.27493 -0.11401,0 -0.21453,-0.0522 -0.34933,-0.26718 -0.13483,-0.21497 -0.26715,-0.57912 -0.37312,-1.08003 -0.21195,-1.00184 -0.32916,-2.54794 -0.34364,-4.62917 -0.008,-1.14835 -0.047,-2.06084 -0.11369,-2.72439 -0.0333,-0.33176 -0.0725,-0.60058 -0.123,-0.81288 -0.0505,-0.21228 -0.0902,-0.36777 -0.22426,-0.50176 -0.18434,-0.18431 -0.44106,-0.27408 -0.7307,-0.33798 -0.28967,-0.0639 -0.61704,-0.0926 -0.94311,-0.0878 -0.32607,0.005 -0.64797,0.0423 -0.92967,0.11523 -0.2817,0.0729 -0.52853,0.16978 -0.69556,0.37105 -0.099,0.11933 -0.14983,0.25035 -0.23048,0.4532 -0.0806,0.20283 -0.17177,0.46236 -0.26974,0.76378 -0.19593,0.60285 -0.4168,1.37244 -0.61907,2.1699 -0.3714,1.46407 -0.81619,2.80498 -1.22629,3.76772 -0.20506,0.48135 -0.40371,0.86899 -0.5705,1.12292 -0.0834,0.12697 -0.16012,0.21857 -0.21497,0.26924 -0.0138,0.0127 -0.0185,0.0146 -0.0279,0.0212 -0.006,-0.006 -0.007,-0.004 -0.0151,-0.0151 -0.0466,-0.0607 -0.11163,-0.17433 -0.17568,-0.32454 -0.12811,-0.30043 -0.26257,-0.74602 -0.38087,-1.25986 -0.23654,-1.02775 -0.41185,-2.33932 -0.41185,-3.41583 0,-1.16186 0.14399,-3.28157 0.31832,-4.67206 0.17365,-1.38457 0.23895,-2.30534 0.16021,-3.00345 -0.0788,-0.69807 -0.32388,-1.18115 -0.72504,-1.58231 -0.37711,-0.37714 -0.98878,-0.52181 -1.61489,-0.53123 -0.62611,-0.009 -1.27418,0.12454 -1.73426,0.46096 -0.15248,0.11149 -0.30305,0.25775 -0.40254,0.47643 -0.0995,0.21868 -0.15735,0.49615 -0.1974,0.91004 -0.0801,0.8278 -0.0861,2.22165 -0.0816,4.79919 0.008,4.5733 0.10292,5.84087 0.56017,7.00784 0.39497,1.00811 0.95901,1.86933 1.59988,2.48822 0.64091,0.61888 1.3651,1.00406 2.08569,1.00406 0.4545,0 0.8169,-0.0603 1.14049,-0.30281 0.32358,-0.24249 0.59224,-0.62397 0.99062,-1.25211 0.51575,-0.8132 1.0786,-1.96298 1.28106,-2.63862 0.092,-0.30712 0.18891,-0.54781 0.27543,-0.71106 0.0268,-0.0505 0.0259,-0.0382 0.0507,-0.0723 0.0154,0.0828 0.0351,0.13335 0.0351,0.28937 0,0.99291 0.43979,2.20695 1.05264,3.27319 0.61286,1.06625 1.38441,1.9835 2.18385,2.32027 0.66108,0.27842 1.17453,0.25648 1.84536,-0.0723 0.68969,-0.33803 1.23812,-0.84609 1.73686,-1.70688 0.49874,-0.86077 0.96374,-2.07468 1.54667,-3.88657 0.52999,-1.64738 0.81219,-2.48695 1.06659,-2.91404 0.12721,-0.21355 0.23498,-0.32221 0.3824,-0.41445 0.14743,-0.0922 0.34674,-0.16655 0.62892,-0.26355 0.67577,-0.23233 1.49698,-0.6867 1.92391,-1.08778 l 0.22064,-0.20878 -0.10541,1.83554 c -0.24313,4.19976 0.92186,7.31896 3.35743,8.89093 v 0.0331 l 0.11935,0.0724 c 1.382,0.84256 3.10658,0.80957 4.43334,-0.0899 1.37506,-0.93231 3.11745,-3.52369 4.3031,-6.26369 0.195,-0.45066 0.33599,-0.77351 0.45474,-1.03095 0.0193,0.66601 0.22431,1.80991 0.48834,2.70889 0.70882,2.41318 1.95958,4.11707 3.44165,4.89426 1.48206,0.77719 3.19857,0.57774 4.66174,-0.74414 1.54901,-1.39944 2.99821,-3.80468 4.34391,-7.14838 l 0.62478,-1.55443 0.11523,1.48053 c 0.27186,3.49732 0.9615,5.56866 2.41019,7.09155 0.50496,0.5308 0.85434,0.85719 1.25212,1.05264 0.3978,0.19545 0.81473,0.23823 1.39631,0.23823 0.59706,0 1.02365,-0.0443 1.44537,-0.26924 0.42172,-0.22489 0.81327,-0.60145 1.43351,-1.24642 0.79362,-0.82526 1.92482,-2.44772 2.56678,-3.67163 0.64494,-1.22962 1.4846,-3.22339 2.13682,-4.95112 0.3261,-0.86383 0.60455,-1.65888 0.78703,-2.26187 0.0912,-0.30149 0.15891,-0.55332 0.19688,-0.74983 0.019,-0.0983 0.0315,-0.1828 0.0336,-0.26199 0.003,-0.0792 0.0289,-0.16592 -0.0961,-0.29093 -0.0609,-0.0609 -0.14576,-0.12002 -0.2558,-0.13489 -0.11007,-0.0148 -0.22111,0.0246 -0.30075,0.0801 -0.15931,0.1111 -0.25959,0.27488 -0.39069,0.52348 -0.2622,0.49718 -0.59864,1.3521 -1.11103,2.74815 -1.35483,3.69122 -2.64277,6.05155 -4.10933,7.5861 -0.60182,0.62971 -1.10212,1.00296 -1.44745,1.11723 -0.17267,0.0571 -0.29549,0.0553 -0.40257,0.0156 -0.10705,-0.0398 -0.2142,-0.12499 -0.32194,-0.293 -0.21543,-0.33599 -0.39852,-0.98898 -0.51004,-1.94924 -0.1115,-0.96025 -0.15941,-2.22869 -0.15399,-3.81476 0.0154,-4.50892 0.30189,-6.55098 1.83605,-13.04673 l 0.72451,-3.06441 2.27531,-0.003 c 2.80067,-0.003 5.44409,-0.2643 7.43159,-0.6816 0.99375,-0.20865 1.82317,-0.45537 2.43552,-0.73639 0.61235,-0.28101 1.0487,-0.58494 1.13689,-1.04282 0.027,-0.14045 0.0497,-0.2462 0.0506,-0.35762 0,-0.0557 0,-0.11869 -0.0408,-0.19896 -0.0417,-0.0802 -0.15639,-0.15571 -0.24445,-0.16431 -0.1761,-0.0172 -0.25077,0.0485 -0.36896,0.11523 -0.11819,0.0668 -0.26119,0.1601 -0.44905,0.28318 -1.27489,0.83532 -4.27217,1.36906 -8.27341,1.37306 l -3.52174,0.004 0.21082,-1.12707 c 0.14774,-0.79076 0.18703,-1.41415 0.0879,-1.96266 -0.0992,-0.54856 -0.34367,-1.01171 -0.72451,-1.44539 -0.39375,-0.44839 -0.90959,-0.65796 -1.43558,-0.63666 z m -81.33405,6.33193 -0.30075,1.34202 c -0.10692,0.4775 -0.2599,1.1103 -0.33589,1.39063 -0.004,0.0151 -0.14745,0.22082 -0.38449,0.40256 -0.23702,0.18171 -0.55518,0.3711 -0.88469,0.5152 l -1.72495,0.75395 1.71667,0.98237 c 0.59269,0.33944 0.87625,0.53756 1.00409,0.73846 0.12782,0.20092 0.15714,0.47868 0.15812,1.07024 0,0.3797 0.0143,0.67272 0.0569,0.90431 0.0214,0.11581 0.0486,0.21704 0.0977,0.3106 0.049,0.0936 0.12832,0.18664 0.24185,0.23254 0.11353,0.0459 0.23638,0.0342 0.33642,0 0.10004,-0.0342 0.18907,-0.0885 0.28318,-0.15814 0.18817,-0.13914 0.39712,-0.34343 0.65421,-0.61907 0.32666,-0.35026 0.49805,-0.49723 0.75189,-0.56277 0.25387,-0.0655 0.64744,-0.0464 1.3689,0.0372 l 2.06293,0.23823 -0.84386,-1.65261 -0.56845,-1.11517 0.55295,-0.93742 c 0.21669,-0.36729 0.37798,-0.6514 0.48006,-0.88469 0.10207,-0.23328 0.1824,-0.43412 0.0724,-0.65629 -0.055,-0.1111 -0.16536,-0.18876 -0.2677,-0.22273 -0.10234,-0.034 -0.20418,-0.0392 -0.31832,-0.0372 -0.22829,0.004 -0.5102,0.0482 -0.87694,0.11522 -0.59457,0.10872 -0.87551,0.13542 -1.09762,0.0527 -0.22212,-0.0827 -0.46996,-0.31256 -0.92964,-0.81444 z m 45.13421,4.91443 c 0.004,0.003 0,0.003 0.009,0.008 0.0405,0.0327 0.11224,0.11046 0.2067,0.22426 0.1652,0.19907 0.32028,0.74292 0.35192,1.65261 0.0316,0.90969 -0.0376,2.17961 -0.20929,3.85353 -0.0656,0.6391 -0.15107,1.22063 -0.2341,1.63451 -0.0369,0.18389 -0.0723,0.31954 -0.10387,0.4222 -0.0417,-0.0204 -0.0626,-0.0148 -0.12298,-0.0687 -0.11735,-0.10464 -0.254,-0.27043 -0.38862,-0.48212 -0.26919,-0.42339 -0.53182,-1.0232 -0.70485,-1.67019 -0.20447,-0.76448 -0.20738,-1.82059 -0.0434,-2.80654 0.16401,-0.98597 0.5017,-1.90603 0.89866,-2.39625 0.1194,-0.14745 0.21301,-0.25625 0.27749,-0.31832 0.0303,-0.0292 0.0506,-0.044 0.0636,-0.0527 z m -61.51305,1.50378 c -1.70011,0.003 -3.77471,0.18587 -4.7129,0.43564 -2.06142,0.54874 -5.28872,2.31179 -7.22643,3.93358 -2.37326,1.98636 -4.15171,4.76034 -5.09167,7.5546 -0.93998,2.79426 -1.04878,5.61835 -0.003,7.70702 0.4745,0.94684 0.98824,1.63182 1.6464,2.10167 0.65815,0.46987 1.44822,0.71318 2.43757,0.80822 0.47737,0.0459 0.8572,0.046 1.14258,0.0103 0.14266,-0.018 0.26096,-0.0442 0.36534,-0.0858 0.1044,-0.0416 0.21071,-0.0967 0.27337,-0.23254 0.0627,-0.13587 0.006,-0.30877 -0.0723,-0.39638 -0.0785,-0.0876 -0.17336,-0.14488 -0.29094,-0.19946 -0.23516,-0.10917 -0.57174,-0.20077 -1.03507,-0.27906 -1.21685,-0.20558 -2.19234,-0.93512 -2.83808,-2.0257 -0.64572,-1.09062 -0.95176,-2.54604 -0.78497,-4.17391 0.52512,-5.12472 4.64958,-10.30311 9.70121,-12.16205 3.04681,-1.12117 7.02998,-1.17708 9.73432,-0.15039 2.4503,0.93028 5.62853,3.41246 7.53131,5.90042 6.04303,7.90146 7.74424,18.91996 4.98625,32.62127 -1.4552,7.22932 -3.92437,13.20226 -7.04297,17.447 -3.11861,4.24471 -6.87392,6.75351 -10.92803,7.11533 -4.98657,0.44503 -9.2325,-2.82525 -9.2325,-7.01921 0,-2.188 1.28881,-4.00005 3.54706,-4.94337 0.76343,-0.3189 1.46486,-0.45193 2.37712,-0.38912 0.91226,0.0628 2.03488,0.32769 3.59566,0.81854 0.75237,0.23664 1.44857,0.44109 1.96472,0.58187 0.2581,0.0704 0.46961,0.12552 0.62685,0.16021 0.0786,0.0172 0.14205,0.0297 0.1974,0.0372 0.0277,0.004 0.0537,0.006 0.0858,0.006 0.0161,0 0.033,0 0.0605,-0.004 0.0138,-0.003 0.0312,-0.007 0.0527,-0.0156 0.0109,-0.004 0.0217,-0.01 0.0351,-0.0175 0.0127,-0.008 0.0399,-0.0291 0.0429,-0.0315 l 0.003,-0.003 c 0.003,-0.003 0.0257,-0.0257 0.0336,-0.0367 0.008,-0.0114 0.0143,-0.0225 0.019,-0.0315 0.01,-0.0183 0.0156,-0.0309 0.0196,-0.0429 0.008,-0.0241 0.009,-0.0398 0.0119,-0.0548 0.005,-0.0299 0.007,-0.0558 0.008,-0.0837 0.003,-0.0558 0.003,-0.12092 0,-0.20307 -0.005,-0.16436 -0.0185,-0.38989 -0.0393,-0.66252 -0.0415,-0.5452 -0.11194,-1.28093 -0.20103,-2.07997 -0.44363,-3.97848 -0.39375,-11.50514 0.13488,-19.38848 0.28525,-4.25352 0.42916,-7.1945 0.43358,-9.21493 0.004,-2.02044 -0.11089,-3.11013 -0.43358,-3.73415 -0.44706,-0.86452 -1.49473,-1.55241 -2.59003,-1.96111 -1.09529,-0.40868 -2.25187,-0.56232 -2.98638,-0.0801 -0.17274,0.1134 -0.18782,0.23407 -0.24392,0.39272 -0.0561,0.15867 -0.10866,0.35663 -0.15811,0.58965 -0.0989,0.46601 -0.18505,1.0668 -0.23823,1.70116 -0.10457,1.24669 -0.4767,5.40602 -0.82632,9.23822 -0.46681,5.11604 -0.60312,8.44291 -0.50951,12.45142 0.12613,5.4079 0.30059,6.42819 1.59163,9.37877 0.0355,0.0812 0.037,0.12454 0.0372,0.12298 2.4e-4,-0.003 0.0175,-0.0151 -0.0238,0.0119 -0.0823,0.0538 -0.38862,0.14552 -0.91366,0.23048 -3.38381,0.54769 -5.77803,2.43028 -6.7758,4.81058 -0.99777,2.38027 -0.58049,5.24613 1.56475,7.68323 1.31223,1.49077 2.89787,2.4782 5.07825,3.16984 0,1.9e-4 0,-1.8e-4 0.003,0 0.0201,0.006 0.0484,-1.8e-4 0.0687,0.006 v 0.006 h 0.003 v -0.006 c 2.52942,0.77883 5.82282,0.4437 9.16792,-0.72448 3.37339,-1.17809 6.79254,-3.19778 9.48986,-5.79501 5.49884,-5.29477 9.98027,-13.68314 11.57037,-21.64054 0.25945,-1.29847 0.54046,-2.65697 0.61753,-2.99826 l 0.0739,-0.32969 1.13273,0.57411 c 1.06096,0.53714 2.01224,0.74415 3.38119,0.74415 h 1.59732 l -0.006,4.67362 c -0.003,2.40747 -0.003,3.64532 0.10544,4.48448 0.10814,0.83912 0.34094,1.27685 0.74414,1.96268 0.91866,1.5627 1.97451,2.62871 3.06441,3.11711 1.08989,0.48842 2.23141,0.36229 3.15433,-0.43718 0.28017,-0.2427 0.57952,-0.70249 0.91414,-1.30071 0.33464,-0.5982 0.68381,-1.32565 0.97618,-2.05309 0.23037,-0.57314 0.41076,-1.01153 0.54933,-1.32964 0.0222,-0.0509 0.0262,-0.0492 0.0465,-0.0941 0.0635,1.82579 1.10072,5.53405 2.04121,7.2621 1.11035,2.0401 2.70594,3.45742 4.45502,4.1093 1.74908,0.6519 3.65438,0.52882 5.32837,-0.50022 1.10395,-0.67863 2.30955,-2.08794 3.53105,-4.00595 1.22147,-1.91802 2.44787,-4.34761 3.5388,-7.05851 0.58748,-1.45986 0.92901,-2.2335 1.15083,-2.65408 0.0516,0.67672 0.38897,1.5255 0.91207,2.39622 0.56111,0.93393 1.2673,1.82922 1.93736,2.3146 1.02833,0.74494 2.16649,1.05254 3.43752,0.89244 1.27101,-0.16007 2.67121,-0.77208 4.29895,-1.82417 0.50948,-0.3293 1.01563,-0.6273 1.41388,-0.8418 0.1991,-0.10726 0.37103,-0.19343 0.50022,-0.25013 0.10898,-0.0478 0.16621,-0.0575 0.15814,-0.0625 0.0159,0.0127 0.0334,0.0259 0.0605,0.0548 0.0715,0.0762 0.16814,0.20183 0.27337,0.35965 0.21045,0.31565 0.45979,0.7616 0.68781,1.25161 1.00171,2.15278 2.6651,3.50726 4.49173,3.55896 0.65958,0.0188 1.25528,-0.15853 1.77146,-0.55088 0.51618,-0.3923 0.95515,-0.98666 1.36734,-1.79523 0.41487,-0.81372 1.09281,-2.47234 1.67587,-4.01164 0.29155,-0.76964 0.5574,-1.50751 0.75189,-2.08981 0.0848,-0.25376 0.14915,-0.46217 0.2031,-0.64852 0.12954,0.53647 0.27075,1.15599 0.416,2.1332 0.33835,2.27643 0.67649,3.6698 1.33014,4.49377 0.32684,0.41201 0.7439,0.66945 1.23611,0.77927 0.49218,0.10986 1.0546,0.0831 1.71876,-0.0233 0.8682,-0.13899 1.49746,-0.43709 1.88103,-1.10538 0.38356,-0.66828 0.5394,-1.64293 0.65833,-3.18172 0.23106,-2.98976 0.9865,-6.79259 1.86709,-9.95494 0.44027,-1.58118 0.91371,-3.00329 1.36321,-4.08036 0.22477,-0.53855 0.44344,-0.99126 0.64648,-1.33016 0.20302,-0.33888 0.39871,-0.5624 0.51986,-0.64027 0.0204,-0.0132 0.0278,-0.0161 0.0351,-0.0191 0.006,0.007 0.0127,0.0159 0.0269,0.0424 0.0692,0.12994 0.15488,0.49228 0.20153,1.07021 0.0933,1.15586 0.0791,3.19366 -0.0254,6.39652 -0.1216,3.73173 -0.19397,5.59064 0.0563,6.61717 0.12517,0.51324 0.37431,0.85114 0.73432,1.00201 0.36002,0.15083 0.77063,0.14261 1.28725,0.14261 0.91525,0 1.67344,-0.25694 2.25981,-0.82423 0.5864,-0.5673 0.99711,-1.41804 1.31622,-2.58588 0.26191,-0.95851 1.14806,-3.80953 1.96112,-6.30661 0.81386,-2.49963 2.18797,-6.72441 3.05253,-9.39064 0.87042,-2.68444 1.56987,-4.61106 2.12907,-5.85338 0.27959,-0.62116 0.52525,-1.07257 0.72864,-1.35186 0.20338,-0.27932 0.35629,-0.34727 0.38084,-0.34727 0.0405,0 0.0395,-0.009 0.0837,0.0662 0.0442,0.0756 0.0942,0.23968 0.11732,0.48421 0.0462,0.48906 0,1.28757 -0.15608,2.39469 -0.31123,2.21422 -1.0468,5.67769 -2.23655,10.60762 -2.09923,8.6986 -2.54389,11.61497 -2.53886,16.64446 0.004,4.06937 0.42399,7.19842 1.27743,9.38649 0.85347,2.18808 2.18147,3.45589 3.93155,3.64837 0.56521,0.0622 0.98481,0.0664 1.40198,-0.0605 0.41719,-0.12697 0.80862,-0.37311 1.35549,-0.77152 1.16022,-0.84535 2.20159,-2.50047 3.18172,-4.947 0.98012,-2.44654 1.89058,-5.69065 2.73264,-9.72447 l 0.39843,-1.91203 1.06453,2.19678 1.30844,2.70939 -1.2733,1.40819 c -2.7055,2.99267 -3.89708,6.88033 -3.68195,10.0526 0.10758,1.58615 0.56851,2.99913 1.3906,4.02715 0.82209,1.02801 2.01896,1.65854 3.51608,1.65467 2.72841,-0.007 5.30068,-1.98987 6.9882,-5.28338 1.42692,-2.78485 1.14607,-7.54269 -0.66249,-13.10153 l -0.56224,-1.72858 1.91616,-2.59003 c 0.8854,-1.19594 1.84253,-2.64282 2.58175,-3.86125 0.36963,-0.60923 0.68501,-1.15975 0.91004,-1.59732 0.1125,-0.21881 0.20333,-0.40962 0.26768,-0.56845 0.0643,-0.15883 0.10953,-0.27059 0.10953,-0.41807 0,-0.10509 -0.0515,-0.19169 -0.10541,-0.24596 -0.0539,-0.0543 -0.11395,-0.0879 -0.17414,-0.11369 -0.12039,-0.0515 -0.25406,-0.0739 -0.40204,-0.0739 -0.19682,0 -0.29167,0.0954 -0.41031,0.19894 -0.11864,0.10353 -0.24287,0.2394 -0.37672,0.40463 -0.26773,0.33046 -0.56626,0.77528 -0.84182,1.26555 -0.52808,0.93957 -1.44209,2.32514 -2.30683,3.54087 -0.43238,0.60788 -0.85359,1.17565 -1.20716,1.62317 -0.35359,0.44751 -0.65373,0.78388 -0.78703,0.89453 -0.0619,0.0514 -0.05,0.0379 -0.0527,0.0372 -0.003,0 -0.075,-0.0368 -0.18343,-0.17571 -0.21691,-0.27779 -0.55513,-0.89853 -1.08212,-1.96112 l -1.19319,-2.40604 1.1622,-1.52345 c 1.57446,-2.06597 2.5031,-4.87262 2.72437,-8.16435 0.14581,-2.169 -0.12965,-3.77841 -0.92758,-4.86532 -0.79796,-1.08693 -2.10661,-1.59369 -3.86747,-1.59372 -2.26139,0 -4.11498,0.674 -5.43327,1.95131 -1.31826,1.2773 -2.08883,3.14372 -2.24017,5.47666 -0.18169,2.80122 0.30406,5.28894 1.64642,8.46876 0.60293,1.42824 0.88492,2.00742 0.80666,3.16412 -0.0783,1.15673 -0.54147,2.91984 -1.48672,6.57016 -0.99113,3.82741 -2.01287,6.40787 -2.97037,7.65845 -0.47874,0.62526 -0.91945,0.89548 -1.30482,0.90381 -0.38537,0.008 -0.80296,-0.23561 -1.2578,-0.84542 -0.22903,-0.30705 -0.37134,-0.6137 -0.47853,-1.13689 -0.10721,-0.52319 -0.16989,-1.2573 -0.2186,-2.3709 -0.20089,-4.59341 1.021,-11.49467 4.2907,-24.07452 1.76998,-6.80977 2.40503,-10.61929 1.97456,-12.53876 -0.36616,-1.63272 -1.66304,-2.61896 -3.42151,-2.61896 -2.16022,0 -3.7791,1.10766 -5.32421,3.58945 -0.11055,0.17753 -0.24564,0.50466 -0.44958,1.0237 -0.20395,0.51903 -0.45998,1.20816 -0.75346,2.01951 -0.58695,1.62269 -1.32064,3.736 -2.05671,5.949 l -2.07068,6.22495 0.0413,-0.66611 c 0.0936,-1.53636 0.0331,-3.02736 -0.15039,-4.27725 -0.18354,-1.24992 -0.47667,-2.25433 -0.92191,-2.85359 -0.41939,-0.56446 -1.03997,-0.88789 -1.72289,-0.94723 -0.68292,-0.0593 -1.42833,0.1361 -2.14043,0.57621 -2.95693,1.82747 -5.36918,6.98579 -7.12721,14.8554 -0.088,0.39412 -0.13904,0.58679 -0.20309,0.85526 -0.0204,-0.16645 -0.0322,-0.1625 -0.0527,-0.38655 -0.064,-0.69816 -0.138,-1.69201 -0.23823,-3.02152 -0.084,-1.11426 -0.2105,-2.20295 -0.35348,-3.11145 -0.14298,-0.90844 -0.29649,-1.62684 -0.46456,-2.04689 -0.45183,-1.12919 -1.08439,-1.83396 -1.88103,-1.99419 -0.79663,-0.16023 -1.65729,0.24344 -2.52129,1.10741 l -1.1467,1.14671 0.1447,3.50004 0.13848,3.33573 -1.77147,4.35372 c -0.98456,2.42115 -1.87047,4.59182 -1.94923,4.77697 -0.0277,0.0651 -0.0791,0.13346 -0.12867,0.17624 -0.0496,0.0428 -0.0965,0.0506 -0.0801,0.0506 0.005,0 -0.045,-0.007 -0.13695,-0.17002 -0.0919,-0.16298 -0.19513,-0.44429 -0.29093,-0.83201 -0.19162,-0.77541 -0.36497,-1.97628 -0.51573,-3.5977 -0.23117,-2.48565 -0.44053,-3.94057 -0.90797,-4.84002 -0.23368,-0.44971 -0.55012,-0.76033 -0.94567,-0.93739 -0.39556,-0.17706 -0.85321,-0.22842 -1.39835,-0.22842 -1.38018,0 -2.5177,1.19288 -2.96881,2.95693 -0.58037,2.26928 -0.90541,2.87428 -2.11101,3.90621 -0.80071,0.68537 -1.41573,1.05605 -1.88875,1.15652 -0.47305,0.10046 -0.82103,-0.022 -1.23817,-0.41392 -1.22584,-1.15162 -1.55784,-3.54314 -0.81857,-7.00011 0.80288,-3.75422 1.58514,-5.32847 3.71501,-7.49617 1.41719,-1.44235 2.49272,-2.16903 3.12695,-2.2443 0.31713,-0.0376 0.51594,0.043 0.71054,0.28112 0.19463,0.23815 0.36047,0.66058 0.46302,1.26762 0.0765,0.45312 0.14579,0.75334 0.29303,0.97668 0.0736,0.11168 0.18198,0.20878 0.31626,0.24598 0.13427,0.0372 0.26805,0.0138 0.38499,-0.031 0.22241,-0.0853 0.40648,-0.27836 0.46662,-0.51935 0.0602,-0.24095 0.0353,-0.51361 -0.0351,-0.86558 -0.25005,-1.25034 -0.97202,-2.24637 -2.01382,-2.87888 -1.04182,-0.63251 -2.39591,-0.90665 -3.93155,-0.7674 -5.20753,0.4722 -9.12101,5.06241 -10.34976,12.00185 -0.68143,3.84857 -3.6105,10.98084 -5.84356,14.22651 -0.84844,1.23317 -1.67306,1.9808 -2.40398,2.29134 -0.73091,0.31052 -1.35747,0.22302 -1.9632,-0.25217 -1.21148,-0.95038 -2.22602,-3.60908 -2.59157,-7.7365 l -0.17984,-2.01329 1.09347,-0.55708 c 2.5214,-1.28632 4.64288,-3.84807 5.91024,-6.60321 1.26738,-2.75516 1.69359,-5.71791 0.68937,-7.83415 -0.56065,-1.18147 -1.76305,-1.93852 -3.17138,-2.22054 -1.40835,-0.28202 -3.03675,-0.0967 -4.50413,0.63457 -2.84811,1.41931 -5.10675,5.04294 -6.11537,9.6542 -0.53221,2.43303 -1.29656,5.14138 -2.03917,7.35769 -0.37129,1.10818 -0.73779,2.09315 -1.06402,2.85719 -0.32621,0.76406 -0.63143,1.31945 -0.80097,1.50431 -0.15063,0.16423 -0.2336,0.1968 -0.23461,0.19688 0,8e-5 -0.0517,-0.009 -0.18915,-0.14624 0.0151,0.0151 -0.0634,-0.11536 -0.10954,-0.36949 -0.0462,-0.25413 -0.0864,-0.62947 -0.11731,-1.13842 -0.0618,-1.01791 -0.0906,-2.57159 -0.0956,-4.81624 -0.004,-1.97329 0,-3.43815 -0.0486,-4.52945 -0.0479,-1.0913 -0.14007,-1.80936 -0.38499,-2.31664 -0.2449,-0.50731 -0.68763,-0.76227 -1.23817,-0.82579 -0.55055,-0.0635 -1.23169,0.0103 -2.14249,0.0817 -0.75689,0.0592 -1.49543,0.13374 -2.08,0.20513 -0.29226,0.0357 -0.54671,0.0711 -0.7462,0.10387 -0.18886,0.0311 -0.31065,0.0523 -0.42013,0.0915 0.0132,-0.0672 0.0275,-0.13756 0.0589,-0.24598 0.80804,-2.79334 1.15671,-5.35258 1.05471,-7.36542 -0.10197,-2.01287 -0.6418,-3.52026 -1.74252,-4.10932 -0.44746,-0.23948 -1.14758,-0.29459 -1.90635,-0.26768 -0.75877,0.0269 -1.55652,0.15311 -2.13836,0.39275 -0.0683,0.0281 -0.0606,0.0206 -0.0625,0.0196 -0.003,0 -0.0526,-0.0403 -0.11523,-0.17414 -0.12517,-0.26768 -0.28024,-0.84908 -0.49403,-1.82986 -0.5801,-2.66147 -2.24017,-7.10359 -3.46284,-9.25373 -4.87047,-8.56498 -12.1953,-13.16151 -21.00027,-13.15061 z m 86.47792,0.18034 c 0.0408,0 0.0798,0.005 0.11782,0.013 0.15221,0.0326 0.30279,0.12655 0.45889,0.34004 0.249,0.34052 0.36296,0.679 0.35346,1.16996 -0.009,0.49093 -0.15521,1.13321 -0.45268,2.01176 -0.56591,1.67132 -1.9649,3.48607 -3.04114,4.04265 -0.27901,0.14427 -0.49139,0.25074 -0.6408,0.31263 -0.11478,0.0476 -0.14618,0.0481 -0.16796,0.0527 -0.0114,-0.0631 -0.0212,-0.17825 -0.0212,-0.35345 0,-2.16144 0.73289,-4.47919 1.62882,-5.97482 0.44797,-0.74782 0.94364,-1.2858 1.3534,-1.49966 0.15367,-0.0802 0.28911,-0.11581 0.41135,-0.11473 z m -12.86277,0.013 c 0.17274,0 0.29115,0.0284 0.37724,0.0765 0.0861,0.0481 0.15206,0.11647 0.21497,0.25167 0.12579,0.2704 0.19564,0.80288 0.19119,1.64071 -0.009,1.71577 -0.84658,3.36073 -2.48253,4.80076 -0.39404,0.34684 -0.78322,0.66309 -1.08572,0.88881 -0.15126,0.11287 -0.28072,0.20304 -0.37518,0.26149 -0.0185,0.0114 -0.0275,0.0145 -0.0429,0.0233 -0.029,-0.0866 -0.0546,-0.24871 -0.0625,-0.45889 -0.0161,-0.42762 0.0331,-1.0441 0.1328,-1.71667 0.19952,-1.34514 0.61071,-2.93426 1.0568,-3.79667 0.30797,-0.59542 0.6891,-1.10005 1.06815,-1.44745 0.37904,-0.34743 0.75453,-0.52351 1.00769,-0.52351 z m 52.65827,25.75192 c 0.26371,0 0.37825,0.0365 0.49456,0.15245 0.11629,0.11592 0.2413,0.35957 0.3824,0.78703 0.36124,1.09458 0.25604,3.21546 -0.17002,5.2405 -0.42608,2.02506 -1.18266,3.98346 -1.93736,4.78679 -0.18076,0.19243 -0.37182,0.36774 -0.5271,0.49043 -0.0776,0.0613 -0.14729,0.10829 -0.19531,0.13642 -0.0132,0.008 -0.0159,0.0106 -0.0169,0.0124 -0.0225,-0.023 -0.058,-0.0727 -0.0966,-0.1488 -0.0811,-0.15994 -0.1678,-0.42304 -0.24392,-0.75189 -0.15224,-0.65776 -0.27062,-1.58356 -0.33589,-2.58591 -0.1306,-2.00469 -0.0465,-4.34517 0.30281,-5.53143 0.22458,-0.76271 0.60122,-1.42367 1.02939,-1.88259 0.42818,-0.45892 0.90104,-0.70538 1.31413,-0.70538 z m -97.46845,1.40044 c 0.0262,0.006 0.0562,0.0259 0.10541,0.0666 0.32475,0.26953 0.56682,1.14633 0.5271,2.40969 -0.0397,1.26336 -0.32046,2.8938 -0.83767,4.66431 -0.0969,0.33155 -0.18444,0.58042 -0.25995,0.73639 -0.0558,0.11525 -0.0686,0.11655 -0.0723,0.12711 -0.008,-0.009 -0.008,-0.006 -0.0175,-0.0196 -0.0689,-0.0967 -0.16661,-0.29107 -0.27337,-0.56275 -0.58769,-1.49547 -0.69387,-2.92634 -0.34004,-4.67569 0.22606,-1.11754 0.49885,-1.93127 0.75811,-2.3673 0.12962,-0.21802 0.2558,-0.33081 0.32607,-0.36121 0.0352,-0.0151 0.058,-0.0233 0.0842,-0.0175 z m 24.18715,2.24999 c 0.39778,0.003 0.7071,0.21185 0.98237,0.74414 0.63196,1.22208 0.52409,3.27215 -0.16952,5.34747 -0.69358,2.07531 -1.95619,4.17107 -3.50416,5.51389 -0.41305,0.35829 -1.31144,0.95639 -1.93943,1.28518 l -0.77927,0.40826 0.16433,-1.97097 c 0.40047,-4.80208 1.90693,-8.97604 3.67162,-10.52544 0.63532,-0.55785 1.17629,-0.8043 1.57406,-0.80253 z m 70.34403,20.47057 c 0.019,0.0185 0.0817,0.1083 0.16174,0.25786 0.33248,0.62127 0.7244,1.95972 1.01388,3.3967 0.28948,1.43698 0.48834,2.98953 0.48834,4.08194 0,1.58242 -0.1656,2.89134 -0.47646,3.88088 -0.3108,0.98954 -0.76255,1.64902 -1.31257,1.98437 -0.53967,0.32907 -0.91466,0.48737 -1.22679,0.51576 -0.31213,0.0284 -0.59256,-0.058 -0.99788,-0.29303 -1.54805,-0.89741 -2.23491,-3.13005 -2.03501,-5.63893 0.19989,-2.50886 1.28367,-5.25074 3.12901,-7.06829 0.71139,-0.70072 1.11247,-1.05479 1.24024,-1.11104 0.0185,-0.008 0.0127,-0.005 0.0156,-0.006 z"
         style="fill:#000000;stroke-width:0.30296484" />
    </g>
  </g>
</svg>
