<?xml version="1.0" encoding="UTF-8" standalone="no"?>
<!-- Created with Inkscape (http://www.inkscape.org/) -->

<svg
   xmlns:dc="http://purl.org/dc/elements/1.1/"
   xmlns:cc="http://creativecommons.org/ns#"
   xmlns:rdf="http://www.w3.org/1999/02/22-rdf-syntax-ns#"
   xmlns:svg="http://www.w3.org/2000/svg"
   xmlns="http://www.w3.org/2000/svg"
   xmlns:sodipodi="http://sodipodi.sourceforge.net/DTD/sodipodi-0.dtd"
   xmlns:inkscape="http://www.inkscape.org/namespaces/inkscape"
   width="210mm"
   height="297mm"
   viewBox="0 0 210 297"
   version="1.1"
   id="svg5926"
   inkscape:version="0.92.1 r15371"
   sodipodi:docname="sweet-dreams.svg">
  <defs
     id="defs5920" />
  <sodipodi:namedview
     id="base"
     pagecolor="#ffffff"
     bordercolor="#666666"
     borderopacity="1.0"
     inkscape:pageopacity="0.0"
     inkscape:pageshadow="2"
     inkscape:zoom="0.98994949"
     inkscape:cx="-881.83203"
     inkscape:cy="-785.65948"
     inkscape:document-units="mm"
     inkscape:current-layer="layer1"
     showgrid="false"
     inkscape:window-width="1920"
     inkscape:window-height="1001"
     inkscape:window-x="-9"
     inkscape:window-y="-9"
     inkscape:window-maximized="1"
     showborder="false" />
  <metadata
     id="metadata5923">
    <rdf:RDF>
      <cc:Work
         rdf:about="">
        <dc:format>image/svg+xml</dc:format>
        <dc:type
           rdf:resource="http://purl.org/dc/dcmitype/StillImage" />
        <dc:title />
      </cc:Work>
    </rdf:RDF>
  </metadata>
  <g
     inkscape:label="Layer 1"
     inkscape:groupmode="layer"
     id="layer1">
    <g
       id="g4548"
       transform="rotate(90,-255.47794,518.86625)">
      <path
         inkscape:connector-curvature="0"
         id="rect4588"
         transform="scale(0.26458333)"
         d="m -1304.5527,1708.6855 v 470.752 h 29.0449 v 34.0156 h 619.84374 v -34.0156 h 29.04492 v -470.752 z"
         style="opacity:0.43000004;fill:#d35f5f;fill-opacity:1;stroke:none;stroke-width:6.97583342;stroke-linecap:round;stroke-linejoin:round;stroke-miterlimit:4;stroke-dasharray:none;stroke-opacity:0;paint-order:stroke fill markers" />
      <path
         inkscape:connector-curvature="0"
         id="path4533"
         d="m -319.36372,564.37259 c -2.14979,-0.68168 -3.6848,-1.63828 -4.96791,-3.09596 -4.18437,-4.7537 -1.56208,-11.00946 5.0645,-12.08195 1.06506,-0.17237 1.26774,-0.30477 1.08965,-0.71179 -1.28621,-2.93955 -1.44579,-3.88238 -1.57184,-9.28603 -0.0934,-3.99966 0.0422,-7.31088 0.50852,-12.42156 0.34965,-3.8325 0.72149,-7.99069 0.82629,-9.24041 0.10478,-1.24974 0.3431,-2.37241 0.52957,-2.49483 1.19947,-0.78754 4.42474,0.41593 5.21614,1.94633 0.54931,1.06223 0.54219,4.31564 -0.028,12.81857 -0.52927,7.89283 -0.58083,15.41736 -0.13316,19.43215 0.17765,1.59318 0.27991,2.93615 0.22723,2.98439 -0.0526,0.0483 -1.32278,-0.29819 -2.82246,-0.76986 -3.13766,-0.98682 -4.56067,-1.08479 -6.14477,-0.42307 -2.33351,0.97476 -3.70159,2.88745 -3.70159,5.17511 0,4.362 4.39755,7.72505 9.50523,7.2692 8.28484,-0.73942 15.27191,-10.24949 18.1934,-24.76298 2.76706,-13.7463 1.06439,-24.85034 -5.03304,-32.82295 -1.93507,-2.53019 -5.12147,-5.02421 -7.64121,-5.98083 -2.78192,-1.05616 -6.79886,-0.99606 -9.9085,0.14824 -5.15064,1.89537 -9.32687,7.13386 -9.86365,12.37257 -0.34296,3.34724 1.24753,6.03348 3.83076,6.46992 1.79956,0.30403 1.54005,0.86663 -0.31742,0.68814 -1.9242,-0.18487 -2.95713,-0.92228 -3.88478,-2.77328 -2.00542,-4.00154 0.36655,-11.05273 5.03148,-14.95715 1.90029,-1.59049 5.13694,-3.35372 7.13033,-3.88438 0.87554,-0.23308 2.96752,-0.4254 4.64882,-0.42738 8.7182,-0.0108 15.94481,4.51875 20.78124,13.02389 1.19702,2.10503 2.8654,6.56366 3.4365,9.1838 0.42913,1.96877 0.59934,2.33275 1.01148,2.16303 1.06816,-0.43989 3.12605,-0.51287 3.83054,-0.13584 1.93749,1.0369 2.17064,5.63878 0.56662,11.18377 -0.1677,0.57968 -0.11591,0.69591 0.24785,0.55632 0.2529,-0.097 1.69268,-0.2729 3.19951,-0.39078 3.65578,-0.28598 3.52599,-0.55484 3.54387,7.34101 0.01,4.49305 0.11504,6.22011 0.39473,6.50075 0.30651,0.30757 0.45994,0.296 0.78577,-0.0593 0.89589,-0.97679 2.8959,-6.94595 3.9651,-11.83405 0.99772,-4.56136 3.24084,-8.11692 5.98272,-9.48325 2.83252,-1.41151 6.30065,-0.71698 7.33823,1.46954 1.90546,4.01545 -1.58558,11.60463 -6.48881,14.10608 l -1.24241,0.63382 0.19322,2.18172 c 0.73635,8.3142 3.95796,10.84146 7.415,5.81685 2.27133,-3.30129 5.19048,-10.40763 5.88388,-14.32369 1.21625,-6.86894 5.05111,-11.33722 10.12493,-11.79729 2.98596,-0.27076 5.20328,1.07545 5.6776,3.44705 0.13446,0.67227 0.0593,0.97346 -0.27505,1.10175 -0.346,0.13277 -0.50938,-0.11504 -0.65876,-0.99933 -0.42594,-2.52108 -1.86455,-2.35033 -4.72484,0.56076 -2.15175,2.18997 -2.97379,3.84683 -3.78079,7.62038 -0.74729,3.49438 -0.44065,5.98191 0.89171,7.23359 0.90962,0.85455 1.83134,0.65877 3.4594,-0.73479 1.22788,-1.05101 1.60854,-1.75151 2.1923,-4.03417 0.43322,-1.69401 1.49066,-2.7676 2.72596,-2.7676 2.11616,0 2.54185,0.81917 3.00309,5.77887 0.3027,3.25505 0.69065,4.8249 1.19235,4.8249 0.15293,0 0.35052,-0.17042 0.4391,-0.37871 0.0886,-0.20829 0.96669,-2.35979 1.95134,-4.7811 l 1.79028,-4.4024 -0.13972,-3.39068 -0.1397,-3.39066 1.06865,-1.06865 c 1.66611,-1.66608 3.12294,-1.37309 3.99372,0.8032 0.29946,0.74844 0.63304,2.8679 0.80006,5.0835 0.4009,5.31763 0.38621,5.27912 0.98738,2.58803 1.75232,-7.84402 4.18955,-12.94927 7.01582,-14.69601 1.34755,-0.83282 2.7756,-0.70872 3.53013,0.30681 0.78717,1.05945 1.20815,3.9263 1.02299,6.96656 l -0.15684,2.5752 2.67439,-8.04038 c 1.4709,-4.42221 2.9257,-8.44407 3.23288,-8.93747 1.52246,-2.44541 3.03428,-3.47227 5.11214,-3.47227 1.66979,0 2.83533,0.88845 3.17964,2.42371 0.40207,1.79281 -0.20617,5.62037 -1.97391,12.42156 -3.27147,12.58664 -4.50194,19.49852 -4.29864,24.14671 0.0978,2.23614 0.25033,2.98066 0.74709,3.64665 1.92076,2.57508 3.98526,-0.12128 5.97445,-7.80303 1.89024,-7.29962 1.87288,-7.04315 0.66943,-9.89395 -1.33271,-3.15695 -1.80726,-5.59265 -1.62802,-8.35595 0.2967,-4.57413 3.00035,-7.19379 7.42446,-7.19379 3.42876,0 4.83301,1.91282 4.54537,6.19156 -0.21878,3.25443 -1.13756,6.01286 -2.67453,8.02965 l -1.25604,1.64817 1.26228,2.54518 c 1.05678,2.13086 1.33388,2.48573 1.70219,2.18007 0.69596,-0.57759 3.28501,-4.21756 4.35883,-6.12806 0.53851,-0.95813 1.17361,-1.74205 1.41133,-1.74205 0.23772,0 0.43221,0.0831 0.43221,0.18481 0,0.52325 -2.06102,3.92038 -3.81958,6.29572 l -1.99408,2.69348 0.60222,1.851 c 1.7977,5.52547 2.04574,10.24173 0.67896,12.90921 -1.65915,3.23811 -4.1608,5.14075 -6.768,5.14744 -5.71265,0.0147 -6.3536,-9.43678 -1.03869,-15.31587 l 1.38674,-1.53392 -1.38228,-2.85905 -1.38227,-2.85907 -0.54924,2.63106 c -1.68035,8.04944 -3.63615,12.93143 -5.81712,14.52049 -1.08002,0.78689 -1.47606,0.90742 -2.58215,0.78576 -3.29475,-0.36239 -4.97989,-4.68269 -4.98753,-12.78691 -0.005,-5.01477 0.43462,-7.89178 2.53278,-16.5859 2.38102,-9.8661 2.94271,-13.86207 1.94854,-13.86207 -0.67673,0 -1.73395,2.34884 -3.47738,7.72561 -0.86449,2.66608 -2.23766,6.89244 -3.05148,9.3919 -0.81383,2.49946 -1.69764,5.34214 -1.96404,6.31707 -0.6255,2.28913 -1.59426,3.22633 -3.33498,3.22633 -2.0633,0 -2.07303,-0.04 -1.82984,-7.50325 0.20889,-6.41087 0.0682,-8.15224 -0.62232,-7.70838 -1.47753,0.94962 -4.04385,10.16595 -4.50989,16.19629 -0.23633,3.05782 -0.65812,3.79272 -2.33053,4.06044 -2.59214,0.41496 -3.32476,-0.50854 -3.99836,-5.04022 -0.3684,-2.47828 -0.78979,-3.89808 -0.78979,-2.66098 0,0.54569 -1.92318,5.62282 -2.72754,7.20057 -0.80393,1.5769 -1.68246,2.24465 -2.90754,2.20993 -1.70693,-0.0483 -3.2996,-1.32072 -4.27369,-3.41412 -0.46556,-1.00054 -1.01229,-1.82057 -1.21496,-1.8223 -0.20266,-0.002 -1.21068,0.54118 -2.24003,1.20648 -3.21939,2.08079 -5.48426,2.36605 -7.45442,0.93886 -1.23354,-0.89357 -2.81307,-3.5226 -2.81307,-4.68219 0,-0.94035 -0.29036,-0.43297 -1.56523,2.735 -2.17191,5.39711 -4.8899,9.66501 -6.96911,10.94315 -3.22024,1.97957 -7.26209,0.47313 -9.43316,-3.51583 -0.9228,-1.6955 -2.0213,-5.62373 -2.04093,-7.29839 -0.0113,-0.96948 -0.1252,-0.80784 -1.04776,1.48755 -0.57626,1.43377 -1.38381,2.87735 -1.82194,3.25688 -1.71813,1.48833 -4.03696,0.44921 -5.83936,-2.61676 -0.80341,-1.36663 -0.82143,-1.50639 -0.81458,-6.32071 l 0.006,-4.92318 h -1.84919 c -1.34466,0 -2.23628,-0.19597 -3.26792,-0.71826 l -1.41875,-0.71826 -0.14504,0.64252 c -0.0798,0.35339 -0.35749,1.70563 -0.61713,3.005 -1.57896,7.90175 -6.04729,16.2595 -11.49979,21.50965 -5.33565,5.13766 -13.56679,8.01219 -18.48085,6.454 z m 129.12282,-3.19776 c 1.24313,-0.75798 1.90947,-2.8793 1.90947,-6.07884 0,-2.24458 -0.80524,-6.24171 -1.53037,-7.59665 -0.33598,-0.62777 -0.391,-0.60355 -1.81508,0.79911 -3.79911,3.74198 -4.39023,11.16178 -1.0438,13.10177 0.85469,0.49548 1.37508,0.44818 2.47978,-0.22539 z m -72.87528,-22.49154 c 3.18782,-2.7653 5.10669,-8.50672 3.73171,-11.16562 -0.60327,-1.16659 -1.62462,-1.17112 -2.9436,-0.013 -1.87443,1.64577 -3.35168,5.85179 -3.75535,10.69227 l -0.20204,2.42258 1.18215,-0.61895 c 0.65018,-0.34042 1.5444,-0.93318 1.98713,-1.31724 z m 74.75996,-4.30748 c 1.66224,-1.76937 2.94997,-7.88972 2.16224,-10.27663 -0.29048,-0.88012 -0.52199,-1.11093 -1.11434,-1.11093 -1.01823,0 -2.11275,1.17309 -2.58224,2.7676 -0.7409,2.51624 -0.2957,9.351 0.6091,9.351 0.13116,0 0.54751,-0.32897 0.92524,-0.73104 z m -96.38501,-2.52584 c 1.04391,-3.57338 1.13856,-6.58327 0.23071,-7.33673 -0.59469,-0.49356 -1.22084,0.55948 -1.67872,2.82323 -0.36114,1.78549 -0.25192,3.27922 0.35219,4.81645 0.44063,1.12125 0.70078,1.04933 1.09582,-0.30295 z m 2.89438,-16.06933 c -0.86107,-0.30771 -2.04003,-0.92135 -2.61992,-1.36364 -1.87886,-1.43307 -3.02007,-4.86361 -2.51448,-7.55863 0.21083,-1.12381 1.81091,-3.23993 2.17765,-2.87997 0.128,0.12563 -0.0541,0.53463 -0.40471,0.90889 -1.41591,1.51151 -1.66296,3.83242 -0.65832,6.18446 1.16443,2.72617 3.03303,4.11385 5.5775,4.14206 3.46492,0.0384 5.91569,-3.33011 5.91569,-8.13098 0,-2.68194 -1.17939,-4.90606 -4.01198,-7.56598 -5.54259,-5.20467 -6.32031,-6.05727 -7.25232,-7.95046 -1.24666,-2.53232 -1.39842,-4.28991 -0.56226,-6.51168 2.29936,-6.1096 11.41498,-7.38935 13.51252,-1.89703 1.00597,2.63412 0.0265,6.97725 -1.8508,8.20735 -1.16901,0.76597 -1.18702,0.31546 -0.0335,-0.83808 1.81134,-1.81134 2.20623,-5.52744 0.78003,-7.34054 -1.18033,-1.50055 -4.16941,-1.6267 -6.01164,-0.25369 -2.23389,1.66489 -2.58096,4.48684 -0.95744,7.78469 1.06292,2.15909 2.03968,3.24763 6.59706,7.35186 3.39386,3.05643 4.35696,4.75984 4.57024,8.08328 0.12396,1.93132 0.0383,2.43431 -0.69217,4.06187 -2.0575,4.58471 -7.27634,7.09738 -11.56117,5.56622 z m 37.55183,-1.56947 c -2.42857,-1.48077 -3.60117,-4.54375 -3.35662,-8.76799 l 0.14256,-2.46276 -0.67893,0.63783 c -0.37342,0.35081 -1.19882,0.81655 -1.83423,1.035 -1.13513,0.39023 -1.17413,0.45572 -2.23437,3.75126 -1.16186,3.6115 -1.85594,4.8094 -3.15568,5.44643 -0.6389,0.31314 -1.01405,0.32793 -1.63906,0.0647 -1.38922,-0.58524 -3.08275,-3.53166 -3.08275,-5.36337 0,-1.08401 -0.46859,-0.85044 -0.85045,0.42393 -0.18725,0.62486 -0.75116,1.78369 -1.25314,2.5752 -0.78986,1.24538 -1.04834,1.43907 -1.92033,1.43907 -1.25859,0 -2.68619,-1.3786 -3.45222,-3.33374 -0.43919,-1.12093 -0.53538,-2.34587 -0.54307,-6.91575 -0.009,-5.15371 0.033,-5.58449 0.57873,-5.98355 0.78207,-0.57186 2.43281,-0.54697 3.0254,0.0456 0.74012,0.74012 0.83946,1.62065 0.49377,4.37742 -0.17611,1.40454 -0.32019,3.52095 -0.32019,4.70314 0,2.20661 0.70951,5.28908 1.21743,5.28908 0.50829,0 1.54913,-2.44339 2.29742,-5.39318 0.40201,-1.58478 0.883,-3.06464 1.06885,-3.28859 0.41943,-0.50539 2.438,-0.53544 2.92982,-0.0437 0.23768,0.23768 0.372,1.57525 0.38794,3.86281 0.0291,4.17915 0.46214,6.22593 1.31718,6.22593 0.75671,0 1.74953,-1.97855 2.53513,-5.0522 l 0.59437,-2.3255 -1.49088,-0.92679 c -1.76263,-1.0957 -2.66048,-2.76326 -2.67056,-4.95995 -0.0124,-2.69788 1.30118,-4.58019 3.19628,-4.58019 1.77346,0 2.40191,0.92558 2.40191,3.53746 0,1.20371 -0.10902,3.04066 -0.24226,4.0821 -0.22116,1.72853 -0.19336,1.89353 0.31901,1.89353 1.09727,0 2.99897,-1.74592 3.71051,-3.40655 1.31752,-3.07493 3.25265,-4.77349 5.43826,-4.77349 1.14565,0 2.59634,0.6993 2.85636,1.37691 0.44034,1.14751 0.16958,3.3889 -0.59463,4.92248 -0.80386,1.61312 -3.18967,4.00141 -3.99726,4.00141 -0.64847,0 -0.33972,3.3869 0.47706,5.23339 0.85742,1.93832 1.83741,2.18792 3.24265,0.82591 1.36318,-1.32124 2.50817,-3.5643 4.37876,-8.57806 1.88047,-5.04018 2.32615,-5.81257 4.01231,-6.95339 1.1086,-0.75008 1.52306,-0.86176 2.76817,-0.74597 2.12411,0.19755 2.78591,0.9661 2.74583,3.18882 -0.0474,2.63118 -1.72263,5.37698 -4.09334,6.70938 l -1.22506,0.68853 0.19957,1.55774 c 0.32687,2.55147 0.7081,3.67828 1.4944,4.41696 1.06221,0.9979 1.99828,0.65219 3.35775,-1.24009 2.3744,-3.305 4.37625,-9.06086 5.14667,-14.7981 0.2797,-2.08289 0.58222,-4.2983 0.67225,-4.92318 l 0.16371,-1.13611 h -2.30159 c -2.13095,0 -2.37918,0.0681 -3.34834,0.91906 -1.18948,1.04437 -1.70387,0.7633 -0.77175,-0.4217 0.80941,-1.029 2.58369,-1.4845 4.804,-1.2333 l 1.77711,0.20107 0.22033,-1.02018 c 0.69349,-3.21096 3.35854,-5.26655 4.75954,-3.67109 0.71766,0.81725 0.8678,1.64784 0.57817,3.19823 l -0.26566,1.42198 3.82369,-0.004 c 4.0221,-0.004 7.03095,-0.51056 8.40948,-1.41379 0.7486,-0.49051 0.77749,-0.48769 0.67094,0.0657 -0.2336,1.21303 -5.18907,2.25349 -10.75942,2.2591 l -2.47303,0.002 -0.76922,3.25688 c -1.53529,6.50046 -1.82845,8.58374 -1.84385,13.10322 -0.0218,6.36621 0.81184,7.66622 3.26776,5.09642 1.50433,-1.57408 2.80129,-3.96479 4.16184,-7.67162 1.02298,-2.78707 1.35616,-3.41883 1.64874,-3.12626 0.25831,0.25831 -1.83431,5.80168 -3.10378,8.22194 -0.62759,1.19651 -1.76382,2.82305 -2.52498,3.61456 -1.23383,1.28303 -1.52644,1.43908 -2.69837,1.43908 -1.13954,0 -1.46795,-0.16136 -2.46785,-1.21247 -1.39846,-1.47007 -2.072,-3.4655 -2.34195,-6.93817 l -0.1979,-2.54579 -1.02457,2.54579 c -1.33789,3.32432 -2.7791,5.70067 -4.27935,7.05605 -2.80503,2.53417 -6.30411,0.69927 -7.69468,-4.03506 -0.26583,-0.90506 -0.48823,-2.13207 -0.49419,-2.72669 -0.01,-1.02044 -0.0619,-0.96325 -0.91952,1.01875 -1.17226,2.70908 -2.94095,5.29335 -4.21314,6.15592 -1.24613,0.84489 -2.86271,0.87775 -4.16349,0.0847 z m 2.79408,-9.7678 c 1.67538,-1.47472 2.55826,-3.18904 2.56773,-4.98586 0.009,-1.69976 -0.23365,-2.22127 -1.03333,-2.22127 -0.71021,0 -1.65822,0.86894 -2.29849,2.10677 -0.94746,1.83174 -1.62148,6.37624 -0.94569,6.37624 0.14317,0 0.91256,-0.57414 1.70978,-1.27588 z m 11.94866,0.83056 c 1.18651,-0.61358 2.57521,-2.45158 3.16233,-4.18549 0.60248,-1.77925 0.61934,-2.6518 0.0659,-3.4087 -1.4601,-1.99679 -4.42246,2.94844 -4.42246,7.38265 0,0.77843 0.073,0.79135 1.19423,0.21154 z m -21.90968,-3.72045 c 0.34458,-3.35958 0.28366,-5.11092 -0.19799,-5.69127 -0.38849,-0.46811 -0.45909,-0.45759 -0.9433,0.14036 -0.89316,1.10302 -1.34,3.78931 -0.90244,5.42529 0.35858,1.34074 1.07888,2.4736 1.57275,2.4736 0.12659,0 0.33853,-1.05659 0.47098,-2.34798 z m -46.2421,-3.48409 c -0.002,-1.1959 -0.0939,-1.34001 -1.28761,-2.02363 l -1.28528,-0.73605 1.26814,-0.55453 c 0.69747,-0.30499 1.33239,-0.79178 1.41092,-1.08175 0.0786,-0.28997 0.23093,-0.92083 0.33864,-1.40189 l 0.19583,-0.87468 0.98239,1.07252 c 0.92471,1.00954 1.05717,1.05884 2.25604,0.83961 1.45284,-0.26566 1.51182,-0.14662 0.65055,1.31312 l -0.62312,1.05609 0.63111,1.23705 0.63109,1.23705 -1.59855,-0.18517 c -1.45197,-0.16819 -1.66591,-0.11295 -2.33303,0.60234 -1.01112,1.08413 -1.23442,0.99385 -1.23712,-0.50008 z m 38.05447,-6.88139 c -0.19393,-1.46193 -0.2783,-1.58077 -1.56663,-2.20668 l -1.36167,-0.66156 1.36301,-0.6927 c 1.282,-0.65153 1.37513,-0.78394 1.56664,-2.22769 l 0.20362,-1.53497 1.13199,1.10535 c 1.07063,1.04544 1.20792,1.09396 2.53342,0.89518 0.77078,-0.11559 1.40145,-0.12108 1.40145,-0.0122 0,0.10886 -0.27544,0.73785 -0.61209,1.39773 l -0.6121,1.19979 0.6121,1.19979 c 0.33665,0.65989 0.61209,1.25686 0.61209,1.32662 0,0.0697 -0.62749,-0.006 -1.39441,-0.17058 -1.36016,-0.29009 -1.42235,-0.27008 -2.53341,0.81484 l -1.13904,1.11223 z m -55.7538,-10.27181 -0.20545,-2.35525 -1.65817,-1.00496 c -0.91199,-0.55272 -1.72374,-1.11104 -1.80387,-1.24069 -0.0801,-0.12966 0.77553,-0.53836 1.90149,-0.9082 1.12594,-0.36985 2.09075,-0.70889 2.14399,-0.75342 0.0532,-0.0446 0.29793,-0.87813 0.54372,-1.85243 0.24578,-0.97431 0.51262,-1.96256 0.59296,-2.19611 0.0928,-0.26981 0.65696,0.26281 1.54707,1.46063 l 1.40099,1.8853 2.22647,-0.20863 c 1.22457,-0.11476 2.22647,-0.1178 2.22647,-0.006 0,0.11103 -0.55391,0.98734 -1.23092,1.94732 l -1.23092,1.74543 0.78043,2.07337 c 0.42922,1.14036 0.73283,2.12095 0.67469,2.17909 -0.0581,0.0581 -0.89927,-0.16731 -1.86916,-0.501 -0.96991,-0.3337 -1.93411,-0.60671 -2.14269,-0.60671 -0.20859,0 -1.12454,0.60711 -2.03545,1.34913 l -1.65619,1.34912 z m 71.32643,2.12205 c 0,-0.14388 0.13805,-0.98955 0.30677,-1.87924 l 0.30678,-1.61765 -1.42463,-1.44637 c -0.78354,-0.79552 -1.36444,-1.50658 -1.29087,-1.58015 0.0736,-0.0736 0.95153,-0.24713 1.95102,-0.38569 l 1.81723,-0.25193 0.97073,-1.91245 0.97072,-1.91245 0.92447,1.83136 c 0.6383,1.26448 1.13495,1.8728 1.60447,1.96528 0.37401,0.0737 1.27899,0.24648 2.01106,0.38406 l 1.33106,0.25013 -1.442,1.4605 -1.442,1.46047 0.35921,1.82584 c 0.19756,1.00422 0.29782,1.88724 0.22278,1.96228 -0.075,0.075 -0.90251,-0.23929 -1.83883,-0.6985 l -1.7024,-0.83493 -1.67301,0.82053 c -1.84475,0.90474 -1.96256,0.9383 -1.96256,0.55891 z m -26.2317,-10.05664 c 0.0843,-1.11269 -0.009,-1.29835 -0.97758,-1.95694 l -1.07079,-0.72763 0.8293,-0.31529 c 0.45612,-0.17342 1.01875,-0.3153 1.2503,-0.3153 0.24153,0 0.50607,-0.45348 0.62056,-1.06373 0.26827,-1.43005 0.59081,-1.54913 1.23628,-0.45644 0.46707,0.79072 0.71542,0.91423 1.83807,0.91423 0.71391,0 1.29802,0.0737 1.29802,0.16376 0,0.09 -0.29021,0.55626 -0.64489,1.036 -0.62247,0.84194 -0.6388,1.40956 -0.0822,2.85981 0.16559,0.43153 0.0626,0.43733 -1.01482,0.0572 -1.13254,-0.39958 -1.24781,-0.38324 -2.07654,0.29439 -1.19464,0.97684 -1.31319,0.92865 -1.20562,-0.49007 z m -22.37787,-3.18915 c 0.21079,-1.68713 0.20786,-1.69533 -1.07103,-2.99844 l -1.28241,-1.30668 0.94135,-0.18268 c 0.51774,-0.10047 1.33223,-0.2577 1.80997,-0.34939 0.71108,-0.13648 1.00098,-0.47685 1.59836,-1.87665 l 0.72972,-1.70993 0.8917,1.70311 0.8917,1.70311 1.75146,0.20328 c 0.9633,0.1118 1.75147,0.26352 1.75147,0.33715 0,0.0736 -0.56156,0.66806 -1.24789,1.32095 -0.96237,0.91549 -1.2097,1.34592 -1.08106,1.8814 0.0917,0.38187 0.2607,1.21213 0.37544,1.84503 l 0.20862,1.15068 -1.67087,-0.81946 -1.67088,-0.81947 -1.37344,0.80487 c -0.75538,0.4427 -1.46121,0.8049 -1.56851,0.8049 -0.10726,0 -0.0999,-0.7613 0.0163,-1.69178 z"
         style="fill:#000000;stroke-width:0.30296484" />
    </g>
  </g>
</svg>
